<svg xmlns="http://www.w3.org/2000/svg" viewBox="0 0 320.8 136.3">
  <style>
    .st0{fill:#3B99D7;} .st1{fill:#2D3E50;} .st2{fill:#3B99D7;stroke:#3B99D7;stroke-miterlimit:10;}
  </style>
  <path class="st0" d="M274.2 25.8c-13.3-4-28.5-.5-28.5-.5l-3.3 11s12.5-.1 27.3 5.4c14.7 5.4 25.6 11.1 25.6 11.1l3.5-12c0 .1-11.3-11-24.6-15z"/>
  <path class="st0" d="M320.8 40.7l-4.4-4.5.4-1.4s3.7-7.1-5.9-5.7c-.5.1-.8.3-1 .5L280.8 0l-53.6 12.6 15 13 .8-2.6s16.9-3.8 31.8.6c14.9 4.4 27.5 16.8 27.5 16.8l-1.3 4.5 11.1-2.3c-1.8 6-3.8 12.8-4.4 14.9l-3.2-.9-2.2 7.4 5.1-1.7 3.8 4.3 2.2-7.4-3.4-1 4.8-16.1 6-1.4zm-5.9-7.8c0 .2-.2.7-.4 1.4l-2.3-2.4c1.2-.4 3.2-.8 2.7 1zm-.5 6.3c-.4 1.2-1.7 1.9-2.9 1.6-1.2-.4-1.9-1.7-1.6-2.9.4-1.2 1.7-1.9 2.9-1.6 1.3.4 2 1.7 1.6 2.9z"/>
  <path class="st1" d="M22.2 51.6l13.3 42H28l-3.4-10.9H10.7L7.4 93.6H0l13.2-42h9zm-4.4 7.8l-5 16.8h10l-5-16.8zM65.2 59s-7.3-1.3-10.9-1.3c-5.3 0-8.3 3.6-8.5 7.4-.2 5-.2 10 0 15 .2 3.8 3.1 7.4 8.5 7.4 3.4 0 11.2-1.4 11.2-1.4l.2 6.4s-6.5 1.6-11.4 1.6c-9.4 0-15.4-6.4-15.6-14.1-.1-5-.1-10 0-15 .2-7.6 6.4-14 15.7-14 5.2 0 11.2 1.6 11.2 1.6l-.4 6.4zM91.9 51.6l13.3 42h-7.4l-3.4-10.9h-14L77 93.6h-7.4l13.2-42h9.1zm-4.5 7.8l-5 16.8h10l-5-16.8zM111.1 51.6h14.7c9.3 0 15.4 5.8 15.6 13.5.1 5 .1 10 0 15-.2 7.7-6.2 13.5-15.6 13.5h-14.7v-42zm7 6.7V87h7.7c5.4 0 8.3-3.1 8.5-6.8.1-5 .1-10 0-15-.1-3.8-3.2-6.8-8.5-6.8h-7.7zM177.7 51.6v6.7h-20.8v10.3H176v6.6h-19.1V87h21.4v6.7h-28.4v-42h27.8zM223.9 93.6h-7V65.1l.4-4.2-1.9 4.5-7.3 12.1h-6.4l-7.2-11.9-1.9-4.6.4 4.4v28.3h-7v-42h8l11 19.2 10.9-19.3h8v42zM240.5 93.6h-7v-42h7v42zM275.8 59s-7.3-1.3-10.9-1.3c-5.3 0-8.3 3.6-8.5 7.4-.2 5-.2 10 0 15 .2 3.8 3.1 7.4 8.5 7.4 3.4 0 11.2-1.4 11.2-1.4l.2 6.4s-6.5 1.6-11.4 1.6c-9.4 0-15.4-6.4-15.6-14.1-.1-5-.1-10 0-15 .2-7.7 6.3-14.1 15.6-14.1 5.2 0 11.2 1.6 11.2 1.6l-.3 6.5z"/>
  <g>
    <path class="st0" d="M23.1 130.1c.8-1.1 1.4-2.5 1.5-3.2.7 0 2.4.8 1.6 3.5-.7 2.5-3.2 4.7-5.4 5-2.2.3-5.2-1.1-6.1-3.6-1-2.5-.6-4.4-.6-5.5-.9 3.2-2.1 7.9-5.2 8.9-2.3.8-6.7-1.5-7.8-7.2-1.1-5.2.3-14.4 5.6-16.4 3-1.1 6.2-.4 8.2 2.1l.1-.8c0-1 1.8-.8 3.3.1 1.2.7 2.3 1.8 2.3 2.9s-.4 4.8-.7 8.2c-.2 3.6-.2 7 .6 7.4.8.6 1.7-.3 2.6-1.4zM12 125c.9-2.4 1.7-5.3 2.3-7.9-.7-2.3-2.3-3.4-4.1-1.5-1.1 1.1-1.9 3.4-2.4 5.9-.8 4.1-.6 8.7.6 9 1 .2 2.4-2.3 3.6-5.5z"/>
    <path class="st0" d="M35.6 129.2c-1.2 2.7-2.6 5.6-4.2 6.1-1.2.4-2.7.1-4.1-1.1-1.3-1.1-2.6-3-3.2-5.8-.7-3-.4-7 .6-10.3 1-3.1 2.5-5.7 4.8-6.3 1.8-.6 3.7-.6 5.4 0 0-5.1.2-10.3 1-12.4.6-1.8 2.8-2.2 4.8-1.3 2 .8 3.7 2.7 3.7 5.5 0 4-2.2 11.1-2.9 13.1-.2 3.1-.3 5.9-.2 8.2.1 3.5.6 5.8 1.3 6.2 1 .5 2-.3 2.6-1.4.6-.9 1-2.1 1.1-2.7.9-.1 2.3.8 1.8 3.2-.6 2.7-2.8 4.8-5.1 5.6-2.5.8-4.6-.1-6.1-2.4-.6-1.1-1-2.5-1.3-4.2zm-.7-14.3c-.6 0-1.4.2-2.2 1-1.3 1.2-2.2 3.7-2.6 6.3-.6 3.8-.2 7.8.9 8.1 1.1.2 2.5-3.6 4.1-7.6 0-1.8-.1-4.6-.2-7.8zm5.6-7.5c.4-2 .6-3.9-.3-3.8-.7 0-.8 1.9-.8 3.8s.2 3.7.2 3.7.5-1.9.9-3.7z"/>
    <path class="st0" d="M59.7 111.8c.7.4 1.3 1.2 1.4 2.4.1 1-.7 6-1.7 10.8-1 4.6-2.2 9.1-3.3 9.9-1.1.8-2.6.9-4.2.4-1.5-.4-2.9-1.3-3.7-2.4-1.1-1.3-1.6-5.2-2.1-9.2-.6-5-1-10.4-1.9-11.3.6-.8 2.4-1 4-.5 1.4.4 2.8 1.3 3.3 2.7.4 1.3.6 4.5.8 7.6.2 3.9.5 7.9 1.3 8.4.6.4 1.5-3.4 2.4-7.8.9-4.8 1.6-10.3 1.6-11.3.3-.2 1.3-.2 2.1.3zM68.3 123.4c0 2.6.7 5.2 2 6.7 2.1 2.3 4.9 1.8 7.1 0 1.5-1.3 2.7-3.3 3-5.5 1.3-.3 2.4 1.2 2.1 3.1-.6 3.4-3.5 6.1-6.6 7.2-3 1.1-8.3.9-11.5-3.1-3.4-4.2-3.3-12.9 0-17.8 3.9-5.8 11.5-3.7 13.2-.1 1.6 3.5-.5 6-2.1 7.2-2.1 1.6-4.7 2.2-7.2 2.3zm1.1-7.1c-.4 1.2-.8 2.5-1 4.1.9-.2 1.7-.6 2.8-1.2 1.4-1 2-2.4 1.9-3.6 0-1.1-.6-2-1.5-1.9-.8 0-1.6 1.1-2.2 2.6z"/>
    <path class="st0" d="M104.3 130.4c-.8 2.4-3.8 5.3-5.8 5.3-1.3 0-4.8-.4-6.1-4.6-.6-1.9-.5-4.8-.3-7.4.3-3.9.8-7.5-.3-7.7-1.1-.1-3.2 4.9-4.8 9.9-1.2 3.9-2.2 7.6-2.1 8.5.1 1.2-1.4 1.1-2.8-.1-1.1-.9-2-2.3-2.3-4.1-.2-1.7 0-4.7.2-7.9.3-4.1.6-8.5.1-10.3 1.8-.8 4.3.5 5.1 2.6.9 2.3 0 8.5 0 8.5s2.3-9.1 4.6-10.8c2.8-2.1 7.2.2 8.1 3.1.4 1.5.2 4.9 0 8.3-.2 3.7-.5 7.3.2 7.8.8.5 1.9-.2 2.8-1.4.8-1 1.4-2.3 1.5-3.3 1 0 2.7 1.2 1.9 3.6z"/>
    <path class="st0" d="M103.1 130.8c-.4-1.1-.4-4-.3-7.7 0-2.7.1-5.8.3-8.9-1.6 0-2.9-.1-2.9-.1s-.2-.5-.3-1.1c-.1-.7-.1-1.5.6-1.7.6-.2 1.5-.3 2.7-.3v-3c0-2.5-.3-4.1.5-5.6.5-.9 1.9-.8 3.1 0 1 .7 1.9 2 2.4 4 .2.6.2 2.4.1 4.6 1.9 0 3.6 0 4.3-.1.3.8.5 1.6 0 2.2-.3.5-1 .9-2.1 1-.7.1-1.5.2-2.5.2-.1.8-.2 1.7-.3 2.5-.4 3.3-.6 6.2-.7 8.6 0 3.4.3 5.7 1.1 6.3 1.1.8 2.5.1 3.6-1.2.8-1 1.4-2.4 1.6-3.7.9-.1 2.6 1.2 1.6 3.9-1.3 3.4-4.2 5-7.3 4.8-3-.2-4.6-2.1-5.5-4.7z"/>
    <path class="st0" d="M119.5 128.1c.1 1.5 1 1.9 1.6 1.4.8-.6 1.8-3.3 2.7-6.3 1.2-4.1 2.4-9 2.5-10.6.1-1 2.2-.6 3.8.8 1.2 1 2.2 2.4 2.2 4.2 0 2-.2 4.6-.4 7.1-.3 3.5-.4 6.5.7 7 1.3.5 3.6-2.8 4-4.8.6-.1 1.9.4 2 2.2.1 1.5-1.9 5-4 5.9-2.5 1.1-6.2.4-7.5-3.3-1.1-3.1-.4-7.7-.1-9.7-.3 1.6-1.1 5.3-2.3 8.4-.8 1.9-1.7 3.6-2.9 4.2-1.2.7-3.2.3-4.8-1-1.4-1.1-2.6-2.9-3.1-5.3-.4-2.1-.3-4.7-.2-7.2.2-3.7.6-7.4.4-9.2 1.8-.3 5 .8 5.5 3.3.6 2.6-.2 11-.1 12.9z"/>
    <path class="st0" d="M149.7 114.9c.1 1.5-1.8 3.6-1.8 3.6s.7 2 2.6 2.4c1.6.3 3.2-1.2 3.4-2.7 1.2 0 2.2 1.3 1.8 3.1-.2 1.4-1.7 3.3-4.8 3.4-2.4.1-4.7-.9-6.1-2.6-1.1.5-2.1 2.4-2.7 5.3-.3 3 .1 6.2.3 7.4-1.7 1.2-4.4 0-5.3-2.3-.8-1.8-.8-6.3-.8-10.7.1-4.9.3-9.6 0-9.9.5-.5 1.8-.6 3.1 0 1 .5 2 1.5 2.4 3.2.2.8.3 2.2.4 3.8.3-.6.5-1.1.8-1.5-.4-2.8.5-5.1 1.7-6 1.7-1 4.9 1.1 5 3.5z"/>
    <path class="st0" d="M157.9 123.4c0 2.6.7 5.2 2 6.7 2.1 2.3 4.9 1.8 7.1 0 1.5-1.3 2.7-3.3 3-5.5 1.3-.3 2.4 1.2 2.1 3.1-.6 3.4-3.5 6.1-6.6 7.2-3 1.1-8.3.9-11.5-3.1-3.4-4.2-3.3-12.9 0-17.8 3.9-5.8 11.5-3.7 13.2-.1 1.6 3.5-.5 6-2.1 7.2-2.1 1.6-4.7 2.2-7.2 2.3zm1.1-7.1c-.4 1.2-.8 2.5-1 4.1.9-.2 1.7-.6 2.8-1.2 1.4-1 2-2.4 1.9-3.6 0-1.1-.6-2-1.5-1.9-.8 0-1.6 1.1-2.2 2.6z"/>
    <path class="st0" d="M178.4 109.5c2.1.3 3.3 1.7 2.4 2.1-1.4.7-2.4 2.2-1.7 3.7 1.3 2.6 2.7 4.9 3.5 6.6 1.1 2.3 2.3 6.4.4 10 1.2-.6 2.1-1.5 2.9-2.5.7-.8 1.3-1.8 1.4-2.5.6.1 2 .5 1.9 2.7-.1 1.9-1.8 3.6-4.3 5.1-3.7 2.2-8 1.8-11.1 1-2.8-.7-5.4-2.3-6.4-4.5-1.5-3.2.8-5.2 1.8-5.6.7-1.4 1.3-3.2 1.9-5 .6-1.8 1.1-3.7 1.4-5.5-.2-1.1-.3-2.2 0-3.2.8-2.2 3.1-2.8 5.9-2.4zm-5.2 15.8c-.6 1.6-1.2 3.2-1.9 4.4 1.7 1.9 4.1 3.3 5.7 2.4 1.1-.6 1.1-2.7.5-5.1-.4-1.7-1.2-3.6-2.6-6.5-.6 1.5-1.1 3.2-1.7 4.8z"/>
  </g>
  <path class="st2" d="M4.3 37.6h228"/>
</svg>
