<?xml version="1.0" encoding="utf-8"?>
<!-- Generator: Adobe Illustrator 19.2.1, SVG Export Plug-In . SVG Version: 6.00 Build 0)  -->
<svg version="1.1" id="Слой_1" xmlns="http://www.w3.org/2000/svg" xmlns:xlink="http://www.w3.org/1999/xlink" x="0px" y="0px"
	 viewBox="0 0 162.3 174.7" style="enable-background:new 0 0 162.3 174.7;" xml:space="preserve">
<style type="text/css">
	.st0{fill:#3B3B3B;}
</style>
<path class="st0" d="M121.6,174.5c-9.1-0.3-19.8-6-29.3-14.3c-2.5-2.2-5-4.5-7.1-7c-2.5-3.1-4.3-2.7-7.3-0.2
	c-7.7,6.2-15.3,13.1-24,17.5c-21.4,10.8-44.7,0.5-52.1-22.2c-3.1-9.5-1.7-18.9,2.5-27.7c16.8-34.7,33.6-69.5,51-103.9
	C63.4,0.6,81.4-4.7,95.8,4.5c4.8,3.1,9.2,8,11.9,13.1c11.8,22.5,23,45.4,34.2,68.2c5.3,10.7,10.3,21.5,15.3,32.4
	c5.1,11.1,7.4,22.2,2,34.1C153.1,165.8,140.4,174.5,121.6,174.5z M52.3,97c-0.1-14.4,5.4-24.5,14.4-28.9c11.2-5.5,22.2-5.2,32.4,2.4
	c10.5,7.7,13.5,20.6,9.1,35.6c-3.6,12-10.4,22.2-17.7,32.1c-1.9,2.6-3,4.9-0.4,7.5c8.3,8.2,16.8,16,28.7,18.9
	c19.2,4.7,37.3-11.6,33.7-30.9c-1-5.4-3.2-10.8-5.6-15.8c-15.5-32-31.1-63.9-47-95.7c-1.8-3.7-4.8-7.6-8.2-9.6
	c-11.1-6.5-21.8-3.7-28,7.7c-9.8,18.1-19.1,36.5-28.1,55.1c-8.4,17.3-16.7,34.8-24.2,52.5c-4.1,9.6-2.6,19.4,4.3,27.6
	c7.5,8.9,17.1,11.7,28.3,9c12.4-2.9,21.2-11.3,29.5-20.3c0.7-0.8,0.2-3.5-0.6-4.8c-2.5-4.1-5.5-7.9-8.2-11.9
	C57.8,117.2,52.8,106.3,52.3,97z M100.5,92c0-10.6-7.6-18.5-19.7-18.3c-12.1,0.2-19.7,8.4-19.2,21.1c0.4,11.4,5.7,21.2,12,30.2
	c7.4,10.5,6.8,12.7,15.2-0.2C95,115.5,100.8,106,100.5,92z"/>
</svg>
