<?xml version="1.0" encoding="utf-8"?>
<!-- Generator: Adobe Illustrator 19.2.1, SVG Export Plug-In . SVG Version: 6.00 Build 0)  -->
<svg version="1.1" id="Слой_1" xmlns="http://www.w3.org/2000/svg" xmlns:xlink="http://www.w3.org/1999/xlink" x="0px" y="0px"
	 viewBox="0 0 53 42" style="enable-background:new 0 0 53 42;" xml:space="preserve">
<style type="text/css">
	.st0{fill:#3E99D4;}
</style>
<path class="st0" d="M53,39.6L43,3.2l-8.6,2.4l1,3.5h-9.6V4.3h-8.9v3.6H12V0H0v42h10.3H12h4.8h1.7h5.5h1.7H37V15.1L44.4,42L53,39.6z
	 M18.6,6h5.5v4.3h-5.5V6z M18.6,17.5h5.5v19.7h-5.5V17.5z M18.6,15.8v-1h5.5v1H18.6z M18.6,13v-1h5.5v1H18.6z M10.3,36.9H1.7V5.1
	h8.6V36.9z M10.3,1.7v1.6H1.7V1.7H10.3z M1.7,40.3v-1.6h8.6v1.6H1.7z M16.9,40.3H12V9.6h4.8V40.3z M18.6,40.3v-1.4h5.5v1.4H18.6z
	 M35.3,40.3h-9.5V10.8h9.5V40.3z M45.6,39.9l-6-21.9l5.3-1.5l6,21.9L45.6,39.9z M39.1,16.3l-0.5-1.7l5.3-1.5l0.5,1.7L39.1,16.3z
	 M41.8,5.4l1.7,6l-5.3,1.5l-1.7-6L41.8,5.4z"/>
<path class="st0" d="M27.8,12.7h5.5v1.7h-5.5V12.7z"/>
<path class="st0" d="M27.8,15.8h5.5v1.7h-5.5V15.8z"/>
<path class="st0" d="M27.8,18.8h5.5v1.7h-5.5V18.8z"/>
<path class="st0" d="M27.8,36.4h5.5v1.7h-5.5V36.4z"/>
<path class="st0" d="M13.6,25.6h1.7v2.9h-1.7V25.6z"/>
<path class="st0" d="M13.6,30.2h1.7v6.6h-1.7V30.2z"/>
<path class="st0" d="M13.6,16.1h1.7V24h-1.7V16.1z"/>
<path class="st0" d="M13.6,11.6h1.7v3h-1.7V11.6z"/>
</svg>
