<?xml version="1.0" encoding="utf-8"?>
<!-- Generator: Adobe Illustrator 19.2.1, SVG Export Plug-In . SVG Version: 6.00 Build 0)  -->
<svg version="1.1" id="Слой_1" xmlns="http://www.w3.org/2000/svg" xmlns:xlink="http://www.w3.org/1999/xlink" x="0px" y="0px"
	 viewBox="0 0 42 39" style="enable-background:new 0 0 42 39;" xml:space="preserve">
<style type="text/css">
	.st0{fill:#3E99D4;}
</style>
<path class="st0" d="M40.9,4.9h-6.4V1.1C34.5,0.5,34,0,33.5,0c-0.6,0-1.1,0.5-1.1,1.1v3.9H9.6V1.1C9.6,0.5,9.1,0,8.5,0
	C8,0,7.5,0.5,7.5,1.1v3.9H1.1C0.5,4.9,0,5.4,0,6v32C0,38.5,0.5,39,1.1,39h39.9c0.6,0,1.1-0.5,1.1-1.1V6C42,5.4,41.5,4.9,40.9,4.9z
	 M23.9,17.1v5h-5.8v-5H23.9z M39.9,22.1H34v-5h5.8V22.1z M31.9,22.1h-5.8v-5h5.8V22.1L31.9,22.1z M18.1,24.2h5.8v5h-5.8V24.2z
	 M18.1,31.4h5.8v5.5h-5.8V31.4z M26.1,31.4h5.8v5.5h-5.8V31.4z M26.1,29.3v-5h5.8v5H26.1z M34,24.2h5.8v5H34V24.2z M7.5,7v3.9
	c0,0.6,0.5,1.1,1.1,1.1c0.6,0,1.1-0.5,1.1-1.1V7h22.8v3.9c0,0.6,0.5,1.1,1.1,1.1c0.6,0,1.1-0.5,1.1-1.1V7h5.3v8H2.1V7H7.5z
	 M2.1,17.1h13.8v19.8H2.1V17.1z M34,36.9v-5.5h5.8v5.5H34z"/>
</svg>
