<?xml version="1.0" encoding="utf-8"?>
<!-- Generator: Adobe Illustrator 19.2.1, SVG Export Plug-In . SVG Version: 6.00 Build 0)  -->
<svg version="1.1" id="Слой_1" xmlns="http://www.w3.org/2000/svg" xmlns:xlink="http://www.w3.org/1999/xlink" x="0px" y="0px"
	 viewBox="0 0 59 59" style="enable-background:new 0 0 59 59;" xml:space="preserve">
<style type="text/css">
	.st0{fill:#F6C63F;}
</style>
<path class="st0" d="M12,31.6l-5.7,4.6c-0.4,0.3-1,0.3-1.3-0.1c-0.1-0.2-0.2-0.4-0.2-0.6h0v-3.9c-1.2-0.2-2.3-0.8-3.1-1.6l0,0l0,0
	c-1-1-1.7-2.5-1.7-4V5.7c0-1.6,0.6-3,1.7-4l0.1-0.1c1-1,2.4-1.6,4-1.6H39c1.6,0,3,0.6,4,1.7c1,1,1.7,2.5,1.7,4v20.2
	c0,1.6-0.6,3-1.7,4L43,30c-1,1-2.4,1.6-4,1.6H12L12,31.6z M6.6,33.5L11,30c0.2-0.2,0.4-0.3,0.6-0.3H39c1,0,2-0.4,2.7-1.1l0,0
	c0.7-0.7,1.1-1.7,1.1-2.7V5.7c0-1.1-0.4-2-1.1-2.7C41,2.3,40.1,1.8,39,1.8H5.7c-1,0-2,0.4-2.7,1.1l0,0C2.3,3.7,1.8,4.6,1.8,5.7v20.2
	c0,1.1,0.4,2,1.1,2.7l0,0c0.7,0.7,1.6,1.1,2.7,1.1h0c0.5,0,0.9,0.4,0.9,0.9V33.5L6.6,33.5z M1.7,1.6l0.2-0.3C1.6,1,2.1,1.3,1.7,1.6
	L1.7,1.6z M43,30l-0.3,0.2C43,30.5,42.6,30.3,43,30z"/>
<path class="st0" d="M8.1,9C7.6,9,7.1,8.6,7.1,8.1c0-0.5,0.4-0.9,0.9-0.9h28.6c0.5,0,0.9,0.4,0.9,0.9c0,0.5-0.4,0.9-0.9,0.9H8.1z"/>
<path class="st0" d="M8.1,14.7c-0.5,0-0.9-0.4-0.9-0.9c0-0.5,0.4-0.9,0.9-0.9h28.6c0.5,0,0.9,0.4,0.9,0.9c0,0.5-0.4,0.9-0.9,0.9H8.1
	z"/>
<path class="st0" d="M47.4,31.6c-0.5,0-0.9-0.4-0.9-0.9c0-0.5,0.4-0.9,0.9-0.9h3.6c0.5,0,0.9,0.4,0.9,0.9c0,0.5-0.4,0.9-0.9,0.9
	H47.4z"/>
<path class="st0" d="M22.4,37.3c-0.5,0-0.9-0.4-0.9-0.9c0-0.5,0.4-0.9,0.9-0.9h28.6c0.5,0,0.9,0.4,0.9,0.9c0,0.5-0.4,0.9-0.9,0.9
	H22.4z"/>
<path class="st0" d="M22.4,43c-0.5,0-0.9-0.4-0.9-0.9c0-0.5,0.4-0.9,0.9-0.9h28.6c0.5,0,0.9,0.4,0.9,0.9c0,0.5-0.4,0.9-0.9,0.9H22.4
	z"/>
<path class="st0" d="M22.4,48.7c-0.5,0-0.9-0.4-0.9-0.9c0-0.5,0.4-0.9,0.9-0.9h20.2c0.5,0,0.9,0.4,0.9,0.9c0,0.5-0.4,0.9-0.9,0.9
	H22.4z"/>
<path class="st0" d="M14.3,35.5c0-0.5,0.4-0.9,0.9-0.9c0.5,0,0.9,0.4,0.9,0.9v13.1c0,1.1,0.4,2,1.1,2.7l0,0c0.7,0.7,1.6,1.1,2.7,1.1
	h27.4c0.3,0,0.5,0.1,0.6,0.3l4.4,3.5l0-2.9c0-0.5,0.4-0.9,0.9-0.9v0c1.1,0,2-0.4,2.7-1.1l0,0c0.7-0.7,1.1-1.7,1.1-2.7V29.5
	c0-1.1-0.4-2-1.1-2.7l0,0c-0.7-0.7-1.6-1.1-2.7-1.1h-4.8c-0.5,0-0.9-0.4-0.9-0.9c0-0.5,0.4-0.9,0.9-0.9h4.8c1.5,0,2.9,0.6,4,1.6
	l0.1,0.1c1,1,1.7,2.5,1.7,4v19.1c0,1.6-0.6,3-1.7,4l0,0l0,0c-0.8,0.8-1.9,1.4-3.1,1.6l0,3.9h0c0,0.2-0.1,0.4-0.2,0.6
	c-0.3,0.4-0.9,0.5-1.3,0.1L47,54.2H20c-1.5,0-2.9-0.6-4-1.6L16,52.6c-1-1-1.7-2.5-1.7-4V35.5L14.3,35.5z"/>
<path class="st0" d="M8.1,20.4c-0.5,0-0.9-0.4-0.9-0.9c0-0.5,0.4-0.9,0.9-0.9h20.2c0.5,0,0.9,0.4,0.9,0.9c0,0.5-0.4,0.9-0.9,0.9H8.1
	z"/>
</svg>
