<?xml version="1.0" encoding="utf-8"?>
<!-- Generator: Adobe Illustrator 19.2.1, SVG Export Plug-In . SVG Version: 6.00 Build 0)  -->
<svg version="1.1" id="Слой_1" xmlns="http://www.w3.org/2000/svg" xmlns:xlink="http://www.w3.org/1999/xlink" x="0px" y="0px"
	 viewBox="0 0 40 40" style="enable-background:new 0 0 40 40;" xml:space="preserve">
<style type="text/css">
	.st0{fill:#3E99D4;}
</style>
<path class="st0" d="M38.4,12.2c-2.1-4.9-5.7-8.5-10.7-10.6C25.3,0.5,22.7,0,20,0c-2.7,0-5.3,0.5-7.8,1.6C7.3,3.7,3.7,7.3,1.6,12.2
	C0.5,14.7,0,17.3,0,20c0,2.7,0.5,5.3,1.6,7.8c2.1,4.9,5.7,8.5,10.6,10.6c2.5,1.1,5.1,1.6,7.8,1.6c2.7,0,5.3-0.5,7.8-1.6
	c5-2.1,8.5-5.7,10.7-10.6c1.1-2.5,1.6-5.1,1.6-7.8C40,17.3,39.5,14.7,38.4,12.2z M35.2,28.8c-1.6,2.7-3.7,4.8-6.4,6.4
	c-2.7,1.6-5.6,2.4-8.8,2.4c-2.4,0-4.7-0.5-6.8-1.4c-2.2-0.9-4-2.2-5.6-3.7C6,30.9,4.7,29,3.8,26.8c-0.9-2.2-1.4-4.5-1.4-6.8
	c0-3.2,0.8-6.1,2.3-8.8c1.6-2.7,3.7-4.8,6.4-6.4c2.7-1.6,5.6-2.4,8.8-2.4c3.2,0,6.1,0.8,8.8,2.4c2.7,1.6,4.9,3.7,6.4,6.4
	c1.6,2.7,2.4,5.6,2.4,8.8S36.8,26.1,35.2,28.8z"/>
<path class="st0" d="M21.2,19.8V8.5c0-0.7-0.6-1.2-1.3-1.2c-0.6,0-1.2,0.5-1.2,1.2V20c0,0,0,0.1,0,0.2c0,0.4,0.1,0.7,0.3,1l6.5,6.5
	c0.4,0.4,1.2,0.4,1.7,0c0.5-0.5,0.5-1.2,0-1.7L21.2,19.8z"/>
</svg>
