<?xml version="1.0" encoding="utf-8"?>
<!-- Generator: Adobe Illustrator 19.2.1, SVG Export Plug-In . SVG Version: 6.00 Build 0)  -->
<svg version="1.1" id="Режим_изоляции"
	 xmlns="http://www.w3.org/2000/svg" xmlns:xlink="http://www.w3.org/1999/xlink" x="0px" y="0px" viewBox="0 0 425.1 370.3"
	 style="enable-background:new 0 0 425.1 370.3;" xml:space="preserve">
<style type="text/css">
	.st0{fill:#F6B432;}
	.st1{fill:#EAA633;}
	.st2{fill:#F6C640;}
	.st3{fill:#ECECEC;}
	.st4{fill:#F6DD49;}
	.st5{opacity:0.78;fill:#EA892C;}
	.st6{opacity:0.3;fill:#8E5729;}
	.st7{opacity:0.1;}
	.st8{fill:url(#SVGID_1_);}
	.st9{fill:url(#SVGID_2_);}
	.st10{fill:#9B1E0E;}
	.st11{fill:#FFFFFF;}
	.st12{opacity:0.3;fill:#C6C6C5;}
	.st13{opacity:0.2;fill:#C6C6C5;}
	.st14{opacity:7.000000e-002;}
	.st15{fill:#DC4336;}
	.st16{opacity:0.5;fill:#6D0505;}
	.st17{fill:url(#SVGID_3_);}
	.st18{opacity:0.3;fill:#280F3A;}
	.st19{fill:url(#SVGID_4_);}
	.st20{fill:#ADADAD;}
	.st21{fill:url(#SVGID_5_);}
	.st22{fill:url(#SVGID_6_);}
	.st23{opacity:0.7;}
	.st24{fill:#FFD712;}
	.st25{fill:url(#SVGID_7_);}
</style>
<g id="object">
	<g>
		<g>
			<g>
				<g>
					<path class="st0" d="M6.8,237.4c0,0-15.6,35,0.6,66.1l295.5,66.8c0,0-11.7-31.6-5.9-78.7L6.8,237.4z"/>
					<polygon class="st1" points="306.8,358.9 385.7,305.2 366.8,304.4 301.8,349 					"/>
					<path class="st2" d="M365.2,247.5l-6-0.8l-248.4-35.1L6.8,237.4c0,0,288.9,54.2,290.2,54.9c1.1,0.6,68.4-35.7,82.2-43.3
						L365.2,247.5z"/>
					<path class="st3" d="M375,259.9l-71.1,38.7c0,0-5.6,29.9,2.2,55.5l66.5-47L375,259.9z"/>
					<path class="st4" d="M306.8,358.9c0,0-6.8-34-3-60.4l78-42.6l-0.1-6.8l-2.6-0.1l-82.2,43.3c0,0-8.5,50.1,6,78l83-58.8l-0.2-6.3
						L306.8,358.9z"/>
				</g>
				<path class="st5" d="M37.5,257.5l-29.4-5.2c0,0-4.8,23.1,1.3,40.9l25.6,5.6C35.2,285.1,36,271.3,37.5,257.5z"/>
				<path class="st5" d="M241,293.5c-2.9,16.3-3.8,32.9-3.5,49.6l42.6,10.6c0,0-2.4-34.4,4.2-52.6L241,293.5z"/>
				<path class="st5" d="M238,292.8l-15.6-2.8c-3,15.9-4.9,31.9-6.1,48.1l18.2,4C234.2,325.5,235.1,309,238,292.8z"/>
				<path class="st5" d="M55.1,261.5l-14.6-2.6c-1.5,13.9-2.2,27.8-2.3,41.6l14.4,3.2C52.6,289.5,53.3,275.4,55.1,261.5z"/>
				<g>
					<g>
						<path class="st5" d="M63.6,270.3c0-0.3,0.3-0.5,0.6-0.4c3.3,0.4,4.9,0.7,8.2,1.1c2.3,0.3,3.9,2.4,3.6,4.6
							c-1.1,7.8-1.6,11.7-2.7,19.5c-0.3,2.2-2.4,3.7-4.7,3.4c-3.3-0.5-4.9-0.8-8.2-1.2c-0.3,0-0.5-0.3-0.4-0.6
							C61.5,286.1,62.2,280.9,63.6,270.3z M72.6,275.2c0.1-0.6-0.3-1.1-0.9-1.1c-2-0.3-3-0.4-5-0.7c-1.2,8.5-1.8,12.8-2.9,21.3
							c2,0.3,3,0.4,5,0.8c0.6,0.1,1.1-0.3,1.2-0.8C71,286.8,71.5,282.9,72.6,275.2z"/>
						<path class="st5" d="M81.2,300.1c0,0.3-0.3,0.4-0.6,0.4c-1-0.2-1.4-0.2-2.4-0.4c-0.3,0-0.5-0.3-0.4-0.6
							c1.5-10.7,2.2-16,3.7-26.7c0-0.3,0.3-0.5,0.6-0.4c1,0.1,1.4,0.2,2.4,0.4c0.3,0,0.5,0.3,0.4,0.6
							C83.4,284,82.6,289.4,81.2,300.1z"/>
						<path class="st5" d="M97.7,277.9c-1.5-0.3-2.3-0.4-3.8-0.6c-0.6-0.1-1.1,0.3-1.2,0.8c-1.1,8-1.7,12.1-2.8,20.1
							c-0.1,0.6,0.3,1.1,0.9,1.2c1.6,0.3,2.4,0.4,4,0.7c0.6,0.1,1.1-0.3,1.2-0.8c0.2-1.8,0.4-2.7,0.6-4.4c0-0.3,0.3-0.5,0.6-0.4
							c1,0.2,1.4,0.3,2.4,0.4c0.3,0.1,0.5,0.3,0.4,0.6c-0.2,1.7-0.4,2.6-0.6,4.3c-0.3,2.3-2.4,3.7-4.7,3.3c-1.8-0.3-2.7-0.5-4.5-0.8
							c-2.3-0.4-3.9-2.5-3.6-4.8c1.1-8,1.7-12,2.8-20c0.3-2.3,2.4-3.8,4.7-3.4c1.7,0.3,2.6,0.4,4.3,0.7c2.3,0.4,3.9,2.5,3.6,4.8
							c-0.1,1-0.2,1.6-0.4,2.6c0,0.3-0.3,0.5-0.6,0.4c-1-0.2-1.4-0.2-2.4-0.4c-0.3,0-0.5-0.3-0.4-0.6c0.1-1,0.2-1.5,0.4-2.5
							C98.7,278.5,98.3,278,97.7,277.9z"/>
						<path class="st5" d="M119.1,278.6c0.3,0.1,0.5,0.3,0.4,0.6c-0.1,0.9-0.2,1.3-0.3,2.2c0,0.3-0.3,0.5-0.6,0.4
							c-1.7-0.3-2.6-0.5-4.4-0.8c-1.4,9.8-2,14.7-3.4,24.5c0,0.3-0.3,0.5-0.6,0.4c-0.9-0.2-1.4-0.3-2.4-0.5
							c-0.3-0.1-0.5-0.3-0.4-0.6c1.3-9.8,2-14.7,3.4-24.5c-1.7-0.3-2.6-0.5-4.3-0.8c-0.3,0-0.5-0.3-0.4-0.6c0.1-0.9,0.2-1.3,0.3-2.1
							c0-0.3,0.3-0.5,0.6-0.4C111.9,277.3,114.3,277.8,119.1,278.6z"/>
						<path class="st5" d="M123.6,308c0,0.3-0.3,0.5-0.6,0.4c-0.9-0.2-1.4-0.3-2.4-0.5c-0.3-0.1-0.5-0.3-0.4-0.6
							c1.5-10.9,2.3-16.4,3.8-27.3c0-0.3,0.3-0.5,0.6-0.4c1,0.2,1.4,0.3,2.4,0.4c0.3,0.1,0.5,0.3,0.4,0.6
							C125.9,291.5,125.1,297,123.6,308z"/>
						<path class="st5" d="M131.9,285c0.3-2.3,2.5-3.8,4.7-3.4c1.8,0.3,2.7,0.5,4.5,0.8c2.3,0.4,3.9,2.6,3.6,4.9
							c-1.1,8.2-1.7,12.4-2.8,20.6c-0.3,2.3-2.5,3.8-4.7,3.4c-1.8-0.4-2.7-0.5-4.5-0.9c-2.3-0.4-3.9-2.7-3.6-5
							C130.2,297.3,130.7,293.2,131.9,285z M141.3,286.8c0.1-0.6-0.3-1.1-0.9-1.2c-1.6-0.3-2.4-0.4-4-0.7c-0.6-0.1-1.1,0.3-1.2,0.8
							c-1.1,8.2-1.7,12.3-2.8,20.6c-0.1,0.6,0.3,1.1,0.9,1.2c1.6,0.3,2.4,0.5,4,0.8c0.6,0.1,1.1-0.3,1.2-0.8
							C139.6,299.1,140.2,295,141.3,286.8z"/>
						<path class="st5" d="M150.7,284.3c0.9,0.2,1.4,0.3,2.3,0.4c0,0,0.4,0.1,0.5,0.6c1.6,7.5,2.3,11.3,3.9,18.8
							c1-7.1,1.5-10.6,2.4-17.7c0-0.3,0.3-0.5,0.6-0.4c1,0.2,1.4,0.3,2.4,0.4c0.3,0.1,0.5,0.3,0.4,0.6c-1.3,9.3-2.6,18.6-3.8,27.9
							c0,0.3-0.3,0.5-0.6,0.4c-0.9-0.2-1.3-0.3-2.2-0.4c0,0-0.4-0.1-0.5-0.6c-1.6-7.5-2.4-11.3-4.1-18.8c-1,7-1.4,10.5-2.4,17.5
							c0,0.3-0.3,0.5-0.6,0.4c-0.9-0.2-1.4-0.3-2.4-0.5c-0.3-0.1-0.5-0.3-0.4-0.6c1.5-11.1,2.3-16.6,3.8-27.7
							C150.2,284.5,150.4,284.3,150.7,284.3z"/>
						<path class="st5" d="M176.1,288.8c0,0,0.5,0.1,0.5,0.6c0.3,9.6,0.6,19.3,0.8,28.9c0,0.5-0.4,0.5-0.4,0.5
							c-1.1-0.2-1.6-0.3-2.7-0.5c0,0-0.4-0.1-0.4-0.6c0-1.7,0-2.6-0.1-4.4c-2.3-0.4-3.4-0.6-5.7-1.1c-0.5,1.6-0.7,2.5-1.2,4.1
							c-0.1,0.5-0.5,0.4-0.5,0.4c-1.1-0.2-1.6-0.3-2.7-0.5c0,0-0.4-0.1-0.2-0.6c2.9-9,5.7-18.1,8.6-27.1c0.1-0.5,0.6-0.4,0.6-0.4
							C174.1,288.5,174.8,288.6,176.1,288.8z M169.1,309.2c1.9,0.4,2.9,0.5,4.8,0.9c-0.1-6.5-0.1-9.8-0.2-16.3
							C171.9,299.9,170.9,303,169.1,309.2z"/>
						<path class="st5" d="M185.5,290.9c0-0.3,0.3-0.5,0.6-0.4c3.3,0.5,4.9,0.8,8.1,1.3c2.3,0.4,3.9,2.6,3.6,4.9
							c-0.5,3.5-0.7,5.2-1.2,8.6c-0.3,1.8-1.6,3.2-3.1,3.6c0.5,5,0.7,7.4,1.2,12.4c0.1,0.5-0.3,0.5-0.3,0.5
							c-1.1-0.2-1.6-0.3-2.7-0.4c0,0-0.4-0.1-0.4-0.6c-0.5-4.8-0.7-7.3-1.2-12.1c-1.4-0.2-2.1-0.3-3.5-0.6c-0.6,4.6-1,7-1.6,11.6
							c0,0.3-0.3,0.5-0.6,0.4c-1-0.2-1.4-0.3-2.4-0.4c-0.3-0.1-0.5-0.3-0.4-0.6C183,309.7,184.2,300.3,185.5,290.9z M194.4,296.3
							c0.1-0.6-0.3-1.1-0.9-1.2c-2-0.3-3-0.5-5-0.8c-0.6,4.3-0.9,6.5-1.5,10.8c2,0.3,3,0.5,5,0.8c0.6,0.1,1.1-0.3,1.2-0.9
							C193.7,301.5,194,299.7,194.4,296.3z"/>
						<path class="st5" d="M207.9,314.6c-0.5,3.5-0.7,5.2-1.2,8.7c0,0.3-0.3,0.5-0.6,0.4c-0.9-0.1-1.4-0.2-2.3-0.4
							c-0.3,0-0.5-0.3-0.4-0.6c0.5-3.5,0.7-5.2,1.2-8.7c-1-8.2-1.4-12.3-2.4-20.5c-0.1-0.5,0.3-0.5,0.3-0.5c1.1,0.2,1.6,0.2,2.7,0.4
							c0,0,0.4,0.1,0.4,0.6c0.7,5.4,1,8.1,1.7,13.5c2.1-5,3.2-7.5,5.3-12.6c0.2-0.5,0.5-0.5,0.5-0.5c1.1,0.1,1.6,0.2,2.7,0.4
							c0,0,0.4,0,0.1,0.5C212.6,303.1,211.1,306.9,207.9,314.6z"/>
					</g>
				</g>
			</g>
			<path class="st6" d="M374.9,260l-71,38.5c0,0-2.5,25.2,0.6,41.6C304.4,340.1,311.4,302.3,374.9,260z"/>
			<polygon class="st7" points="42.1,229.4 19.4,238.6 290,270.7 305.2,256.3 			"/>
			<g>
				<g>
					
						<linearGradient id="SVGID_1_" gradientUnits="userSpaceOnUse" x1="169.4869" y1="148.7993" x2="161.2406" y2="248.6272" gradientTransform="matrix(0.9992 3.960000e-002 -3.960000e-002 0.9992 9.8042 -9.1246)">
						<stop  offset="1.530610e-002" style="stop-color:#E84C3D"/>
						<stop  offset="0.1531" style="stop-color:#DC3336"/>
						<stop  offset="0.4388" style="stop-color:#C43333"/>
						<stop  offset="0.5983" style="stop-color:#CA3334"/>
						<stop  offset="0.8163" style="stop-color:#DC3336"/>
						<stop  offset="1" style="stop-color:#E84C3D"/>
					</linearGradient>
					<path class="st8" d="M55.7,131.7c-0.1,0-14.7-5.1-15.4,13c-0.7,18.1,0,81,0,81s1.5,11.1,14.4,12.2
						c12.9,1.2,236.6,32.8,236.6,32.8c-9.5-5-8.8-55.5-9-86.9c0-4.9-0.1-9.9-0.1-14.8c0-4.4-0.6-12.9,1.2-16.9
						c1-2.2,2.7-3.4,4.2-5.1c-9.8-1.1-19.5-1.7-29.3-2.3c-18.9-1.2-37.9-2.4-56.8-3.6c-21.5-1.4-43.1-2.8-64.6-4.2
						c-18.4-1.2-36.7-2.4-55.1-3.6c-8.3-0.5-16.7-1.1-25-1.6C56.4,131.7,56,131.8,55.7,131.7z"/>
					<linearGradient id="SVGID_2_" gradientUnits="userSpaceOnUse" x1="50.3006" y1="134.6441" x2="370.2401" y2="134.6441">
						<stop  offset="1.530610e-002" style="stop-color:#E84C3D"/>
						<stop  offset="0.1531" style="stop-color:#DC3336"/>
						<stop  offset="0.4388" style="stop-color:#C43333"/>
						<stop  offset="0.5983" style="stop-color:#CA3334"/>
						<stop  offset="0.8163" style="stop-color:#DC3336"/>
						<stop  offset="1" style="stop-color:#E84C3D"/>
					</linearGradient>
					<polygon class="st9" points="50.3,132 287.6,147 370.2,138 161.6,122.3 					"/>
					<polygon class="st10" points="365.5,228.1 351.4,227 349.7,231.8 282,260.5 295,270.3 365.5,228.3 					"/>
					<path class="st11" d="M362.6,140.9c0,0-14.1,73.3-9.9,90l-66.4,34.1l-1.9-101c0,0-2.4-13.7,9.4-15.2
						C305.4,147.4,362.6,140.9,362.6,140.9z"/>
					<polygon class="st12" points="281.5,165.4 360.1,153.5 359.5,156.2 281.4,168.2 					"/>
					<polygon class="st13" points="281.1,172.2 359.1,160 358.5,162.6 281,175 					"/>
					<polygon class="st12" points="285.3,184.7 356.8,172.5 356.3,174.8 285.2,187.5 					"/>
					<polygon class="st12" points="285.1,190.5 356.2,177.7 355.8,180.8 285,193.3 					"/>
					<polygon class="st13" points="284.2,196 355.3,183.7 354.9,186.9 284.1,199.7 					"/>
					<polygon class="st13" points="281.3,217.9 353.2,200.8 352.9,203.4 281.3,220.6 					"/>
					<polygon class="st12" points="281.5,226.3 352.4,209.7 352,211.9 281.5,229 					"/>
					<polygon class="st13" points="283.4,245.8 351.8,220 351.9,222.3 283.8,248.5 					"/>
					<polygon class="st13" points="281.4,222.1 352.8,204.9 352.5,207.6 281.4,224.8 					"/>
					<path class="st14" d="M285.2,265.8l1.1-113.7l75.3-9.7l-2.5,13.5C359.1,155.9,303.2,167.3,285.2,265.8z"/>
					<path class="st15" d="M365.5,228.3l-65.4,33.9c0,0-6.8,4.1-9.9,1.8c-3.1-2.3-2.2-11.3-2.2-11.3l-0.3-86.1
						c0,0-1.6-15.1,7.9-15.7c11.7-0.8,74.7-7.7,74.7-7.7l0.2-5.3c0,0-77.8,6.3-82.9,9.2c0,0-7,0.9-6.7,19.4
						c0.2,14.4,0.4,68.3,0.9,94c0.1,4,2.2,7.4,4.7,8.9c2.8,1.6,6.9,1.9,9,1c21.1-9.5,61.9-32,69.8-36.5L365.5,228.3z"/>
				</g>
				<polygon class="st16" points="60.8,148.5 57.8,223.3 80.1,226.1 83.1,150.4 				"/>
				<polygon class="st16" points="244.7,163.4 241.1,255.2 263.3,258.4 267,165.5 				"/>
				<g>
					<g>
						<path class="st16" d="M109.7,189.8c-5.2-0.5-7.8-0.7-13-1.1c-0.2,3.9-0.4,5.8-0.6,9.7c5.8,0.5,8.7,0.7,14.4,1.3
							c-0.1,1.2-0.1,1.8-0.2,2.9c-7.5-0.8-11.2-1.2-18.7-1.7c0.7-10.7,1-16.1,1.7-26.8c7.2,0.4,10.8,0.6,18,1.2
							c-0.1,1.2-0.1,1.8-0.2,2.9c-5.5-0.5-8.2-0.7-13.7-1c-0.2,3.4-0.3,5.1-0.5,8.5c5.2,0.4,7.8,0.6,13,1
							C109.8,188.1,109.8,188.7,109.7,189.8z"/>
						<path class="st16" d="M116.7,189c0.1-2,0.2-3.7,0.1-5.3c1.5,0.1,2.3,0.2,3.9,0.4c0,1.3,0,2,0,3.3c0,0,0.1,0,0.1,0
							c1.3-1.7,4.2-3.3,8.1-2.9c3.3,0.4,8.3,2.6,7.9,9.5c-0.3,4.8-0.5,7.2-0.8,11.9c-1.7-0.2-2.6-0.4-4.3-0.6
							c0.3-4.6,0.4-6.9,0.7-11.5c0.2-3.2-1.1-6.1-5.2-6.5c-2.9-0.3-5.2,1.1-6.1,3c-0.2,0.4-0.4,1-0.4,1.6c-0.3,4.7-0.5,7.1-0.8,11.8
							c-1.7-0.2-2.6-0.3-4.3-0.5C116.2,197.6,116.4,194.7,116.7,189z"/>
						<path class="st16" d="M165,189.4c-0.2,1.5-0.4,3.1-0.6,5.6c-0.3,4.7-0.5,7.1-0.8,11.9c-0.3,4.7-1.6,7.4-4,8.8
							c-2.4,1.5-5.8,1.6-8.8,1.1c-2.9-0.4-6-1.5-7.8-2.9c0.5-1,0.8-1.6,1.3-2.6c1.5,1.1,3.9,2.2,6.9,2.6c4.4,0.7,7.8-0.8,8.1-6
							c0.1-0.9,0.1-1.4,0.1-2.3c0,0-0.1,0-0.1,0c-1.5,1.7-4.1,2.8-7.8,2.3c-5.9-0.9-9.9-5.7-9.5-11.2c0.4-6.8,6-10,11.4-9.3
							c4.1,0.5,6.3,2.7,7.2,4.5c0,0,0.1,0,0.1,0c0.2-1.2,0.2-1.8,0.4-3C162.8,189.1,163.5,189.2,165,189.4z M160,196.9
							c0-0.6,0-1.2-0.1-1.7c-0.7-2.3-2.7-4.3-5.8-4.7c-4.1-0.5-7.3,2-7.6,6.7c-0.3,4,1.9,7.6,6.6,8.2c2.7,0.4,5.2-0.7,6.3-2.9
							c0.3-0.6,0.4-1.3,0.5-1.9C159.9,199.1,159.9,198.3,160,196.9z"/>
						<path class="st16" d="M172.6,180.7c1.7,0.2,2.6,0.3,4.3,0.5c-0.6,10.1-1.3,20.2-1.9,30.3c-1.7-0.3-2.6-0.4-4.3-0.6
							C171.4,200.8,172,190.8,172.6,180.7z"/>
						<path class="st16" d="M188.9,186.5c-0.1,1.3-1.2,2.2-2.9,2c-1.5-0.2-2.5-1.3-2.5-2.6c0.1-1.3,1.3-2.2,2.9-2
							C188,184,188.9,185.2,188.9,186.5z M182.3,212.6c0.5-8.3,0.8-12.5,1.3-20.8c1.7,0.2,2.6,0.3,4.3,0.5
							c-0.5,8.3-0.8,12.5-1.3,20.9C184.9,212.9,184.1,212.8,182.3,212.6z"/>
						<path class="st16" d="M193.5,210.2c1.2,0.9,3.5,2,5.6,2.3c3.2,0.4,4.7-0.8,4.8-2.6c0.1-1.8-1.1-3-4.2-4.4
							c-4.2-1.9-6.1-4.2-5.9-6.7c0.2-3.4,3.5-5.8,8.6-5.2c2.4,0.3,4.5,1.1,5.8,1.9c-0.5,1.1-0.8,1.6-1.3,2.7
							c-0.9-0.6-2.6-1.5-4.8-1.7c-2.6-0.3-4.1,0.9-4.2,2.4c-0.1,1.7,1.3,2.7,4.3,4.1c4.1,1.9,6.1,3.9,5.9,7.1
							c-0.2,3.7-3.7,6-9.3,5.3c-2.6-0.3-5-1.2-6.6-2.3C192.8,211.8,193,211.3,193.5,210.2z"/>
						<path class="st16" d="M215.4,185.3c1.7,0.1,2.6,0.2,4.4,0.4c-0.3,5.3-0.5,8-0.9,13.3c0,0,0.1,0,0.1,0c0.8-1,1.9-1.9,3.3-2.5
							c1.3-0.5,2.9-0.9,4.5-0.8c3.2,0.2,8.3,2.3,7.8,9.8c-0.3,5.2-0.5,7.7-0.8,12.9c-1.7-0.1-2.6-0.2-4.4-0.3
							c0.3-5,0.5-7.4,0.8-12.4c0.2-3.5-1-6.5-5.1-6.8c-2.8-0.2-5.2,1.4-6.1,3.4c-0.3,0.5-0.4,1.1-0.4,1.8c-0.3,5.2-0.5,7.7-0.8,12.9
							c-1.7-0.2-2.6-0.3-4.3-0.5C214.1,206.1,214.7,195.7,215.4,185.3z"/>
					</g>
				</g>
			</g>
			<path class="st6" d="M319.8,190.3l12.2,24.3C331.9,214.6,335.4,188.5,319.8,190.3"/>
			
				<linearGradient id="SVGID_3_" gradientUnits="userSpaceOnUse" x1="340.5766" y1="208.9929" x2="330.5273" y2="184.8747" gradientTransform="matrix(0.9992 3.960000e-002 -3.960000e-002 0.9992 9.8042 -9.1246)">
				<stop  offset="1.530610e-002" style="stop-color:#DC3336"/>
				<stop  offset="0.6071" style="stop-color:#B63333"/>
				<stop  offset="1" style="stop-color:#BD3333"/>
			</linearGradient>
			<path class="st17" d="M319.8,189.9l20.6-3.6c0,0,14.5,7.8,8,24l-16.4,4.3C331.9,214.6,334.4,189.5,319.8,189.9z"/>
		</g>
	</g>
	<g>
		<path class="st18" d="M136.8,136.9c0,0,4.4,39.4-17.7,41.1c-26,2-35-27-32-43L136.8,136.9z"/>
		<linearGradient id="SVGID_4_" gradientUnits="userSpaceOnUse" x1="214.6114" y1="13.9999" x2="214.6114" y2="100.0518">
			<stop  offset="0" style="stop-color:#5C5C5C"/>
			<stop  offset="0.2821" style="stop-color:#3E3E3E"/>
			<stop  offset="1" style="stop-color:#000000"/>
		</linearGradient>
		<polygon class="st19" points="4.1,70 209.1,93.5 425.1,73 208.1,7 		"/>
		<path d="M102.1,130c0,0,102,18,215,8c0,0,24.8-57.1,11-67c-37.4-26.9-134.9-47.9-234-9C78.2,68.3,102.1,130,102.1,130z"/>
		<polygon class="st20" points="4.1,70 208.1,7 425.1,73 425.1,67 208.1,0 3.1,65 		"/>
		<g>
			<linearGradient id="SVGID_5_" gradientUnits="userSpaceOnUse" x1="123.5985" y1="141.1035" x2="92.5984" y2="142.1035">
				<stop  offset="0" style="stop-color:#F7B719"/>
				<stop  offset="1" style="stop-color:#DD721B"/>
			</linearGradient>
			<path class="st21" d="M118.8,115.5c13-0.6,19,17.2,21,27.9c2,11.2,0.2,22.1-13.6,23.3c-12.7,1.1-24-0.1-24.9-15.1
				C100.5,138.8,103.7,116.1,118.8,115.5z"/>
			<linearGradient id="SVGID_6_" gradientUnits="userSpaceOnUse" x1="123.3557" y1="29.7866" x2="123.3557" y2="118.0282">
				<stop  offset="0" style="stop-color:#F7B719"/>
				<stop  offset="1" style="stop-color:#DD721B"/>
			</linearGradient>
			<path class="st22" d="M131.4,23c0,0-14.5-0.8-8.7,93.1h-5.3C117.4,116.1,107.1,13,131.4,23z"/>
			<g class="st23">
				<path class="st24" d="M125.9,160.6c0,0.7,0.1,1.4,0.1,2C125.9,162.1,125.9,161.4,125.9,160.6z"/>
				<path class="st24" d="M124.2,143.3c0.4,6.3,1.4,13,1.7,17.3C125.6,154.8,124.8,149.1,124.2,143.3z"/>
				<path class="st24" d="M123.2,119c-13.3-1.4-12.7,36-9.9,43.2v1.8c3.9-10.7,2.5-24.5,6.1-35c-1.6,10.7,1.4,22.7,0.2,33.8
					c5.1-10.1,0.3-24.4,3.7-35.4c-0.1,5.5,0.4,10.7,0.9,15.9c-0.4-6.9-0.1-13.2,2.7-15.2c3.5,9.5-1.9,21.6,5.2,30.2
					C135.5,151.4,132.4,119.9,123.2,119z"/>
			</g>
			<linearGradient id="SVGID_7_" gradientUnits="userSpaceOnUse" x1="119.6117" y1="99.0927" x2="119.6117" y2="117.9118">
				<stop  offset="0" style="stop-color:#F7B719"/>
				<stop  offset="1" style="stop-color:#DD721B"/>
			</linearGradient>
			<circle class="st25" cx="119.6" cy="107.5" r="10"/>
			<circle class="st24" cx="121.6" cy="106.5" r="5.5"/>
		</g>
	</g>
</g>
</svg>
