<?xml version="1.0" encoding="utf-8"?>
<!-- Generator: Adobe Illustrator 19.2.1, SVG Export Plug-In . SVG Version: 6.00 Build 0)  -->
<svg version="1.1" id="Слой_1" xmlns="http://www.w3.org/2000/svg" xmlns:xlink="http://www.w3.org/1999/xlink" x="0px" y="0px"
	 viewBox="0 0 47 39" style="enable-background:new 0 0 47 39;" xml:space="preserve">
<style type="text/css">
	.st0{fill:#3E99D4;}
</style>
<path class="st0" d="M38,36.5H1.3C0.6,36.5,0,37,0,37.7C0,38.4,0.6,39,1.3,39H38c0.7,0,1.3-0.6,1.3-1.3C39.2,37,38.7,36.5,38,36.5z"
	/>
<path class="st0" d="M40.6,17.9h-1.7c0.3-1.2,0.4-2.5,0.4-3.8c0-0.7-0.6-1.3-1.3-1.3H1.4c-0.7,0-1.3,0.6-1.3,1.3
	c0,5,2.1,10,5.7,13.7c3.7,3.8,8.7,5.8,13.9,5.8c3.7,0,7.2-1,10.3-3h10.6c3.5,0,6.4-2.9,6.4-6.4C47,20.8,44.1,17.9,40.6,17.9z
	 M36.7,15.4c-0.7,8.6-8.2,15.7-17,15.7S3.4,24,2.7,15.4H36.7z M40.6,28.1h-7.4c0.1-0.1,0.2-0.2,0.4-0.3c2.1-2.1,3.7-4.6,4.6-7.4h2.4
	c2.1,0,3.8,1.7,3.8,3.9C44.5,26.4,42.7,28.1,40.6,28.1z"/>
<path class="st0" d="M13.1,9.3c0,0.7,0.6,1.3,1.3,1.3c0.7,0,1.3-0.6,1.3-1.3c0-0.4,0.1-0.5,0.2-0.8c0.2-0.4,0.4-0.9,0.4-1.9
	c0-0.9-0.3-1.5-0.4-1.9c-0.1-0.3-0.2-0.4-0.2-0.8c0-0.4,0.1-0.5,0.2-0.8c0.2-0.4,0.4-0.9,0.4-1.9C16.2,0.6,15.7,0,15,0
	c-0.7,0-1.3,0.6-1.3,1.3c0,0.4-0.1,0.5-0.2,0.8c-0.2,0.4-0.4,0.9-0.4,1.9c0,0.9,0.3,1.5,0.4,1.9c0.1,0.3,0.2,0.4,0.2,0.8
	c0,0.4-0.1,0.5-0.2,0.8C13.3,7.8,13.1,8.3,13.1,9.3z"/>
<path class="st0" d="M18.1,9.3c0,0.7,0.6,1.3,1.3,1.3c0.7,0,1.3-0.6,1.3-1.3c0-0.4,0.1-0.5,0.2-0.8c0.2-0.4,0.4-0.9,0.4-1.9
	c0-0.9-0.3-1.5-0.4-1.9c-0.1-0.3-0.2-0.4-0.2-0.8c0-0.4,0.1-0.5,0.2-0.8c0.2-0.4,0.4-0.9,0.4-1.9C21.3,0.6,20.7,0,20,0
	c-0.7,0-1.3,0.6-1.3,1.3c0,0.4-0.1,0.5-0.2,0.8c-0.2,0.4-0.4,0.9-0.4,1.9c0,0.9,0.3,1.5,0.4,1.9c0.1,0.3,0.2,0.4,0.2,0.8
	c0,0.4-0.1,0.5-0.2,0.8C18.4,7.8,18.1,8.3,18.1,9.3z"/>
<path class="st0" d="M23.2,9.3c0,0.7,0.6,1.3,1.3,1.3c0.7,0,1.3-0.6,1.3-1.3c0-0.4,0.1-0.5,0.2-0.8c0.2-0.4,0.4-0.9,0.4-1.9
	c0-0.9-0.3-1.5-0.4-1.9c-0.1-0.3-0.2-0.4-0.2-0.8c0-0.4,0.1-0.5,0.2-0.8c0.2-0.4,0.4-0.9,0.4-1.9c0-0.7-0.6-1.3-1.3-1.3
	c-0.7,0-1.3,0.6-1.3,1.3c0,0.4-0.1,0.5-0.2,0.8c-0.2,0.4-0.4,0.9-0.4,1.9c0,0.9,0.3,1.5,0.4,1.9c0.1,0.3,0.2,0.4,0.2,0.8
	c0,0.4-0.1,0.5-0.2,0.8C23.5,7.8,23.2,8.3,23.2,9.3z"/>
</svg>
