<?xml version="1.0" encoding="utf-8"?>
<!-- Generator: Adobe Illustrator 17.1.0, SVG Export Plug-In . SVG Version: 6.00 Build 0)  -->
<!DOCTYPE svg PUBLIC "-//W3C//DTD SVG 1.1//EN" "http://www.w3.org/Graphics/SVG/1.1/DTD/svg11.dtd">
<svg version="1.1" xmlns="http://www.w3.org/2000/svg" xmlns:xlink="http://www.w3.org/1999/xlink" x="0px" y="0px"
	 viewBox="0 0 55 55" enable-background="new 0 0 55 55" xml:space="preserve">
<g id="Layer_1" display="none">
	
		<image display="inline" overflow="visible" width="55" height="55" xlink:href="../sprites/description__ico_cup.png"  transform="matrix(0.9999 0 0 0.9999 0 0)">
	</image>
</g>
<g id="Layer_2">
	<path fill="#3E99D4" d="M40,36.6H3.3c-0.7,0-1.3,0.5-1.3,1.2s0.6,1.3,1.3,1.3H40c0.7,0,1.3-0.6,1.3-1.3
		C41.2,37.1,40.7,36.6,40,36.6z"/>
	<path fill="#3E99D4" d="M42.6,18h-1.7c0.3-1.2,0.4-2.5,0.4-3.8c0-0.7-0.6-1.3-1.3-1.3H3.4c-0.7,0-1.3,0.6-1.3,1.3
		c0,5,2.1,10,5.7,13.7c3.7,3.8,8.7,5.8,13.9,5.8c3.7,0,7.2-1,10.3-3h10.6c3.5,0,6.4-2.9,6.4-6.4C49,20.9,46.1,18,42.6,18z
		 M38.7,15.5c-0.7,8.6-8.2,15.7-17,15.7s-16.3-7.1-17-15.7H38.7z M42.6,28.2h-7.4c0.1-0.1,0.2-0.2,0.4-0.3c2.1-2.1,3.7-4.6,4.6-7.4
		h2.4c2.1,0,3.8,1.7,3.8,3.9C46.5,26.5,44.7,28.2,42.6,28.2z"/>
	<path fill="#3E99D4" d="M15.1,9.4c0,0.7,0.6,1.3,1.3,1.3c0.7,0,1.3-0.6,1.3-1.3c0-0.4,0.1-0.5,0.2-0.8c0.2-0.4,0.4-0.9,0.4-1.9
		c0-0.9-0.3-1.5-0.4-1.9c-0.1-0.3-0.2-0.4-0.2-0.8s0.1-0.5,0.2-0.8c0.2-0.4,0.4-0.9,0.4-1.9c-0.1-0.6-0.6-1.2-1.3-1.2
		c-0.7,0-1.3,0.6-1.3,1.3c0,0.4-0.1,0.5-0.2,0.8c-0.2,0.4-0.4,0.9-0.4,1.9c0,0.9,0.3,1.5,0.4,1.9c0.1,0.3,0.2,0.4,0.2,0.8
		s-0.1,0.5-0.2,0.8C15.3,7.9,15.1,8.4,15.1,9.4z"/>
	<path fill="#3E99D4" d="M20.1,9.4c0,0.7,0.6,1.3,1.3,1.3c0.7,0,1.3-0.6,1.3-1.3c0-0.4,0.1-0.5,0.2-0.8c0.2-0.4,0.4-0.9,0.4-1.9
		c0-0.9-0.3-1.5-0.4-1.9c-0.1-0.3-0.2-0.4-0.2-0.8s0.1-0.5,0.2-0.8c0.2-0.4,0.4-0.9,0.4-1.9c0-0.6-0.6-1.2-1.3-1.2s-1.3,0.6-1.3,1.3
		c0,0.4-0.1,0.5-0.2,0.8c-0.2,0.4-0.4,0.9-0.4,1.9c0,0.9,0.3,1.5,0.4,1.9c0.1,0.3,0.2,0.4,0.2,0.8s-0.1,0.5-0.2,0.8
		C20.4,7.9,20.1,8.4,20.1,9.4z"/>
	<path fill="#3E99D4" d="M25.2,9.4c0,0.7,0.6,1.3,1.3,1.3c0.7,0,1.3-0.6,1.3-1.3c0-0.4,0.1-0.5,0.2-0.8c0.2-0.4,0.4-0.9,0.4-1.9
		c0-0.9-0.3-1.5-0.4-1.9c-0.1-0.3-0.2-0.4-0.2-0.8s0.1-0.5,0.2-0.8c0.2-0.4,0.4-0.9,0.4-1.9c0-0.7-0.6-1.3-1.3-1.3
		c-0.7,0-1.3,0.6-1.3,1.3c0,0.4-0.1,0.5-0.2,0.8C25.4,2.5,25.2,3,25.2,4c0,0.9,0.3,1.5,0.4,1.9c0.1,0.3,0.2,0.4,0.2,0.8
		s-0.1,0.5-0.2,0.8C25.5,7.9,25.2,8.4,25.2,9.4z"/>
</g>
</svg>
