<?xml version="1.0" encoding="utf-8"?>
<!-- Generator: Adobe Illustrator 17.1.0, SVG Export Plug-In . SVG Version: 6.00 Build 0)  -->
<!DOCTYPE svg PUBLIC "-//W3C//DTD SVG 1.1//EN" "http://www.w3.org/Graphics/SVG/1.1/DTD/svg11.dtd">
<svg version="1.1" xmlns="http://www.w3.org/2000/svg" xmlns:xlink="http://www.w3.org/1999/xlink" x="0px" y="0px"
	 viewBox="0 0 55 55" enable-background="new 0 0 55 55" xml:space="preserve">
<g id="Layer_1" display="none">
	
		<image display="inline" overflow="visible" width="55" height="55" xlink:href="../sprites/description__ico_message.png"  transform="matrix(0.9999 0 0 0.9999 0 0)">
	</image>
</g>
<g id="Layer_2">
	<path fill="#3E99D4" d="M37,16.8H15.6c-0.4,0-0.6-0.3-0.6-0.6s0.3-0.6,0.6-0.6h21.5c0.4,0,0.6,0.3,0.6,0.6
		C37.7,16.5,37.4,16.8,37,16.8z"/>
	<path fill="#3E99D4" d="M37,24.2h-1.2c-0.4,0-0.6-0.3-0.6-0.6s0.3-0.6,0.6-0.6h1.3c0.4,0,0.6,0.3,0.6,0.6
		C37.7,24,37.4,24.2,37,24.2z"/>
	<path fill="#3E99D4" d="M37,28c-0.2,0-0.3-0.1-0.5-0.2c-0.1-0.1-0.2-0.3-0.2-0.4c0-0.2,0.1-0.3,0.2-0.4c0.1-0.1,0.3-0.2,0.5-0.2
		c0.2,0,0.3,0.1,0.5,0.2c0.1,0.1,0.2,0.3,0.2,0.4c0,0.2-0.1,0.3-0.2,0.4C37.4,27.9,37.2,28,37,28z"/>
	<path fill="#3E99D4" d="M37,20.6H25.7c-0.4,0-0.6-0.3-0.6-0.6c0-0.3,0.3-0.6,0.6-0.6H37c0.4,0,0.6,0.3,0.6,0.6
		C37.6,20.3,37.4,20.6,37,20.6z"/>
	<path fill="#3E99D4" d="M23.1,20.6h-7.6c-0.4,0-0.6-0.3-0.6-0.6c0-0.3,0.3-0.6,0.6-0.6h7.6c0.4,0,0.6,0.3,0.6,0.6
		C23.7,20.3,23.5,20.6,23.1,20.6z"/>
	<path fill="#3E99D4" d="M38.3,37.7c-0.3,0-0.7-0.1-0.9-0.4l-0.8-0.8c-0.3-0.2-0.3-0.6,0-0.9c0.3-0.2,0.7-0.2,0.9,0l0.8,0.8v-4.1
		c0-0.3,0.2-0.6,0.5-0.6c1.5-0.3,2.7-1.6,2.7-3.1V14.9c0-1.7-1.4-3.1-3.2-3.1h-24c-1.8,0-3.2,1.4-3.2,3.1v6.2c0,0.3-0.3,0.6-0.6,0.6
		c-0.4,0-0.6-0.3-0.6-0.6v-6.2c-0.1-2.4,1.9-4.3,4.3-4.3h24c2.5,0,4.4,2,4.4,4.3v13.6c0,2-1.3,3.7-3.2,4.1v3.7c0,0.5-0.3,1-0.8,1.2
		C38.6,37.7,38.5,37.7,38.3,37.7z"/>
	<path fill="#3E99D4" d="M29.4,29.3H8c-0.4,0-0.6-0.3-0.6-0.6c0-0.3,0.3-0.6,0.6-0.6h21.5c0.4,0,0.6,0.3,0.6,0.6
		C30.1,29,29.8,29.3,29.4,29.3z"/>
	<path fill="#3E99D4" d="M29.4,36.7h-8.2c-0.4,0-0.6-0.3-0.6-0.6c0-0.3,0.3-0.6,0.6-0.6h8.2c0.4,0,0.6,0.3,0.6,0.6
		C30.1,36.4,29.8,36.7,29.4,36.7z"/>
	<path fill="#3E99D4" d="M18.7,36.7H8c-0.4,0-0.6-0.3-0.6-0.6c0-0.3,0.3-0.6,0.6-0.6h10.8c0.4,0,0.6,0.3,0.6,0.6
		C19.3,36.4,19,36.7,18.7,36.7z"/>
	<path fill="#3E99D4" d="M29.4,40.4H8c-0.4,0-0.6-0.3-0.6-0.6s0.3-0.6,0.6-0.6h21.5c0.4,0,0.6,0.3,0.6,0.6
		C30.1,40.1,29.8,40.4,29.4,40.4z"/>
	<path fill="#3E99D4" d="M11.7,32.9H8c-0.4,0-0.6-0.3-0.6-0.6c0-0.3,0.3-0.6,0.6-0.6h3.8c0.4,0,0.6,0.3,0.6,0.6
		C12.3,32.7,12.1,32.9,11.7,32.9z"/>
	<path fill="#3E99D4" d="M29.4,32.9H14.3c-0.4,0-0.6-0.3-0.6-0.6c0-0.3,0.3-0.6,0.6-0.6h15.2c0.4,0,0.6,0.3,0.6,0.6
		C30.1,32.7,29.8,32.9,29.4,32.9z"/>
	<path fill="#3E99D4" d="M6.7,50.1c-0.2,0-0.3,0-0.5-0.1c-0.5-0.2-0.8-0.7-0.8-1.2v-3.7C3.5,44.7,2.3,43,2.3,41V27.4
		c0-2.4,2-4.3,4.4-4.3h24c2.5,0,4.4,2,4.4,4.3V41c0,2.4-2,4.3-4.4,4.3H11.9l-4.4,4.3C7.3,50,7,50.1,6.7,50.1z M6.7,24.2
		c-1.8,0-3.2,1.4-3.2,3.1v13.6c0,1.5,1.1,2.8,2.7,3.1c0.3,0.1,0.5,0.3,0.5,0.6v4.1l4.6-4.5c0.1,0,0.2,0,0.4,0h19
		c1.8,0,3.2-1.4,3.2-3.1V27.4c0-1.7-1.4-3.1-3.2-3.1L6.7,24.2L6.7,24.2z"/>
</g>
</svg>
