<?xml version="1.0" encoding="utf-8"?>
<!-- Generator: Adobe Illustrator 17.1.0, SVG Export Plug-In . SVG Version: 6.00 Build 0)  -->
<!DOCTYPE svg PUBLIC "-//W3C//DTD SVG 1.1//EN" "http://www.w3.org/Graphics/SVG/1.1/DTD/svg11.dtd">
<svg version="1.1" id="Layer_1" xmlns="http://www.w3.org/2000/svg" xmlns:xlink="http://www.w3.org/1999/xlink" x="0px" y="0px"
	 viewBox="0 0 25 26" enable-background="new 0 0 25 26" xml:space="preserve">
<image display="none" overflow="visible" width="25" height="26" xlink:href="../sprites/description__ico_air.png" >
</image>
<path fill="#3B3B3B" d="M18.5,25.8c-1.3,0-2.9-0.9-4.3-2.1c-0.4-0.3-0.7-0.7-1-1c-0.4-0.5-0.6-0.4-1.1,0c-1.1,0.9-2.3,1.9-3.5,2.6
	c-3.2,1.6-6.6,0.1-7.7-3.3c-0.5-1.4-0.3-2.8,0.4-4.1c2.5-5.1,5-10.3,7.5-15.4c1.2-2.4,3.9-3.2,6-1.8c0.7,0.5,1.4,1.2,1.8,1.9
	c1.7,3.3,3.4,6.7,5.1,10.1c0.8,1.6,1.5,3.2,2.3,4.8c0.8,1.6,1.1,3.3,0.3,5C23.1,24.5,21.3,25.8,18.5,25.8z M8.2,14.3
	c0-2.1,0.8-3.6,2.1-4.3c1.7-0.8,3.3-0.8,4.8,0.4c1.6,1.1,2,3,1.3,5.3C16,17.5,15,19,13.9,20.4c-0.3,0.4-0.4,0.7-0.1,1.1
	c1.2,1.2,2.5,2.4,4.2,2.8c2.8,0.7,5.5-1.7,5-4.6c-0.1-0.8-0.5-1.6-0.8-2.3c-2.3-4.7-4.6-9.4-6.9-14.1c-0.3-0.5-0.7-1.1-1.2-1.4
	c-1.6-1-3.2-0.5-4.1,1.1c-1.4,2.7-2.8,5.4-4.2,8.1c-1.2,2.6-2.5,5.1-3.6,7.8c-0.6,1.4-0.4,2.9,0.6,4.1c1.1,1.3,2.5,1.7,4.2,1.3
	c1.8-0.4,3.1-1.7,4.4-3c0.1-0.1,0-0.5-0.1-0.7c-0.4-0.6-0.8-1.2-1.2-1.8C9,17.3,8.3,15.7,8.2,14.3z M15.4,13.6
	c0-1.6-1.1-2.7-2.9-2.7c-1.8,0-2.9,1.2-2.8,3.1c0.1,1.7,0.8,3.1,1.8,4.5c1.1,1.6,1,1.9,2.2,0C14.5,17.1,15.4,15.7,15.4,13.6z"/>
</svg>
