<?xml version="1.0" encoding="utf-8"?>
<!-- Generator: Adobe Illustrator 17.1.0, SVG Export Plug-In . SVG Version: 6.00 Build 0)  -->
<!DOCTYPE svg PUBLIC "-//W3C//DTD SVG 1.1//EN" "http://www.w3.org/Graphics/SVG/1.1/DTD/svg11.dtd">
<svg version="1.1" xmlns="http://www.w3.org/2000/svg" xmlns:xlink="http://www.w3.org/1999/xlink" x="0px" y="0px"
	 viewBox="0 0 55 55" enable-background="new 0 0 55 55" xml:space="preserve">
<g id="Layer_1" display="none">
	
		<image display="inline" overflow="visible" width="55" height="55" xlink:href="../sprites/description__ico_wi-fi.png"  transform="matrix(0.9999 0 0 0.9999 0 0)">
	</image>
</g>
<g id="Layer_2">
	<path fill="#3E99D4" d="M22.1,29.8c-1.9,0-3.5,1.6-3.5,3.5c0,1.9,1.6,3.5,3.5,3.5s3.5-1.6,3.5-3.5C25.6,31.4,24,29.8,22.1,29.8z
		 M40.6,17.7C35.9,12.2,29.3,9,22.1,9S8.2,12.2,3.6,17.7c-0.6,0.7-0.5,1.8,0.2,2.5c0.3,0.3,0.7,0.4,1.1,0.4c0.5,0,1-0.2,1.3-0.6
		c4-4.9,9.7-7.5,15.9-7.5c6.1,0,11.9,2.7,15.8,7.4c0.3,0.4,0.8,0.6,1.3,0.6c0.4,0,0.8-0.1,1.1-0.4C41.1,19.5,41.2,18.4,40.6,17.7z
		 M22.1,15.9c-5.1,0-9.9,2.3-13.2,6.3c-0.6,0.7-0.5,1.8,0.2,2.5c0.4,0.2,0.8,0.3,1.1,0.3c0.5,0,1-0.2,1.3-0.6c2.7-3.2,6.5-5,10.5-5
		s7.9,1.8,10.5,5c0.3,0.4,0.8,0.6,1.3,0.6c0.4,0,0.8-0.1,1.1-0.4c0.7-0.6,0.8-1.7,0.2-2.5C32,18.2,27.2,15.9,22.1,15.9z M22.1,22.9
		c-3.1,0-6,1.4-7.9,3.8c-0.6,0.7-0.5,1.8,0.2,2.5c0.3,0.3,0.7,0.4,1.1,0.4c0.5,0,1-0.2,1.3-0.6c1.3-1.6,3.3-2.5,5.3-2.5
		s4,0.9,5.3,2.5c0.3,0.4,0.8,0.6,1.3,0.6c0.4,0,0.8-0.1,1.1-0.4c0.7-0.6,0.8-1.7,0.2-2.5C28.1,24.3,25.2,22.9,22.1,22.9z"/>
</g>
</svg>
