<?xml version="1.0" encoding="utf-8"?>
<!-- Generator: Adobe Illustrator 17.1.0, SVG Export Plug-In . SVG Version: 6.00 Build 0)  -->
<!DOCTYPE svg PUBLIC "-//W3C//DTD SVG 1.1//EN" "http://www.w3.org/Graphics/SVG/1.1/DTD/svg11.dtd">
<svg version="1.1" xmlns="http://www.w3.org/2000/svg" xmlns:xlink="http://www.w3.org/1999/xlink" x="0px" y="0px"
	 viewBox="0 0 55 55" enable-background="new 0 0 55 55" xml:space="preserve">
<g id="Layer_1" display="none">
	
		<image display="inline" overflow="visible" width="55" height="55" xlink:href="../sprites/description__ico_student.png"  transform="matrix(0.9999 0 0 0.9999 0 0)">
	</image>
</g>
<g id="Layer_2">
	<path fill="#3E99D4" d="M24.1,8c-0.1,0-0.2,0-0.2,0l-11.5,4.3c-0.4,0.1-0.6,0.4-0.5,0.8v2.2c-0.8,0.3-1.4,1.1-1.4,2s0.6,1.7,1.4,2
		v2.3c0,0.4,0.3,0.7,0.7,0.7s0.7-0.3,0.7-0.7l0,0v-2.3c0.8-0.3,1.4-1.1,1.4-2s-0.6-1.7-1.4-2V14l2.9,1.1v5c0,0.4,0.3,0.7,0.7,0.7
		c0.2,0,0.4-0.1,0.5-0.2c0.5-0.5,1.8-0.9,3.1-0.9c1.3,0,2.6,0.4,3.1,0.9c0.3,0.3,0.7,0.3,1,0c0.5-0.5,1.8-0.9,3.1-0.9
		c1.3,0,2.6,0.4,3.1,0.9c0.3,0.3,0.7,0.3,1,0c0.1-0.1,0.2-0.3,0.2-0.5v-5l3.9-1.4c0.4-0.1,0.6-0.5,0.4-0.9c-0.1-0.2-0.2-0.3-0.4-0.4
		L24.4,8C24.3,8,24.2,8,24.1,8z M24.1,9.5l9.5,3.5l-9.5,3.5L14.6,13L24.1,9.5z M24.1,12.3c-0.4,0-0.7,0.3-0.7,0.7
		c0,0.4,0.3,0.7,0.7,0.7s0.7-0.3,0.7-0.7C24.8,12.6,24.5,12.3,24.1,12.3z M17.6,15.6l6.2,2.3c0.2,0.1,0.3,0.1,0.5,0l6.2-2.3v3.2
		c-0.9-0.4-1.9-0.5-2.9-0.5c-1.3,0-2.6,0.2-3.6,0.9c-1-0.6-2.3-0.9-3.6-0.9c-1,0-2,0.2-2.9,0.5L17.6,15.6L17.6,15.6z M12.6,16.6
		c0.4,0,0.7,0.3,0.7,0.7c0,0.4-0.3,0.7-0.7,0.7c-0.4,0-0.7-0.3-0.7-0.7C11.9,16.9,12.2,16.6,12.6,16.6z M31,21.4
		c-0.4,0-0.7,0.4-0.7,0.7c0,0,0,0,0,0.1c0.4,2.6-0.8,5.2-2.9,6.6c-2.1,1.4-4.7,1.4-6.8,0c-2.1-1.4-3.2-4-2.9-6.6
		c0.1-0.4-0.2-0.7-0.6-0.8c-0.4,0-0.8,0.2-0.8,0.6c-0.4,3.1,0.9,6.2,3.5,8c0.3,0.2,0.6,0.4,0.9,0.5c0.3,1.2,0,2-0.9,2.7
		s-2.5,1.3-4.4,1.3c-2.1,0.1-3.8,0.8-4.9,1.9c-1.1,1.1-1.6,2.6-1.7,4l0,0v5H6.8c-0.4,0-0.7,0.3-0.7,0.7c0,0.4,0.3,0.8,0.7,0.8l0,0
		h20.3l0,0l0,0H30l0,0l0,0h11.2c0.4,0,0.7-0.3,0.7-0.7c0-0.4-0.3-0.7-0.7-0.7l0,0H39v-5l0,0c0-1.5-0.6-2.9-1.7-4
		c-1.1-1.1-2.7-1.8-4.9-1.9c-1.9-0.1-3.5-0.6-4.4-1.3c-0.9-0.7-1.2-1.5-0.9-2.7c0.3-0.2,0.6-0.3,0.9-0.5c2.6-1.7,3.9-4.8,3.5-8
		C31.7,21.7,31.3,21.4,31,21.4L31,21.4z M22.3,31.1c1.2,0.3,2.4,0.3,3.6,0c-0.1,1.3,0.5,2.4,1.5,3.2c1,0.8,2.3,1.3,3.9,1.5l-4.9,9.7
		h-1.6c-0.1-0.3-0.4-0.5-0.7-0.5c-0.3,0-0.6,0.2-0.7,0.5h-13v-5c0-1.2,0.4-2.2,1.2-3.1c0.8-0.8,2.1-1.4,3.9-1.5
		c2.1-0.1,4-0.6,5.3-1.7C21.8,33.5,22.4,32.3,22.3,31.1L22.3,31.1z M32.7,36c0.4,0,0.8,0.1,1.2,0.2l-4.7,9.4H28L32.7,36z M24.1,36.4
		c-0.4,0-0.7,0.3-0.7,0.7s0.3,0.7,0.7,0.7s0.7-0.3,0.7-0.7C24.8,36.7,24.5,36.4,24.1,36.4z M35.2,36.6c0.5,0.2,0.9,0.5,1.2,0.9
		c0.8,0.8,1.2,1.9,1.2,3.1v5h-6.9L35.2,36.6z M24.1,39.3c-0.4,0-0.7,0.3-0.7,0.7s0.3,0.7,0.7,0.7s0.7-0.3,0.7-0.7
		S24.5,39.3,24.1,39.3z M24.1,42.1c-0.4,0-0.7,0.3-0.7,0.7l0,0c0,0.4,0.3,0.7,0.7,0.7s0.7-0.3,0.7-0.7
		C24.8,42.4,24.5,42.1,24.1,42.1L24.1,42.1z"/>
</g>
</svg>
