<?xml version="1.0" encoding="utf-8"?>
<!-- Generator: Adobe Illustrator 19.2.1, SVG Export Plug-In . SVG Version: 6.00 Build 0)  -->
<svg version="1.1" id="Layer_1" xmlns="http://www.w3.org/2000/svg" xmlns:xlink="http://www.w3.org/1999/xlink" x="0px" y="0px"
	 viewBox="0 0 27 19" style="enable-background:new 0 0 27 19;" xml:space="preserve">
<style type="text/css">
	.st0{fill:#3388C0;}
</style>
<path class="st0" d="M1.9,15.2c-1,0-1.9,0.8-1.9,1.9c0,1,0.9,1.9,1.9,1.9c1.1,0,1.9-0.8,1.9-1.9C3.9,16,3,15.2,1.9,15.2z M8.7,2.8
	H26c0.5,0,1-0.4,1-0.9S26.6,1,26,1H8.7c-0.5,0-1,0.4-1,0.9S8.1,2.8,8.7,2.8z M1.9,7.6C0.9,7.6,0,8.4,0,9.5c0,1,0.9,1.9,1.9,1.9
	c1.1,0,1.9-0.9,1.9-1.9C3.9,8.4,3,7.6,1.9,7.6z M26,8.5H8.7c-0.5,0-1,0.4-1,0.9s0.4,0.9,1,0.9H26c0.5,0,1-0.4,1-0.9
	C27,9,26.6,8.5,26,8.5z M26,16.1H8.7c-0.5,0-1,0.4-1,0.9s0.4,0.9,1,0.9H26c0.5,0,1-0.4,1-0.9C27,16.6,26.6,16.1,26,16.1z M1.9,0
	C0.9,0,0,0.9,0,1.9s0.9,1.9,1.9,1.9c1.1,0,1.9-0.9,1.9-1.9C3.9,0.9,3,0,1.9,0z"/>
</svg>
