<?xml version="1.0" encoding="utf-8"?>
<!-- Generator: Adobe Illustrator 17.1.0, SVG Export Plug-In . SVG Version: 6.00 Build 0)  -->
<!DOCTYPE svg PUBLIC "-//W3C//DTD SVG 1.1//EN" "http://www.w3.org/Graphics/SVG/1.1/DTD/svg11.dtd">
<svg version="1.1" id="Layer_1" xmlns="http://www.w3.org/2000/svg" xmlns:xlink="http://www.w3.org/1999/xlink" x="0px" y="0px"
	 viewBox="0 0 55 55" enable-background="new 0 0 55 55" xml:space="preserve">
<image display="none" overflow="visible" width="55" height="55" xlink:href="../sprites/description__ico_books.png"  transform="matrix(0.9999 0 0 0.9999 0 0)">
</image>
<path fill="#3E99D4" d="M53.9,46.3L44,10l-8.6,2.4l1,3.5h-9.6v-4.8h-8.9v3.6H13V6.8H1v41.9h10.3H13h4.8h1.7H25h1.7H38V21.8l7.4,26.8
	L53.9,46.3z M19.6,12.7h5.5V17h-5.5V12.7z M19.6,24.2h5.5v19.7h-5.5V24.2z M19.6,22.5v-1h5.5v1H19.6z M19.6,19.7v-1h5.5v1H19.6z
	 M11.3,43.6H2.7V11.8h8.6V43.6z M11.3,8.5v1.6H2.7V8.5H11.3z M2.7,47v-1.6h8.6V47H2.7z M17.9,47H13V16.3h4.8L17.9,47L17.9,47z
	 M19.6,47v-1.4h5.5V47H19.6z M36.3,47h-9.5V17.5h9.5V47z M46.6,46.6l-6-21.9l5.3-1.5l6,21.9L46.6,46.6z M40.1,23l-0.5-1.7l5.3-1.5
	l0.5,1.7L40.1,23z M42.8,12.1l1.7,6l-5.3,1.5l-1.7-6L42.8,12.1z"/>
<path fill="#3E99D4" d="M28.8,19.4h5.5v1.7h-5.5V19.4z"/>
<path fill="#3E99D4" d="M28.8,22.5h5.5v1.7h-5.5V22.5z"/>
<path fill="#3E99D4" d="M28.8,25.5h5.5v1.7h-5.5V25.5z"/>
<path fill="#3E99D4" d="M28.8,43.1h5.5v1.7h-5.5V43.1z"/>
<path fill="#3E99D4" d="M14.6,32.3h1.7v2.9h-1.7V32.3z"/>
<path fill="#3E99D4" d="M14.6,36.9h1.7v6.6h-1.7V36.9z"/>
<path fill="#3E99D4" d="M14.6,22.8h1.7v7.9h-1.7V22.8z"/>
<path fill="#3E99D4" d="M14.6,18.3h1.7v3h-1.7V18.3z"/>
</svg>
