<?xml version="1.0" encoding="utf-8"?>
<!-- Generator: Adobe Illustrator 17.1.0, SVG Export Plug-In . SVG Version: 6.00 Build 0)  -->
<!DOCTYPE svg PUBLIC "-//W3C//DTD SVG 1.1//EN" "http://www.w3.org/Graphics/SVG/1.1/DTD/svg11.dtd">
<svg version="1.1" xmlns="http://www.w3.org/2000/svg" xmlns:xlink="http://www.w3.org/1999/xlink" x="0px" y="0px"
	 viewBox="0 0 55 55" enable-background="new 0 0 55 55" xml:space="preserve">
<g id="Layer_1" display="none">
	
		<image display="inline" overflow="visible" width="55" height="55" xlink:href="../sprites/description__ico_rucksack.png"  transform="matrix(0.9999 0 0 0.9999 0 0)">
	</image>
</g>
<g id="Layer_2">
	<path fill="#3E99D4" d="M35.6,15.1c0,0-0.2-8.9-0.3-9c0-0.2-0.1-0.3-0.1-0.5c-0.2-0.4-0.5-0.7-0.9-0.9l-2.6-1
		c-0.4-0.2-0.8-0.1-1.2,0c-0.4,0.2-0.7,0.5-0.8,0.9l-1.8,4.6c-0.3-0.1-0.5-0.1-0.8-0.2V7.4C27.1,5,25.2,3,22.8,3s-4.3,2-4.3,4.4v1.7
		c-0.3,0-0.5,0.1-0.8,0.2l-1.8-4.6c-0.2-0.4-0.4-0.7-0.8-0.9c-0.4-0.2-0.8-0.2-1.2,0l-2.6,1c-0.4,0.1-0.7,0.4-0.9,0.8
		c-0.1,0.2-0.1,0.3-0.1,0.5c0,0.1-0.3,9-0.3,9c-1.1,1.9-1.7,4-1.7,6.4v23.8c0,1.5,1.2,2.7,2.7,2.7h23.6c1.5,0,2.7-1.2,2.7-2.7V21.4
		C37.3,19.1,36.7,16.9,35.6,15.1z M34.1,13c-0.3-0.3-0.6-0.6-0.9-0.9L34,10L34.1,13z M31,5.2c0-0.1,0.1-0.1,0.2-0.1l2.6,1
		c0.1,0,0.1,0.1,0.1,0.1v0.1L32,11.2c-0.8-0.6-1.7-1.1-2.7-1.5L31,5.2z M22.8,4.4c1.4,0,2.6,1.1,2.9,2.5c-0.8-0.7-1.8-1.1-2.9-1.1
		s-2.1,0.4-2.9,1.1C20.2,5.5,21.4,4.4,22.8,4.4z M25.4,9c-0.1,0-5.1,0-5.2,0c0.1-0.3,0.3-0.6,0.6-0.9c0.5-0.6,1.3-0.9,2.1-0.9
		C24,7.3,25,8,25.4,9z M11.7,6.2C11.7,6.2,11.7,6.1,11.7,6.2l2.7-1.1c0.1,0,0.2,0,0.2,0.1l1.7,4.5c-1,0.4-1.9,0.9-2.8,1.5l-1.8-4.9
		V6.2z M11.6,10l0.8,2.1c-0.3,0.3-0.6,0.6-0.9,0.9L11.6,10z M35.9,45.3c0,0.7-0.6,1.3-1.3,1.3H11c-0.7,0-1.3-0.6-1.3-1.3V21.4
		c0-6.1,4.9-11,10.8-11H25c6,0,10.8,4.9,10.8,11v23.9H35.9z"/>
	<path fill="#3E99D4" d="M13.2,27.4c-1.1,0-2.1,0.9-2.1,2.1v13.6c0,1.2,0.9,2.1,2.1,2.1h19.2c1.1,0,2.1-0.9,2.1-2.1V29.5
		c0-1.2-0.9-2.1-2.1-2.1H13.2z M32.4,43.7H13.2c-0.4,0-0.7-0.3-0.7-0.7v-9h17.8v1.6h1.4V34H33v9.1C33,43.4,32.7,43.7,32.4,43.7z
		 M33,29.5v3.1H12.6v-3.1c0-0.4,0.3-0.7,0.7-0.7h19.2C32.7,28.8,33,29.1,33,29.5z"/>
	<path fill="#3E99D4" d="M27.3,13.4h-9v4.1h9V13.4z M25.9,16.1h-6.1v-1.2h6.1V16.1z"/>
</g>
</svg>
