<?xml version="1.0" encoding="utf-8"?>
<!-- Generator: Adobe Illustrator 19.2.1, SVG Export Plug-In . SVG Version: 6.00 Build 0)  -->
<svg version="1.1" id="Режим_изоляции"
	 xmlns="http://www.w3.org/2000/svg" xmlns:xlink="http://www.w3.org/1999/xlink" x="0px" y="0px" viewBox="0 0 466.9 41.5"
	 style="enable-background:new 0 0 466.9 41.5;" xml:space="preserve">
<style type="text/css">
	.st0{fill:#009CD9;}
</style>
<path class="st0" d="M466.2,18.2c-2.9-5.4-7.3-10.1-12.6-13.3C448.5,1.8,442.5,0,436.2,0c-6.4,0-12.4,1.8-17.6,4.9
	c-5.3,3.2-9.7,7.8-12.6,13.3c-2,3.8-5,6.9-8.6,9.1c-3.5,2.1-7.6,3.3-12,3.3c-4.4,0-8.5-1.2-11.9-3.3c-3.6-2.2-6.7-5.4-8.7-9.2
	c-2.9-5.5-7.3-10.1-12.6-13.3C347.1,1.8,341.1,0,334.8,0c-6.4,0-12.5,1.8-17.6,4.9c-5.3,3.2-9.7,7.8-12.6,13.4c-2,3.8-5,6.9-8.6,9.1
	c-3.5,2.1-7.6,3.3-12,3.3c-4.4,0-8.4-1.2-11.9-3.3c-3.4-2.1-6.3-5.1-8.3-8.6c-0.1-0.2-0.1-0.4-0.2-0.5c-2.9-5.4-7.3-10.1-12.6-13.3
	C245.8,1.8,239.9,0,233.5,0c0,0,0,0,0,0c0,0,0,0,0,0C227,0,221,1.8,215.8,4.9c-5.3,3.2-9.6,7.8-12.6,13.4c-0.1,0.1-0.1,0.3-0.2,0.4
	c-2,3.6-4.8,6.5-8.3,8.6c-3.5,2.1-7.6,3.3-12,3.3c-4.4,0-8.5-1.2-11.9-3.3c-3.6-2.2-6.7-5.4-8.7-9.2c-2.9-5.5-7.3-10.1-12.6-13.3
	C144.4,1.8,138.5,0,132.1,0c-6.4,0-12.5,1.8-17.6,4.9c-5.3,3.2-9.7,7.8-12.6,13.4c-2,3.8-5,6.9-8.6,9.1c-3.5,2.1-7.6,3.3-12,3.3
	c-4.4,0-8.4-1.2-11.9-3.3c-3.6-2.2-6.6-5.4-8.6-9.2c-2.9-5.4-7.3-10.1-12.6-13.3C43.1,1.8,37.1,0,30.7,0c-6.4,0-12.4,1.8-17.6,4.9
	C7.9,8.1,3.5,12.7,0.6,18.3c-1.4,2.6-0.4,5.9,2.3,7.3c2.6,1.4,5.9,0.4,7.3-2.3c2-3.7,4.9-6.9,8.6-9.1c3.5-2.1,7.6-3.3,12-3.3
	c4.4,0,8.4,1.2,11.9,3.3c3.6,2.2,6.6,5.4,8.6,9.2c2.9,5.4,7.3,10.1,12.6,13.3c5.1,3.1,11.1,4.9,17.5,4.9c6.4,0,12.4-1.8,17.6-4.9
	c5.3-3.2,9.7-7.8,12.6-13.3c2-3.8,5-6.9,8.6-9.1c3.5-2.1,7.6-3.3,12-3.3c4.4,0,8.5,1.2,11.9,3.3c3.6,2.2,6.7,5.4,8.7,9.2
	c2.9,5.5,7.3,10.1,12.6,13.3c5.1,3.1,11.1,4.9,17.5,4.9c6.4,0,12.5-1.8,17.6-4.9c5.3-3.2,9.7-7.8,12.6-13.3c2-3.8,5-6.9,8.6-9.1
	c3.5-2.1,7.6-3.3,12-3.3c4.4,0,8.4,1.2,11.9,3.3c3.6,2.2,6.6,5.4,8.6,9.2c2.9,5.4,7.3,10.1,12.6,13.3c5.1,3.1,11.1,4.9,17.5,4.9
	c6.4,0,12.4-1.8,17.6-4.9c5.3-3.2,9.7-7.8,12.6-13.3c2-3.8,5-6.9,8.6-9.1c3.5-2.1,7.6-3.3,12-3.3c4.4,0,8.5,1.2,11.9,3.3
	c3.6,2.2,6.7,5.4,8.7,9.2c2.9,5.5,7.3,10.1,12.6,13.3c5.1,3.1,11.1,4.9,17.5,4.9c6.4,0,12.5-1.8,17.6-4.9c5.3-3.2,9.7-7.8,12.6-13.3
	c2-3.8,5-6.9,8.6-9.1c3.5-2.1,7.6-3.3,12-3.3c4.4,0,8.4,1.2,11.9,3.3c3.6,2.2,6.6,5.4,8.6,9.2c1.4,2.6,4.7,3.6,7.3,2.2
	C466.6,24.1,467.6,20.9,466.2,18.2z"/>
</svg>
