<?xml version="1.0" encoding="utf-8"?>
<!-- Generator: Adobe Illustrator 19.2.1, SVG Export Plug-In . SVG Version: 6.00 Build 0)  -->
<svg version="1.1" id="Слой_1" xmlns="http://www.w3.org/2000/svg" xmlns:xlink="http://www.w3.org/1999/xlink" x="0px" y="0px"
	 viewBox="0 0 15 27" style="enable-background:new 0 0 15 27;" xml:space="preserve">
<style type="text/css">
	.st0{fill:#2D3E50;}
</style>
<path class="st0" d="M14.4,0l-3.6,0c-4,0-6.7,2.6-6.7,6.6v3.1H0.6C0.3,9.7,0,10,0,10.3v4.4c0,0.3,0.3,0.6,0.6,0.6h3.6v11.2
	c0,0.3,0.3,0.6,0.6,0.6h4.7c0.3,0,0.6-0.2,0.6-0.6V15.2h4.2c0.3,0,0.6-0.2,0.6-0.6l0-4.4c0-0.1-0.1-0.3-0.2-0.4
	c-0.1-0.1-0.3-0.2-0.4-0.2H10V7.1c0-1.2,0.3-1.9,2-1.9l2.4,0C14.7,5.2,15,5,15,4.7V0.6C15,0.3,14.7,0,14.4,0z"/>
</svg>
