<?xml version="1.0" encoding="utf-8"?>
<!-- Generator: Adobe Illustrator 19.2.1, SVG Export Plug-In . SVG Version: 6.00 Build 0)  -->
<svg version="1.1" id="Layer_2" xmlns="http://www.w3.org/2000/svg" xmlns:xlink="http://www.w3.org/1999/xlink" x="0px" y="0px"
	 viewBox="0 0 178.3 189.1" style="enable-background:new 0 0 178.3 189.1;" xml:space="preserve">
<style type="text/css">
	.st0{fill:url(#SVGID_1_);stroke:#BCBDBD;stroke-width:0.5;}
	.st1{fill:url(#SVGID_2_);stroke:#BCBDBD;stroke-width:0.5;}
	.st2{fill:url(#SVGID_3_);stroke:#BCBDBD;stroke-width:0.5;}
	.st3{opacity:0.2;fill:#181716;}
	.st4{fill:#F8F3E8;stroke:#E1DDD4;stroke-width:0.5;}
	.st5{opacity:0.2;fill:#E6E6E7;}
	.st6{fill:#171819;}
	.st7{fill:url(#SVGID_4_);stroke:#BCBDBD;stroke-width:0.5;}
	.st8{opacity:0.2;}
	.st9{fill:#181716;}
	.st10{fill:#372C21;}
	.st11{fill:#574131;}
	.st12{opacity:0.2;fill:#FFFFFF;}
	.st13{opacity:0.2;fill:url(#SVGID_5_);}
	.st14{fill:url(#SVGID_6_);}
	.st15{fill:none;stroke:#9B4817;stroke-width:0.5;}
	.st16{opacity:0.1;fill:#FFFFFF;}
	.st17{fill:#B37830;}
	.st18{fill:#97652A;}
	.st19{fill:#434343;}
	.st20{fill:#9B9B9B;}
	.st21{fill:#7F7F7E;}
	.st22{fill:#B88440;}
	.st23{fill:#D2CFC7;}
	.st24{fill:#E8E8E8;}
	.st25{fill:#5D5C5A;}
	.st26{fill:#455868;}
	.st27{fill:url(#SVGID_7_);}
	.st28{fill:url(#SVGID_8_);}
	.st29{fill:url(#SVGID_9_);}
	.st30{fill:url(#SVGID_10_);}
	.st31{fill:#5A7185;}
	.st32{opacity:0.5;fill:#FFFFFF;}
</style>
<g>
	<g>
		<linearGradient id="SVGID_1_" gradientUnits="userSpaceOnUse" x1="142.5567" y1="12.7094" x2="152.127" y2="12.7094">
			<stop  offset="0" style="stop-color:#BCB29E"/>
			<stop  offset="0.2143" style="stop-color:#DCCFB8"/>
			<stop  offset="0.5055" style="stop-color:#F8F3E8"/>
			<stop  offset="0.7802" style="stop-color:#DED1BB"/>
			<stop  offset="1" style="stop-color:#BCB29E"/>
		</linearGradient>
		<rect x="142.6" y="10.7" class="st0" width="9.6" height="4"/>
		<linearGradient id="SVGID_2_" gradientUnits="userSpaceOnUse" x1="147.3423" y1="67.6075" x2="147.3423" y2="24.9386">
			<stop  offset="0" style="stop-color:#F8F3E8"/>
			<stop  offset="0.6868" style="stop-color:#DCCFB8"/>
			<stop  offset="0.9945" style="stop-color:#A59C8B"/>
		</linearGradient>
		<rect x="138.5" y="24.9" class="st1" width="17.7" height="42.7"/>
		<linearGradient id="SVGID_3_" gradientUnits="userSpaceOnUse" x1="137.4727" y1="19.7545" x2="157.2119" y2="19.7545">
			<stop  offset="0" style="stop-color:#BCB29E"/>
			<stop  offset="0.2143" style="stop-color:#DCCFB8"/>
			<stop  offset="0.5055" style="stop-color:#F8F3E8"/>
			<stop  offset="0.7802" style="stop-color:#DED1BB"/>
			<stop  offset="1" style="stop-color:#BCB29E"/>
		</linearGradient>
		<rect x="137.5" y="14" class="st2" width="19.7" height="11.6"/>
		<rect x="137.7" y="18.6" class="st3" width="19.2" height="3.8"/>
		<rect x="137.1" y="17.6" class="st4" width="20.5" height="3.8"/>
		<path class="st5" d="M149.5,26.9L149.5,26.9l-5.4,0v0h-5.5v1.5h0v1.8h0v1.1h0v1.8h0v1.1h0V36h0v1.1h0v1.8h0v1.2h0v1.8h0V43h0v1.8
			h0v1.1h0v1.8h0v1.1h0v1.8h0v1.1h0v1.8h0v1.1h0v1.8h0v1h0v1.8h0v1.1h0v1.8h0v1h0v1.8h0v1.1h0v1.8h3.4v0h5.3l0,0h5.4v0h3.4v-1.5h0
			v-1.8h0v-1.1h0v-1.8h0v-1h0v-1.8h0v-1.1h0v-1.8h0v-1h0v-1.8h0V52h0v-1.8h0v-1.1h0v-1.8h0v-1.1h0v-1.8h0v-1.1h0v-1.8h0v-1.1h0v-1.8
			h0v-1.2h0v-1.8h0v-1.1h0v-1.8h0v-1.1h0v-1.8h0v-1.1h0v-1.8H149.5z M153.1,38.5v-1h2.7v1H153.1z M152.6,29.8h-3.1v0h-1.8v-1h4.9
			V29.8z M152.6,32.7h-3.1v0h-1.8v-1h4.9V32.7z M152.6,35.6h-3.1v0h-1.8v-1h4.9V35.6z M152.6,44.4h-3.1v0h-1.8v-1h4.9V44.4z
			 M152.6,47.3h-3.1v0h-1.8v-1h4.9V47.3z M152.6,53.1h-3.1v0h-1.8v-1h4.9V53.1z M152.6,55.9h-3.1v0h-1.8V55h4.9V55.9z M152.6,61.5
			h-3.1v0h-1.8v-0.9h4.9V61.5z M152.6,64.4h-3.1v0h-1.8v-1h4.9V64.4z M149.9,64.9h5.9v1h-5.9V64.9z M142.2,28.9h4.9v1h-3v0h-1.9
			V28.9z M144.4,62.1h4.9V63h-4.9V62.1z M144.4,59.2h3v0h1.9v1h-4.9V59.2z M144.4,56.4h4.9v0.9h-4.9V56.4z M147.1,63.5v1h-4.9v-1
			H147.1z M149.4,54.5h-4.9v-1h3v0h1.9V54.5z M144.4,50.6h2.8v0h2.1v1h-4.9V50.6z M144.4,44.8h3l0,0h1.9v1h-4.9V44.8z M144.4,41.9
			h4.9v1h-4.9V41.9z M144.4,36h4.9v1h-4.9V36z M144.4,33.1h4.9v1h-4.9V33.1z M149.4,40h-4.9v-1h4.9V40z M147.1,47.3h-4.9v-1h4.9
			V47.3z M144.4,47.7h3l0,0h1.9v1h-4.9V47.7z M149.4,31.3h-4.9v-1h3v0h1.9V31.3z M142.2,32.7v-1h4.9v1h-2.8v0H142.2z M147.1,34.6v1
			h-4.9v-1H147.1z M142.2,37.5h4.9v1h-4.9V37.5z M142.2,40.5h4.9v1h-4.9V40.5z M142.2,43.4h4.9v1h-3v0h-1.9V43.4z M142.2,49.2h4.9v1
			h-3v0h-1.9V49.2z M142.2,52.1h4.9v1h-4.9V52.1z M147.1,55v0.9h-2.8v0h-2.1V55H147.1z M142.2,57.8h4.9v1h-4.9V57.8z M147.1,60.7
			v0.9h-3v0h-1.9v-0.9H147.1z M144.4,64.8h3v0h1.9v1h-4.9V64.8z M149.9,60.1v-1h5.9v1H149.9z M152.6,58.8h-3.1v0h-1.8v-1h4.9V58.8z
			 M149.9,53.5h5.9v1h-5.9V53.5z M149.9,51.6v-1h5.9v1H149.9z M152.6,50.2h-3.1v0h-1.8v-1h4.9V50.2z M149.9,47.7h5.9v1h-5.9V47.7z
			 M149.9,44.8h5.9v1h-5.9V44.8z M149.9,42.9v-1h5.9v1H149.9z M152.6,41.5h-3.1v0h-1.8v-1h4.9V41.5z M149.9,39h5.9v1h-5.9V39z
			 M152.6,38.5h-4.9v-1h4.9V38.5z M149.9,37v-1h5.9v1H149.9z M149.9,34.1v-1h5.9v1H149.9z M149.9,30.3h5.9v1h-5.9V30.3z M138.9,28.9
			h2.7v1h-2.7V28.9z M141.6,31.8v1h-2.7v-1H141.6z M138.9,34.6h2.7v1h-2.7V34.6z M138.9,37.5h2.7v1h-2.7V37.5z M143.9,39v1h-4.9v-1
			H143.9z M138.9,40.5h2.7v1h-2.7V40.5z M141.6,43.4v1h-2.7v-1H141.6z M138.9,46.3h2.7v1h-2.7V46.3z M138.9,49.2h2.7v1h-2.7V49.2z
			 M138.9,52.1h2.7v1h-2.7V52.1z M141.6,55v0.9h-2.7V55H141.6z M138.9,57.8h2.7v1h-2.7V57.8z M141.6,60.7v0.9h-2.7v-0.9H141.6z
			 M138.9,63.5h2.7v1h-2.7V63.5z M155.7,62.9h-5.9v-0.9h5.9V62.9z M155.7,57.3h-5.9v-0.9h2.8v0h3V57.3z M149.9,27.4h5.9v1h-5.9V27.4
			z M144.4,27.4h4.9v1h-4.9V27.4z M138.9,27.4h4.9v1h-4.9V27.4z M142,30.3L142,30.3l1.9,0v1h-4.9v-1H142z M142,33.1L142,33.1l1.9,0
			v1h-4.9v-1H142z M142,36L142,36l1.9,0v1h-4.9v-1H142z M141.8,41.9L141.8,41.9l2.1,0v1h-4.9v-1H141.8z M143.9,44.8v1h-4.9v-1H143.9
			z M141.8,47.7L141.8,47.7l2.1,0v1h-4.9v-1H141.8z M142,50.6L142,50.6l1.9,0v1h-4.9v-1H142z M142,53.5L142,53.5l1.9,0v1h-4.9v-1
			H142z M143.9,56.4v0.9h-4.9v-0.9H143.9z M141.8,59.2L141.8,59.2l2.1,0v1h-4.9v-1H141.8z M142,62.1L142,62.1l1.9,0V63h-4.9v-0.9
			H142z M141.8,64.8L141.8,64.8h2.1v1h-4.9v-1H141.8z M141.6,67.3h-2.7v-1h2.7V67.3z M147.1,67.3h-4.9v-1h4.9V67.3z M152.6,67.3
			h-4.9v-1h4.9V67.3z M155.7,67.3h-2.7v-1h2.7V67.3z M153.1,64.4v-1h2.7v1H153.1z M153.1,61.5v-0.9h2.7v0.9H153.1z M153.1,58.8v-1
			h2.7v1H153.1z M153.1,55.9V55h2.7v0.9H153.1z M153.1,53.1v-1h2.7v1H153.1z M153.1,50.2v-1h2.7v1H153.1z M153.1,47.3v-1h2.7v1
			H153.1z M153.1,44.4v-1h2.7v1H153.1z M153.1,41.5v-1h2.7v1H153.1z M153.1,35.6v-1h2.7v1H153.1z M153.1,32.7v-1h2.7v1H153.1z
			 M153.1,29.8v-1h2.7v1H153.1z"/>
	</g>
	<g>
		<path class="st6" d="M170.9,94.5c-0.2,0.2-0.5,0.2-0.6,0L89.7,16.6c-0.2-0.2-0.5-0.2-0.7,0L8.3,94.5c-0.2,0.2-0.5,0.2-0.6,0
			l-7.5-7.7c-0.2-0.2-0.2-0.5,0-0.6l88.7-86C89,0,89.3,0,89.5,0.1l88.7,86.3c0.2,0.2,0.2,0.5,0,0.6L170.9,94.5z"/>
	</g>
	<linearGradient id="SVGID_4_" gradientUnits="userSpaceOnUse" x1="89.1377" y1="181.2589" x2="89.1377" y2="12.5763">
		<stop  offset="0.5055" style="stop-color:#F8F3E8"/>
		<stop  offset="0.7802" style="stop-color:#DED1BB"/>
		<stop  offset="1" style="stop-color:#BCB29E"/>
	</linearGradient>
	<polygon class="st7" points="168.4,181.3 9.9,181.3 9.9,87.1 89.4,12.6 168.4,87.1 	"/>
	<g class="st8">
		<path class="st9" d="M168.8,94.3c-0.2,0.2-0.5,0.2-0.6,0L90.3,18.4c-0.2-0.2-0.5-0.2-0.7,0L10.2,93.9c-0.2,0.2-0.5,0.2-0.6,0
			l-3.9-4.5c-0.2-0.2-0.2-0.5,0-0.6L89.2,7c0.2-0.2,0.5-0.2,0.6,0l82.8,82.3c0.2,0.2,0.2,0.5,0,0.6L168.8,94.3z"/>
	</g>
	<g>
		<path class="st10" d="M168.8,91.7c-0.2,0.2-0.5,0.2-0.6,0l-78-77.9c-0.2-0.2-0.5-0.2-0.7,0L10.2,91.3c-0.2,0.2-0.5,0.2-0.6,0
			l-3.9-4.5c-0.2-0.2-0.2-0.5,0-0.6L89.2,4.4c0.2-0.2,0.5-0.2,0.6,0l82.8,82.3c0.2,0.2,0.2,0.5,0,0.6L168.8,91.7z"/>
	</g>
	<path class="st11" d="M89.1,5L4.7,87.7l2.8,3.2c0.2,0.2,0.5,0.2,0.6,0l81.3-79.5c0.2-0.2,0.5-0.2,0.7,0l80.2,79.5
		c0.2,0.2,0.5,0.2,0.6,0l2.7-3.1L89.8,5C89.6,4.8,89.3,4.8,89.1,5z"/>
	<rect x="8.9" y="180.9" class="st11" width="160.5" height="2"/>
	<rect x="9.7" y="182.5" class="st10" width="158.9" height="6"/>
	<path class="st12" d="M1.5,86.6L88.8,2c0.2-0.2,0.5-0.2,0.6,0l87.3,84.9l0.3-0.4c0.2-0.2,0.2-0.5,0-0.6L89.5,0.7
		c-0.2-0.2-0.5-0.2-0.6,0l-87.6,85c-0.2,0.2-0.2,0.5,0,0.6L1.5,86.6z"/>
	<linearGradient id="SVGID_5_" gradientUnits="userSpaceOnUse" x1="89.1374" y1="54.8468" x2="89.1374" y2="97.9474">
		<stop  offset="0.1648" style="stop-color:#DED1BB"/>
		<stop  offset="0.8736" style="stop-color:#BCB29E"/>
	</linearGradient>
	<polygon class="st13" points="114.6,54.8 63.6,54.8 63.6,92.3 74.1,92.3 74.1,97.9 103.9,97.9 103.9,92.3 114.6,92.3 	"/>
	<polygon class="st3" points="114.1,51.4 104,51.4 104,51.4 64.2,51.4 64.2,83.6 74.4,83.6 74.4,88.4 103.6,88.4 103.6,83.6 
		114.1,83.6 	"/>
	<g>
		<linearGradient id="SVGID_6_" gradientUnits="userSpaceOnUse" x1="89.1374" y1="182.256" x2="89.1374" y2="109.4796">
			<stop  offset="0" style="stop-color:#D66115"/>
			<stop  offset="0.3309" style="stop-color:#D35F14"/>
			<stop  offset="0.5699" style="stop-color:#CA5A12"/>
			<stop  offset="0.7799" style="stop-color:#BA520F"/>
			<stop  offset="0.9723" style="stop-color:#A4460A"/>
			<stop  offset="1" style="stop-color:#A04409"/>
		</linearGradient>
		<rect x="71.8" y="109.5" class="st14" width="34.7" height="72.8"/>
		<polygon class="st3" points="72.9,111.9 106.2,111.9 106.2,108.7 71.5,108.7 71.5,181.5 72.9,181.5 		"/>
		<rect x="75.4" y="115.3" class="st15" width="11" height="11.6"/>
		<rect x="76.2" y="116.3" class="st16" width="9.2" height="0.8"/>
		<rect x="91.2" y="115.3" class="st15" width="11" height="11.6"/>
		<rect x="92" y="116.3" class="st16" width="9.2" height="0.8"/>
		<rect x="75.4" y="129.6" class="st15" width="11" height="11.6"/>
		<rect x="76.2" y="130.6" class="st16" width="9.2" height="0.8"/>
		<rect x="91.2" y="129.6" class="st15" width="11" height="11.6"/>
		<rect x="92" y="130.6" class="st16" width="9.2" height="0.8"/>
		<rect x="75.4" y="152.5" class="st15" width="11" height="11.6"/>
		<rect x="76.2" y="153.5" class="st16" width="9.2" height="0.8"/>
		<rect x="91.2" y="152.5" class="st15" width="11" height="11.6"/>
		<rect x="92" y="153.5" class="st16" width="9.2" height="0.8"/>
		<rect x="75.4" y="166.9" class="st15" width="11" height="11.6"/>
		<rect x="76.2" y="167.9" class="st16" width="9.2" height="0.8"/>
		<rect x="91.2" y="166.9" class="st15" width="11" height="11.6"/>
		<rect x="92" y="167.9" class="st16" width="9.2" height="0.8"/>
		<ellipse class="st11" cx="100.6" cy="146" rx="1.4" ry="1.8"/>
		<circle class="st11" cx="100.6" cy="148.8" r="1.8"/>
		<circle class="st12" cx="100.6" cy="147.8" r="0.7"/>
		<rect x="75.3" y="145" class="st17" width="18.9" height="4.8"/>
		<rect x="76.9" y="146.4" class="st18" width="15.8" height="2"/>
	</g>
	<polygon class="st10" points="70.4,107.7 70.4,182.3 72.3,182.3 72.3,109.9 106.2,109.9 106.2,182.3 107.9,182.3 107.9,107.7 	"/>
	<polygon class="st11" points="69,106.1 69,182.2 71,182.2 71,108.3 107.5,108.3 107.5,182.2 109.3,182.2 109.3,106.1 	"/>
	<rect x="67.7" y="182.1" class="st19" width="42.9" height="3"/>
	<rect x="66.6" y="181.4" class="st20" width="45.1" height="1.1"/>
	<rect x="63" y="185.1" class="st21" width="52.4" height="4"/>
	<rect x="63.7" y="185.7" class="st19" width="50.8" height="2"/>
	<rect x="61.6" y="184.2" class="st20" width="55" height="1.5"/>
	<g>
		<rect x="93.3" y="145.6" class="st22" width="0.7" height="3.1"/>
		<rect x="75.8" y="145.6" class="st22" width="0.7" height="3.1"/>
	</g>
	<g>
		<rect x="76.5" y="52.9" class="st23" width="24.9" height="27.1"/>
		<path class="st24" d="M89.2,52.8c0,0-3,13.8-12.8,13.8V52.8H89.2z"/>
		<path class="st24" d="M89,52.8c0,0,3,13.8,12.8,13.8V52.8H89z"/>
		<polygon class="st25" points="102.5,65.7 89.8,65.7 89.8,53.1 88.2,53.1 88.2,65.7 75.6,65.7 75.6,67.3 88.2,67.3 88.2,80 
			89.8,80 89.8,67.3 102.5,67.3 		"/>
		<polygon class="st26" points="75.7,51.1 75.7,81 77.3,81 77.3,53.2 100.8,53.2 100.8,81 102.4,81 102.4,51.1 		"/>
		<polygon class="st3" points="76.7,52.3 76.7,82.2 78.2,82.2 78.2,54.4 100.1,54.4 100.1,82.2 101.6,82.2 101.6,52.3 		"/>
		<g>
			<linearGradient id="SVGID_7_" gradientUnits="userSpaceOnUse" x1="65.6011" y1="65.3312" x2="73.793" y2="65.3312">
				<stop  offset="0.2088" style="stop-color:#A63513"/>
				<stop  offset="1" style="stop-color:#792C09"/>
			</linearGradient>
			<rect x="65.6" y="50.5" class="st27" width="8.2" height="29.7"/>
			<path class="st3" d="M65.4,50.5v29.7H74V50.5H65.4z M72.9,78.9h-6.4V66.3h6.4v-1.5h-6.4V51.1h6.4V78.9z"/>
			<linearGradient id="SVGID_8_" gradientUnits="userSpaceOnUse" x1="64.7783" y1="64.9823" x2="74.6153" y2="64.9823">
				<stop  offset="0.2088" style="stop-color:#A63513"/>
				<stop  offset="1" style="stop-color:#792C09"/>
			</linearGradient>
			<path class="st28" d="M64.8,49.3v31.4h9.8V49.3H64.8z M73.4,79.3H66V66h7.4v-1.6H66V50.6h7.4V79.3z"/>
		</g>
		<g>
			
				<linearGradient id="SVGID_9_" gradientUnits="userSpaceOnUse" x1="128.0547" y1="65.3312" x2="136.2462" y2="65.3312" gradientTransform="matrix(-1 0 0 1 240.7286 0)">
				<stop  offset="0.2088" style="stop-color:#A63513"/>
				<stop  offset="1" style="stop-color:#792C09"/>
			</linearGradient>
			<rect x="104.5" y="50.5" class="st29" width="8.2" height="29.7"/>
			<path class="st3" d="M112.9,50.5v29.7h-8.6V50.5H112.9z M105.4,78.9h6.4V66.3h-6.4v-1.5h6.4V51.1h-6.4V78.9z"/>
			
				<linearGradient id="SVGID_10_" gradientUnits="userSpaceOnUse" x1="127.2315" y1="64.9823" x2="137.0694" y2="64.9823" gradientTransform="matrix(-1 0 0 1 240.7286 0)">
				<stop  offset="0.2088" style="stop-color:#A63513"/>
				<stop  offset="1" style="stop-color:#792C09"/>
			</linearGradient>
			<path class="st30" d="M113.5,49.3v31.4h-9.8V49.3H113.5z M104.9,79.3h7.4V66h-7.4v-1.6h7.4V50.6h-7.4V79.3z"/>
		</g>
		<polygon class="st31" points="74.4,49.3 74.4,81 76.1,81 76.1,51.6 102,51.6 102,81 103.7,81 103.7,49.3 		"/>
		<rect x="74.8" y="80.6" class="st21" width="28.5" height="4.7"/>
		<rect x="75.6" y="80.6" class="st19" width="26.6" height="3.3"/>
		<rect x="73.4" y="79.5" class="st20" width="31.1" height="1.4"/>
		<polygon class="st32" points="99.2,68.9 99.2,77 90.7,77 90.7,79 100.4,79 100.4,68.9 		"/>
		<polygon class="st32" points="99.2,55.1 99.2,63.2 90.7,63.2 90.7,65.2 100.4,65.2 100.4,55.1 		"/>
		<rect x="78.3" y="63.2" class="st32" width="9.8" height="2"/>
		<rect x="78.3" y="77" class="st32" width="9.8" height="2"/>
	</g>
</g>
</svg>
