<?xml version="1.0" encoding="utf-8"?>
<!-- Generator: Adobe Illustrator 17.1.0, SVG Export Plug-In . SVG Version: 6.00 Build 0)  -->
<!DOCTYPE svg PUBLIC "-//W3C//DTD SVG 1.1//EN" "http://www.w3.org/Graphics/SVG/1.1/DTD/svg11.dtd">
<svg version="1.1" id="Layer_1" xmlns="http://www.w3.org/2000/svg" xmlns:xlink="http://www.w3.org/1999/xlink" x="0px" y="0px"
	 viewBox="0 0 120 120" enable-background="new 0 0 120 120" xml:space="preserve">
<image display="none" overflow="visible" width="120" height="120" xlink:href="../../../build/img/sprites/info__ico_courses.png" >
</image>
<g id="Layer_2">
	<g id="object">
		<g>
			<g>
				<g>
					<g>
						<path fill="#F6B432" d="M6.9,70.7c0,0-4.2,9.5,0.2,18l80.4,18.2c0,0-3.2-8.6-1.6-21.4L6.9,70.7z"/>
						<polygon fill="#EAA633" points="88.5,103.7 110,89.1 104.8,88.9 87.2,101 						"/>
						<path fill="#F6C640" d="M104.4,73.4l-1.6-0.2l-67.6-9.5l-28.3,7c0,0,78.6,14.7,79,14.9c0.3,0.2,18.6-9.7,22.4-11.8L104.4,73.4
							z"/>
						<path fill="#ECECEC" d="M107.1,76.8L87.7,87.3c0,0-1.5,8.1,0.6,15.1l18.1-12.8L107.1,76.8z"/>
						<path fill="#F6DD49" d="M88.5,103.7c0,0-1.9-9.3-0.8-16.4l21.2-11.6v-1.9h-0.7L85.8,85.6c0,0-2.3,13.6,1.6,21.2l22.6-16
							l-0.1-1.7L88.5,103.7z"/>
					</g>
					<path opacity="0.78" fill="#EA892C" enable-background="new    " d="M15.2,76.1l-8-1.4c0,0-1.3,6.3,0.4,11.1l7,1.5
						C14.6,83.6,14.8,79.9,15.2,76.1z"/>
					<path opacity="0.78" fill="#EA892C" enable-background="new    " d="M70.6,85.9c-0.8,4.4-1,9-1,13.5l11.6,2.9
						c0,0-0.7-9.4,1.1-14.3L70.6,85.9z"/>
					<path opacity="0.78" fill="#EA892C" enable-background="new    " d="M69.8,85.7l-4.2-0.8c-0.8,4.3-1.3,8.7-1.7,13.1l5,1.1
						C68.8,94.6,69,90.1,69.8,85.7z"/>
					<path opacity="0.78" fill="#EA892C" enable-background="new    " d="M20,77.2l-4-0.7c-0.4,3.8-0.6,7.6-0.6,11.3l3.9,0.9
						C19.4,84.8,19.5,81,20,77.2z"/>
					<g>
						<g>
							<path opacity="0.78" fill="#EA892C" enable-background="new    " d="M22.3,79.6c0-0.1,0.1-0.1,0.2-0.1
								c0.9,0.1,1.3,0.2,2.2,0.3c0.6,0.1,1.1,0.7,1,1.3c-0.3,2.1-0.4,3.2-0.7,5.3c-0.1,0.6-0.7,1-1.3,0.9c-0.9-0.1-1.3-0.2-2.2-0.3
								c-0.1,0-0.1-0.1-0.1-0.2C21.8,83.9,22,82.5,22.3,79.6z M24.8,80.9c0-0.2-0.1-0.3-0.2-0.3c-0.5-0.1-0.8-0.1-1.4-0.2
								c-0.3,2.3-0.5,3.5-0.8,5.8c0.5,0.1,0.8,0.1,1.4,0.2c0.2,0,0.3-0.1,0.3-0.2C24.4,84.1,24.5,83,24.8,80.9z"/>
							<path opacity="0.78" fill="#EA892C" enable-background="new    " d="M27.1,87.7c0,0.1-0.1,0.1-0.2,0.1
								c-0.3-0.1-0.4-0.1-0.7-0.1c-0.1,0-0.1-0.1-0.1-0.2c0.4-2.9,0.6-4.4,1-7.3c0-0.1,0.1-0.1,0.2-0.1c0.3,0,0.4,0.1,0.7,0.1
								c0.1,0,0.1,0.1,0.1,0.2C27.7,83.3,27.5,84.8,27.1,87.7z"/>
							<path opacity="0.78" fill="#EA892C" enable-background="new    " d="M31.6,81.7c-0.4-0.1-0.6-0.1-1-0.2
								c-0.2,0-0.3,0.1-0.3,0.2c-0.3,2.2-0.5,3.3-0.8,5.5c0,0.2,0.1,0.3,0.2,0.3c0.4,0.1,0.7,0.1,1.1,0.2c0.2,0,0.3-0.1,0.3-0.2
								c0.1-0.5,0.1-0.7,0.2-1.2c0-0.1,0.1-0.1,0.2-0.1c0.3,0.1,0.4,0.1,0.7,0.1c0.1,0,0.1,0.1,0.1,0.2c-0.1,0.5-0.1,0.7-0.2,1.2
								c-0.1,0.6-0.7,1-1.3,0.9c-0.5-0.1-0.7-0.1-1.2-0.2c-0.6-0.1-1.1-0.7-1-1.3c0.3-2.2,0.5-3.3,0.8-5.4c0.1-0.6,0.7-1,1.3-0.9
								c0.5,0.1,0.7,0.1,1.2,0.2c0.6,0.1,1.1,0.7,1,1.3c0,0.3-0.1,0.4-0.1,0.7c0,0.1-0.1,0.1-0.2,0.1C32.3,83,32.2,83,31.9,83
								c-0.1,0-0.1-0.1-0.1-0.2c0-0.3,0.1-0.4,0.1-0.7C31.9,81.8,31.8,81.7,31.6,81.7z"/>
							<path opacity="0.78" fill="#EA892C" enable-background="new    " d="M37.4,81.9c0.1,0,0.1,0.1,0.1,0.2c0,0.2-0.1,0.4-0.1,0.6
								c0,0.1-0.1,0.1-0.2,0.1c-0.5-0.1-0.7-0.1-1.2-0.2c-0.4,2.7-0.5,4-0.9,6.7c0,0.1-0.1,0.1-0.2,0.1c-0.2-0.1-0.4-0.1-0.7-0.1
								c-0.1,0-0.1-0.1-0.1-0.2c0.4-2.7,0.5-4,0.9-6.7c-0.5-0.1-0.7-0.1-1.2-0.2c-0.1,0-0.1-0.1-0.1-0.2c0-0.2,0.1-0.4,0.1-0.6
								c0-0.1,0.1-0.1,0.2-0.1C35.5,81.5,36.1,81.6,37.4,81.9z"/>
							<path opacity="0.78" fill="#EA892C" enable-background="new    " d="M38.7,89.9c0,0.1-0.1,0.1-0.2,0.1
								c-0.2-0.1-0.4-0.1-0.7-0.1c-0.1,0-0.1-0.1-0.1-0.2c0.4-3,0.6-4.5,1-7.4c0-0.1,0.1-0.1,0.2-0.1c0.3,0.1,0.4,0.1,0.7,0.1
								c0.1,0,0.1,0.1,0.1,0.2C39.3,85.4,39.1,86.9,38.7,89.9z"/>
							<path opacity="0.78" fill="#EA892C" enable-background="new    " d="M40.9,83.6c0.1-0.6,0.7-1,1.3-0.9
								c0.5,0.1,0.7,0.1,1.2,0.2c0.6,0.1,1.1,0.7,1,1.3c-0.3,2.2-0.5,3.4-0.8,5.6c-0.1,0.6-0.7,1-1.3,0.9c-0.5-0.1-0.7-0.1-1.2-0.2
								c-0.6-0.1-1.1-0.7-1-1.4C40.5,87,40.6,85.8,40.9,83.6z M43.5,84.1c0-0.2-0.1-0.3-0.2-0.3c-0.4-0.1-0.7-0.1-1.1-0.2
								c-0.2,0-0.3,0.1-0.3,0.2c-0.3,2.2-0.5,3.3-0.8,5.6c0,0.2,0.1,0.3,0.2,0.3c0.4,0.1,0.7,0.1,1.1,0.2c0.2,0,0.3-0.1,0.3-0.2
								C43,87.4,43.2,86.3,43.5,84.1z"/>
							<path opacity="0.78" fill="#EA892C" enable-background="new    " d="M46,83.4c0.2,0.1,0.4,0.1,0.6,0.1c0,0,0.1,0,0.1,0.2
								c0.4,2,0.6,3.1,1.1,5.1c0.3-1.9,0.4-2.9,0.7-4.8c0-0.1,0.1-0.1,0.2-0.1C49,84,49.1,84,49.4,84c0.1,0,0.1,0.1,0.1,0.2
								c-0.4,2.5-0.7,5.1-1,7.6c0,0.1-0.1,0.1-0.2,0.1c-0.2-0.1-0.4-0.1-0.6-0.1c0,0-0.1,0-0.1-0.2c-0.4-2-0.7-3.1-1.1-5.1
								c-0.3,1.9-0.4,2.9-0.7,4.8c0,0.1-0.1,0.1-0.2,0.1c-0.2-0.1-0.4-0.1-0.7-0.1c-0.1,0-0.1-0.1-0.1-0.2c0.4-3,0.6-4.5,1-7.5
								C45.9,83.5,46,83.4,46,83.4z"/>
							<path opacity="0.78" fill="#EA892C" enable-background="new    " d="M53,84.6c0,0,0.1,0,0.1,0.2c0.1,2.6,0.2,5.3,0.2,7.9
								c0,0.1-0.1,0.1-0.1,0.1c-0.3-0.1-0.4-0.1-0.7-0.1c0,0-0.1,0-0.1-0.2c0-0.5,0-0.7,0-1.2c-0.6-0.1-0.9-0.2-1.6-0.3
								c-0.1,0.4-0.2,0.7-0.3,1.1c0,0.1-0.1,0.1-0.1,0.1c-0.3-0.1-0.4-0.1-0.7-0.1c0,0-0.1,0-0.1-0.2c0.8-2.4,1.6-4.9,2.3-7.4
								c0-0.1,0.2-0.1,0.2-0.1C52.4,84.6,52.6,84.6,53,84.6z M51.1,90.2c0.5,0.1,0.8,0.1,1.3,0.2c0-1.8,0-2.7-0.1-4.4
								C51.8,87.7,51.5,88.5,51.1,90.2z"/>
							<path opacity="0.78" fill="#EA892C" enable-background="new    " d="M55.5,85.2c0-0.1,0.1-0.1,0.2-0.1
								c0.9,0.1,1.3,0.2,2.2,0.4c0.6,0.1,1.1,0.7,1,1.3c-0.1,1-0.2,1.4-0.3,2.3c-0.1,0.5-0.4,0.9-0.8,1c0.1,1.4,0.2,2,0.3,3.4
								c0,0.1-0.1,0.1-0.1,0.1c-0.3-0.1-0.4-0.1-0.7-0.1c0,0-0.1,0-0.1-0.2c-0.1-1.3-0.2-2-0.3-3.3c-0.4-0.1-0.6-0.1-1-0.2
								c-0.2,1.3-0.3,1.9-0.4,3.2c0,0.1-0.1,0.1-0.2,0.1C55,93,54.9,93,54.6,93c-0.1,0-0.1-0.1-0.1-0.2
								C54.8,90.3,55.2,87.8,55.5,85.2z M57.9,86.7c0-0.2-0.1-0.3-0.2-0.3c-0.5-0.1-0.8-0.1-1.4-0.2c-0.2,1.2-0.2,1.8-0.4,2.9
								c0.5,0.1,0.8,0.1,1.4,0.2c0.2,0,0.3-0.1,0.3-0.2C57.7,88.1,57.8,87.6,57.9,86.7z"/>
							<path opacity="0.78" fill="#EA892C" enable-background="new    " d="M61.6,91.7c-0.1,1-0.2,1.4-0.3,2.4
								c0,0.1-0.1,0.1-0.2,0.1c-0.2,0-0.4-0.1-0.6-0.1c-0.1,0-0.1-0.1-0.1-0.2c0.1-1,0.2-1.4,0.3-2.4c-0.3-2.2-0.4-3.3-0.7-5.6
								c0-0.1,0.1-0.1,0.1-0.1c0.3,0.1,0.4,0.1,0.7,0.1c0,0,0.1,0,0.1,0.2c0.2,1.5,0.3,2.2,0.5,3.7c0.6-1.4,0.9-2,1.4-3.4
								c0.1-0.1,0.1-0.1,0.1-0.1c0.3,0,0.4,0.1,0.7,0.1c0,0,0.1,0,0,0.1C62.9,88.5,62.5,89.6,61.6,91.7z"/>
						</g>
					</g>
				</g>
				<path opacity="0.3" fill="#8E5729" enable-background="new    " d="M107,76.8L87.7,87.3c0,0-0.7,6.9,0.2,11.3
					C87.9,98.6,89.8,88.3,107,76.8z"/>
				<polygon opacity="0.1" enable-background="new    " points="16.5,68.5 10.3,71 83.9,79.7 88.1,75.8 				"/>
				<g>
					<g>
						
							<linearGradient id="SVGID_1_" gradientUnits="userSpaceOnUse" x1="180.618" y1="137.2662" x2="172.6703" y2="233.4806" gradientTransform="matrix(0.2821 1.117855e-002 -1.117855e-002 0.2821 2.7676 5.1542)">
							<stop  offset="1.530610e-002" style="stop-color:#E84C3D"/>
							<stop  offset="0.1531" style="stop-color:#DC3336"/>
							<stop  offset="0.4388" style="stop-color:#C43333"/>
							<stop  offset="0.5983" style="stop-color:#CA3334"/>
							<stop  offset="0.8163" style="stop-color:#DC3336"/>
							<stop  offset="1" style="stop-color:#E84C3D"/>
						</linearGradient>
						<path fill="url(#SVGID_1_)" d="M20.2,41.9c0,0-4-1.4-4.2,3.5c-0.2,4.9,0,22,0,22s0.4,3,3.9,3.3s64.4,8.9,64.4,8.9
							c-2.6-1.4-2.4-15.1-2.4-23.6c0-1.3,0-2.7,0-4c0-1.2-0.2-3.5,0.3-4.6c0.3-0.6,0.7-0.9,1.1-1.4c-2.7-0.3-5.3-0.5-8-0.6
							c-5.1-0.3-10.3-0.7-15.5-1C54,44,48.1,43.6,42.2,43.3c-5-0.3-10-0.7-15-1c-2.3-0.1-4.5-0.3-6.8-0.4
							C20.4,41.9,20.3,41.9,20.2,41.9z"/>
						
							<linearGradient id="SVGID_2_" gradientUnits="userSpaceOnUse" x1="66.2727" y1="123.9841" x2="374.8097" y2="123.9841" gradientTransform="matrix(0.2823 0 0 0.2823 0 7.733)">
							<stop  offset="1.530610e-002" style="stop-color:#E84C3D"/>
							<stop  offset="0.1531" style="stop-color:#DC3336"/>
							<stop  offset="0.4388" style="stop-color:#C43333"/>
							<stop  offset="0.5983" style="stop-color:#CA3334"/>
							<stop  offset="0.8163" style="stop-color:#DC3336"/>
							<stop  offset="1" style="stop-color:#E84C3D"/>
						</linearGradient>
						<polygon fill="url(#SVGID_2_)" points="18.7,42 83.3,46.1 105.8,43.6 49,39.3 						"/>
						<polygon fill="#9B1E0E" points="104.5,68.1 100.7,67.8 100.2,69.1 81.8,76.9 85.3,79.6 104.5,68.2 						"/>
						<path fill="#FFFFFF" d="M103.7,44.4c0,0-3.8,19.9-2.7,24.5l-18.1,9.3l-0.5-27.5c0,0-0.7-3.7,2.6-4.1
							C88.1,46.2,103.7,44.4,103.7,44.4z"/>
						<polygon opacity="0.3" fill="#C6C6C5" enable-background="new    " points="81.6,51.1 103,47.8 102.9,48.6 81.6,51.8 						
							"/>
						<polygon opacity="0.2" fill="#C6C6C5" enable-background="new    " points="81.5,52.9 102.7,49.6 102.6,50.3 81.5,53.7 						
							"/>
						<polygon opacity="0.3" fill="#C6C6C5" enable-background="new    " points="82.7,56.3 102.1,53 102,53.6 82.6,57.1 						"/>
						<polygon opacity="0.3" fill="#C6C6C5" enable-background="new    " points="82.6,57.9 102,54.4 101.8,55.3 82.6,58.7 						
							"/>
						<polygon opacity="0.2" fill="#C6C6C5" enable-background="new    " points="82.4,59.4 101.7,56 101.6,56.9 82.3,60.4 						
							"/>
						<polygon opacity="0.2" fill="#C6C6C5" enable-background="new    " points="81.6,65.4 101.1,60.7 101.1,61.4 81.6,66.1 						
							"/>
						<polygon opacity="0.3" fill="#C6C6C5" enable-background="new    " points="81.6,67.6 100.9,63.1 100.8,63.7 81.6,68.4 						
							"/>
						<polygon opacity="0.2" fill="#C6C6C5" enable-background="new    " points="82.2,72.9 100.8,65.9 100.8,66.5 82.3,73.7 						
							"/>
						<polygon opacity="0.2" fill="#C6C6C5" enable-background="new    " points="81.6,66.5 101,61.8 101,62.6 81.6,67.2 						"/>
						<path opacity="7.000000e-002" enable-background="new    " d="M82.6,78.4l0.3-30.9l20.5-2.6l-0.7,3.7
							C102.7,48.5,87.5,51.6,82.6,78.4z"/>
						<path fill="#DC4336" d="M104.5,68.2l-17.8,9.2c0,0-1.9,1.1-2.7,0.5c-0.8-0.6-0.6-3.1-0.6-3.1l-0.1-23.4c0,0-0.4-4.1,2.1-4.3
							c3.2-0.2,20.3-2.1,20.3-2.1l0.1-1.4c0,0-21.2,1.7-22.6,2.5c0,0-1.9,0.2-1.8,5.3c0.1,3.9,0.1,18.6,0.2,25.6
							c0,1.1,0.6,2,1.3,2.4c0.8,0.4,1.9,0.5,2.4,0.3c5.7-2.6,16.8-8.7,19-9.9L104.5,68.2z"/>
					</g>
					<polygon opacity="0.5" fill="#6D0505" enable-background="new    " points="21.6,46.5 20.8,66.8 26.8,67.6 27.7,47 					"/>
					<polygon opacity="0.5" fill="#6D0505" enable-background="new    " points="71.6,50.5 70.6,75.5 76.7,76.4 77.7,51.1 					"/>
					<g>
						<g>
							<path opacity="0.5" fill="#6D0505" enable-background="new    " d="M34.9,57.7c-1.4-0.1-2.1-0.2-3.5-0.3
								c-0.1,1.1-0.1,1.6-0.2,2.6c1.6,0.1,2.4,0.2,3.9,0.4c0,0.3,0,0.5-0.1,0.8c-2-0.2-3-0.3-5.1-0.5c0.2-2.9,0.3-4.4,0.5-7.3
								c2,0.1,2.9,0.2,4.9,0.3c0,0.3,0,0.5-0.1,0.8c-1.5-0.1-2.2-0.2-3.7-0.3c-0.1,0.9-0.1,1.4-0.1,2.3c1.4,0.1,2.1,0.2,3.5,0.3
								C34.9,57.2,34.9,57.4,34.9,57.7z"/>
							<path opacity="0.5" fill="#6D0505" enable-background="new    " d="M36.8,57.5c0-0.5,0.1-1,0-1.4c0.4,0,0.6,0.1,1.1,0.1
								c0,0.4,0,0.5,0,0.9l0,0c0.4-0.5,1.1-0.9,2.2-0.8c0.9,0.1,2.3,0.7,2.1,2.6c-0.1,1.3-0.1,2-0.2,3.2c-0.5-0.1-0.7-0.1-1.2-0.2
								c0.1-1.3,0.1-1.9,0.2-3.1c0.1-0.9-0.3-1.7-1.4-1.8c-0.8-0.1-1.4,0.3-1.7,0.8c-0.1,0.1-0.1,0.3-0.1,0.4
								c-0.1,1.3-0.1,1.9-0.2,3.2c-0.5-0.1-0.7-0.1-1.2-0.1C36.7,59.8,36.7,59,36.8,57.5z"/>
							<path opacity="0.5" fill="#6D0505" enable-background="new    " d="M49.9,57.6c-0.1,0.4-0.1,0.8-0.2,1.5
								c-0.1,1.3-0.1,1.9-0.2,3.2c-0.1,1.3-0.4,2-1.1,2.4c-0.7,0.4-1.6,0.4-2.4,0.3c-0.8-0.1-1.6-0.4-2.1-0.8
								c0.1-0.3,0.2-0.4,0.4-0.7c0.4,0.3,1.1,0.6,1.9,0.7c1.2,0.2,2.1-0.2,2.2-1.6c0-0.2,0-0.4,0-0.6l0,0c-0.4,0.5-1.1,0.8-2.1,0.6
								c-1.6-0.2-2.7-1.6-2.6-3c0.1-1.9,1.6-2.7,3.1-2.5c1.1,0.1,1.7,0.7,2,1.2l0,0c0.1-0.3,0.1-0.5,0.1-0.8
								C49.3,57.5,49.5,57.5,49.9,57.6z M48.6,59.6c0-0.2,0-0.3,0-0.5c-0.2-0.6-0.7-1.2-1.6-1.3c-1.1-0.1-2,0.5-2.1,1.8
								c-0.1,1.1,0.5,2.1,1.8,2.2c0.7,0.1,1.4-0.2,1.7-0.8c0.1-0.2,0.1-0.4,0.1-0.5C48.6,60.2,48.6,60,48.6,59.6z"/>
							<path opacity="0.5" fill="#6D0505" enable-background="new    " d="M52,55.2c0.5,0.1,0.7,0.1,1.2,0.1
								c-0.2,2.7-0.4,5.5-0.5,8.2c-0.5-0.1-0.7-0.1-1.2-0.2C51.7,60.7,51.8,58,52,55.2z"/>
							<path opacity="0.5" fill="#6D0505" enable-background="new    " d="M56.4,56.8c0,0.4-0.3,0.6-0.8,0.5
								c-0.4-0.1-0.7-0.4-0.7-0.7c0-0.4,0.4-0.6,0.8-0.5C56.2,56.1,56.4,56.5,56.4,56.8z M54.6,63.9c0.1-2.3,0.2-3.4,0.4-5.7
								c0.5,0.1,0.7,0.1,1.2,0.1c-0.1,2.3-0.2,3.4-0.4,5.7C55.4,64,55.1,64,54.6,63.9z"/>
							<path opacity="0.5" fill="#6D0505" enable-background="new    " d="M57.7,63.3c0.3,0.2,1,0.5,1.5,0.6
								c0.9,0.1,1.3-0.2,1.3-0.7s-0.3-0.8-1.1-1.2c-1.1-0.5-1.7-1.1-1.6-1.8c0.1-0.9,1-1.6,2.3-1.4c0.7,0.1,1.2,0.3,1.6,0.5
								c-0.1,0.3-0.2,0.4-0.4,0.7c-0.2-0.2-0.7-0.4-1.3-0.5c-0.7-0.1-1.1,0.2-1.1,0.7s0.4,0.7,1.2,1.1c1.1,0.5,1.7,1.1,1.6,1.9
								c-0.1,1-1,1.6-2.5,1.4c-0.7-0.1-1.4-0.3-1.8-0.6C57.5,63.7,57.6,63.6,57.7,63.3z"/>
							<path opacity="0.5" fill="#6D0505" enable-background="new    " d="M63.6,56.5c0.5,0,0.7,0.1,1.2,0.1
								c-0.1,1.4-0.1,2.2-0.2,3.6l0,0c0.2-0.3,0.5-0.5,0.9-0.7c0.4-0.1,0.8-0.2,1.2-0.2c0.9,0.1,2.3,0.6,2.1,2.7
								c-0.1,1.4-0.1,2.1-0.2,3.5c-0.5,0-0.7-0.1-1.2-0.1c0.1-1.4,0.1-2,0.2-3.4c0.1-1-0.3-1.8-1.4-1.9c-0.8-0.1-1.4,0.4-1.7,0.9
								c-0.1,0.1-0.1,0.3-0.1,0.5c-0.1,1.4-0.1,2.1-0.2,3.5c-0.5-0.1-0.7-0.1-1.2-0.1C63.3,62.1,63.5,59.3,63.6,56.5z"/>
						</g>
					</g>
				</g>
				<path opacity="0.3" fill="#8E5729" enable-background="new    " d="M92.1,57.8l3.3,6.6C95.3,64.5,96.3,57.4,92.1,57.8"/>
				
					<linearGradient id="SVGID_3_" gradientUnits="userSpaceOnUse" x1="345.7289" y1="195.2203" x2="336.0434" y2="171.9751" gradientTransform="matrix(0.2821 1.117855e-002 -1.117855e-002 0.2821 2.7676 5.1542)">
					<stop  offset="1.530610e-002" style="stop-color:#DC3336"/>
					<stop  offset="0.6071" style="stop-color:#B63333"/>
					<stop  offset="1" style="stop-color:#BD3333"/>
				</linearGradient>
				<path fill="url(#SVGID_3_)" d="M92.1,57.7l5.6-1c0,0,3.9,2.1,2.2,6.5l-4.5,1.3C95.3,64.5,96,57.6,92.1,57.7z"/>
			</g>
		</g>
		<g>
			<path opacity="0.3" fill="#280F3A" enable-background="new    " d="M42.3,43.3c0,0,1.2,10.7-4.8,11.2c-7.1,0.5-9.5-7.3-8.7-11.7
				L42.3,43.3z"/>
			
				<linearGradient id="SVGID_4_" gradientUnits="userSpaceOnUse" x1="224.792" y1="7.7118" x2="224.792" y2="90.6488" gradientTransform="matrix(0.2823 0 0 0.2823 0 7.733)">
				<stop  offset="0" style="stop-color:#5C5C5C"/>
				<stop  offset="0.2821" style="stop-color:#3E3E3E"/>
				<stop  offset="1" style="stop-color:#000000"/>
			</linearGradient>
			<polygon fill="url(#SVGID_4_)" points="6.2,25.1 61.9,31.5 120.7,25.9 61.7,8 			"/>
			<path d="M32.8,41.4c0,0,27.8,4.9,58.5,2.2c0,0,6.7-15.5,3-18.2c-10.2-7.3-36.7-13-63.7-2.4C26.3,24.7,32.8,41.4,32.8,41.4z"/>
			<polygon fill="#ADADAD" points="6.2,25.1 61.7,8 120.7,25.9 120.7,24.3 61.7,6.1 5.9,23.8 			"/>
			<g>
				
					<linearGradient id="SVGID_5_" gradientUnits="userSpaceOnUse" x1="137.0324" y1="130.2147" x2="107.1544" y2="131.1786" gradientTransform="matrix(0.2823 0 0 0.2823 0 7.733)">
					<stop  offset="0" style="stop-color:#F7B719"/>
					<stop  offset="1" style="stop-color:#DD721B"/>
				</linearGradient>
				<path fill="url(#SVGID_5_)" d="M37.4,37.5c3.5-0.2,5.2,4.7,5.7,7.6c0.5,3,0.1,6-3.7,6.3c-3.5,0.3-6.5,0-6.8-4.1
					C32.4,43.8,33.3,37.7,37.4,37.5z"/>
				
					<linearGradient id="SVGID_6_" gradientUnits="userSpaceOnUse" x1="136.7829" y1="22.9271" x2="136.7829" y2="107.9745" gradientTransform="matrix(0.2823 0 0 0.2823 0 7.733)">
					<stop  offset="0" style="stop-color:#F7B719"/>
					<stop  offset="1" style="stop-color:#DD721B"/>
				</linearGradient>
				<path fill="url(#SVGID_6_)" d="M40.8,12.3c0,0-3.9-0.2-2.4,25.3H37C37,37.7,34.2,9.6,40.8,12.3z"/>
				<g opacity="0.7">
					<path fill="#FFD712" d="M39.3,49.8c0,0.2,0,0.4,0,0.5C39.3,50.2,39.3,50,39.3,49.8z"/>
					<path fill="#FFD712" d="M38.8,45.1c0.1,1.7,0.4,3.5,0.5,4.7C39.2,48.2,39,46.6,38.8,45.1z"/>
					<path fill="#FFD712" d="M38.6,38.4c-3.6-0.4-3.5,9.8-2.7,11.8v0.5c1.1-2.9,0.7-6.7,1.7-9.5c-0.4,2.9,0.4,6.2,0.1,9.2
						c1.4-2.7,0.1-6.6,1-9.6c0,1.5,0.1,2.9,0.2,4.3c-0.1-1.9,0-3.6,0.7-4.1c1,2.6-0.5,5.9,1.4,8.2C41.9,47.3,41.1,38.7,38.6,38.4z"
						/>
				</g>
				
					<linearGradient id="SVGID_7_" gradientUnits="userSpaceOnUse" x1="133.2228" y1="89.7245" x2="133.2228" y2="107.8623" gradientTransform="matrix(0.2823 0 0 0.2823 0 7.733)">
					<stop  offset="0" style="stop-color:#F7B719"/>
					<stop  offset="1" style="stop-color:#DD721B"/>
				</linearGradient>
				<circle fill="url(#SVGID_7_)" cx="37.6" cy="35.3" r="2.7"/>
				<circle fill="#FFD712" cx="38.1" cy="35" r="1.5"/>
			</g>
		</g>
	</g>
</g>
</svg>
