<?xml version="1.0" encoding="utf-8"?>
<!-- Generator: Adobe Illustrator 17.1.0, SVG Export Plug-In . SVG Version: 6.00 Build 0)  -->
<!DOCTYPE svg PUBLIC "-//W3C//DTD SVG 1.1//EN" "http://www.w3.org/Graphics/SVG/1.1/DTD/svg11.dtd">
<svg version="1.1" id="Layer_1" xmlns="http://www.w3.org/2000/svg" xmlns:xlink="http://www.w3.org/1999/xlink" x="0px" y="0px"
	 viewBox="0 0 120 120" enable-background="new 0 0 120 120" xml:space="preserve">
<g id="Layer_3">
	<g>
		<g>
			
				<linearGradient id="SVGID_1_" gradientUnits="userSpaceOnUse" x1="136.3464" y1="98.6451" x2="144.2254" y2="98.6451" gradientTransform="matrix(0.6346 0 0 -0.6346 3.4268 76.1502)">
				<stop  offset="0" style="stop-color:#BCB29E"/>
				<stop  offset="0.2143" style="stop-color:#DCCFB8"/>
				<stop  offset="0.5055" style="stop-color:#F8F3E8"/>
				<stop  offset="0.7802" style="stop-color:#DED1BB"/>
				<stop  offset="1" style="stop-color:#BCB29E"/>
			</linearGradient>
			<rect x="90" y="12.5" fill="url(#SVGID_1_)" stroke="#BCBDBD" stroke-width="0.5" width="5" height="2.1"/>
			
				<linearGradient id="SVGID_2_" gradientUnits="userSpaceOnUse" x1="140.2036" y1="53.4986" x2="140.2036" y2="88.6388" gradientTransform="matrix(0.6346 0 0 -0.6346 3.4268 76.1502)">
				<stop  offset="0" style="stop-color:#F8F3E8"/>
				<stop  offset="0.6868" style="stop-color:#DCCFB8"/>
				<stop  offset="0.9945" style="stop-color:#A59C8B"/>
			</linearGradient>
			<rect x="87.8" y="19.9" fill="url(#SVGID_2_)" stroke="#BCBDBD" stroke-width="0.5" width="9.2" height="22.3"/>
			
				<linearGradient id="SVGID_3_" gradientUnits="userSpaceOnUse" x1="132.167" y1="92.8147" x2="148.3978" y2="92.8147" gradientTransform="matrix(0.6346 0 0 -0.6346 3.4268 76.1502)">
				<stop  offset="0" style="stop-color:#BCB29E"/>
				<stop  offset="0.2143" style="stop-color:#DCCFB8"/>
				<stop  offset="0.5055" style="stop-color:#F8F3E8"/>
				<stop  offset="0.7802" style="stop-color:#DED1BB"/>
				<stop  offset="1" style="stop-color:#BCB29E"/>
			</linearGradient>
			<rect x="87.3" y="14.2" fill="url(#SVGID_3_)" stroke="#BCBDBD" stroke-width="0.5" width="10.3" height="6.1"/>
			<rect x="87.4" y="16.6" opacity="0.2" fill="#181716" enable-background="new    " width="10" height="2"/>
			<rect x="87.1" y="16.1" fill="#F8F3E8" stroke="#E1DDD4" stroke-width="0.5" width="10.7" height="2"/>
			<path opacity="0.2" fill="#E6E6E7" enable-background="new    " d="M93.6,21L93.6,21h-2.8l0,0h-2.9v0.8l0,0v0.9l0,0v0.6l0,0v0.9
				l0,0v0.6l0,0v0.9l0,0v0.6l0,0v0.9l0,0v0.7l0,0v0.9l0,0v0.6l0,0v0.9l0,0v0.6l0,0v0.9l0,0v0.6l0,0v1.1l0,0v0.6l0,0V35l0,0v0.6l0,0
				v0.9l0,0V37l0,0v0.9l0,0v0.6l0,0v0.9l0,0v0.7l0,0V41l0,0v0.6l0,0v1h1.8l0,0h2.8l0,0h2.8l0,0h1.8v-0.8l0,0v-0.9l0,0v-0.6l0,0v-1
				l0,0v-0.5l0,0v-0.9l0,0v-0.6l0,0v-0.9l0,0v-0.5l0,0V35l0,0v-0.6l0,0v-0.9l0,0v-0.6l0,0V32l0,0v-0.6l0,0v-0.9l0,0v-0.6l0,0V29l0,0
				v-0.6l0,0v-0.9l0,0v-0.7l0,0v-0.9l0,0v-0.6l0,0v-0.9l0,0v-0.9l0,0v-0.9l0,0V22l0,0v-1C97,21,93.6,21,93.6,21z M95.5,27.1v-0.5
				h1.4v0.5H95.5z M95.2,22.5h-1.6l0,0h-0.9V22h2.6C95.2,22,95.2,22.5,95.2,22.5z M95.2,24h-1.6l0,0h-0.9v-0.6h2.6L95.2,24L95.2,24z
				 M95.2,25.5h-1.6l0,0h-0.9V25h2.6L95.2,25.5L95.2,25.5z M95.2,30.1h-1.6l0,0h-0.9v-0.5h2.6L95.2,30.1L95.2,30.1z M95.2,31.6h-1.6
				l0,0h-0.9v-0.5h2.6L95.2,31.6L95.2,31.6z M95.2,34.6h-1.6l0,0h-0.9v-0.5h2.6L95.2,34.6L95.2,34.6z M95.2,36.1h-1.6l0,0h-0.9v-0.5
				h2.6C95.2,35.6,95.2,36.1,95.2,36.1z M95.2,39.1h-1.6l0,0h-0.9v-0.5h2.6L95.2,39.1L95.2,39.1z M95.2,40.6h-1.6l0,0h-0.9v-0.5h2.6
				L95.2,40.6L95.2,40.6z M93.8,40.8h3v0.5h-3V40.8z M89.8,22h2.6v0.5h-1.6l0,0h-1V22z M90.9,39.3h2.6v0.5h-2.6V39.3z M90.9,37.8
				h1.6l0,0h1v0.5h-2.6V37.8z M90.9,36.4h2.6v0.5h-2.6V36.4z M92.3,40.1v0.5h-2.6v-0.5H92.3z M93.5,35.4h-2.6v-0.5h1.6l0,0h1V35.4z
				 M90.9,33.3h1.5l0,0h1.1v0.5h-2.6C90.9,33.9,90.9,33.3,90.9,33.3z M90.9,30.4h1.6l0,0h1v0.5h-2.6V30.4z M90.9,28.8h2.6v0.5h-2.6
				V28.8z M90.9,25.7h2.6v0.5h-2.6V25.7z M90.9,24.2h2.6v0.5h-2.6V24.2z M93.5,27.8h-2.6v-0.5h2.6V27.8z M92.3,31.6h-2.6v-0.5h2.6
				V31.6z M90.9,31.8h1.6l0,0h1v0.5h-2.6V31.8z M93.5,23.3h-2.6v-0.5h1.6l0,0h1V23.3z M89.8,24v-0.6h2.6v0.5h-1.5l0,0L89.8,24
				L89.8,24z M92.3,25v0.5h-2.6V25H92.3z M89.8,26.5h2.6V27h-2.6V26.5z M89.8,28.1h2.6v0.5h-2.6V28.1z M89.8,29.6h2.6v0.5h-1.6l0,0
				h-1V29.6z M89.8,32.6h2.6v0.5h-1.6l0,0h-1V32.6z M89.8,34.1h2.6v0.5h-2.6V34.1z M92.3,35.6v0.5h-1.5l0,0h-1.1v-0.5H92.3z
				 M89.8,37.1h2.6v0.5h-2.6V37.1z M92.3,38.6v0.5h-1.6l0,0h-1v-0.5H92.3z M90.9,40.7h1.6l0,0h1v0.5h-2.6V40.7z M93.8,38.3v-0.5h3
				v0.5H93.8z M95.2,37.6h-1.6l0,0h-0.9v-0.5h2.6C95.2,37.1,95.2,37.6,95.2,37.6z M93.8,34.9h3v0.5h-3V34.9z M93.8,33.9v-0.6h3v0.5
				L93.8,33.9L93.8,33.9z M95.2,33.2h-1.6l0,0h-0.9v-0.5h2.6C95.2,32.6,95.2,33.2,95.2,33.2z M93.8,31.8h3v0.5h-3V31.8z M93.8,30.4
				h3v0.5h-3V30.4z M93.8,29.3v-0.5h3v0.5H93.8z M95.2,28.6h-1.6l0,0h-0.9v-0.5h2.6C95.2,28.1,95.2,28.6,95.2,28.6z M93.8,27.3h3
				v0.5h-3V27.3z M95.2,27.1h-2.6v-0.5h2.6V27.1z M93.8,26.2v-0.5h3v0.5H93.8z M93.8,24.8v-0.5h3v0.5H93.8z M93.8,22.8h3v0.5h-3
				V22.8z M88.1,22h1.4v0.5h-1.4V22z M89.5,23.5V24h-1.4v-0.5H89.5z M88.1,25h1.4v0.5h-1.4V25z M88.1,26.5h1.4V27h-1.4V26.5z
				 M90.6,27.3v0.5H88v-0.5H90.6z M88.1,28.1h1.4v0.5h-1.4V28.1z M89.5,29.6v0.5h-1.4v-0.5H89.5z M88.1,31.1h1.4v0.5h-1.4V31.1z
				 M88.1,32.6h1.4v0.5h-1.4V32.6z M88.1,34.1h1.4v0.5h-1.4V34.1z M89.5,35.6v0.5h-1.4v-0.5H89.5z M88.1,37.1h1.4v0.5h-1.4V37.1z
				 M89.5,38.6v0.5h-1.4v-0.5H89.5z M88.1,40.1h1.4v0.5h-1.4V40.1z M96.8,39.7h-3v-0.5h3V39.7z M96.8,36.9h-3v-0.5h1.5l0,0h1.6
				L96.8,36.9L96.8,36.9z M93.8,21.2h3v0.5h-3V21.2z M90.9,21.2h2.6v0.5h-2.6V21.2z M88.1,21.2h2.6v0.5h-2.6V21.2z M89.6,22.8
				L89.6,22.8h1v0.5H88v-0.5H89.6z M89.6,24.2L89.6,24.2h1v0.5H88v-0.5H89.6z M89.6,25.7L89.6,25.7h1v0.5H88v-0.5H89.6z M89.5,28.8
				L89.5,28.8h1.1v0.5H88v-0.5H89.5z M90.6,30.4v0.5H88v-0.5H90.6z M89.5,31.8L89.5,31.8h1.1v0.5H88v-0.5H89.5z M89.6,33.3
				L89.6,33.3h1v0.5H88v-0.5H89.6z M89.6,34.9L89.6,34.9h1v0.5H88v-0.5H89.6z M90.6,36.4v0.5H88v-0.5H90.6z M89.5,37.8L89.5,37.8
				h1.1v0.5H88v-0.5H89.5z M89.6,39.3L89.6,39.3h1v0.5H88v-0.5H89.6z M89.5,40.7L89.5,40.7h1.1v0.5H88v-0.5H89.5z M89.5,42h-1.4
				v-0.5h1.4V42z M92.3,42h-2.6v-0.5h2.6V42z M95.2,42h-2.6v-0.5h2.6V42z M96.8,42h-1.4v-0.5h1.4V42z M95.5,40.6v-0.5h1.4v0.5H95.5z
				 M95.5,39.1v-0.5h1.4v0.5H95.5z M95.5,37.6v-0.5h1.4v0.5H95.5z M95.5,36.1v-0.5h1.4v0.5H95.5z M95.5,34.6v-0.5h1.4v0.5H95.5z
				 M95.5,33.2v-0.5h1.4v0.5H95.5z M95.5,31.6v-0.5h1.4v0.5H95.5z M95.5,30.1v-0.5h1.4v0.5H95.5z M95.5,28.6v-0.5h1.4v0.5H95.5z
				 M95.5,25.5V25h1.4v0.5H95.5z M95.5,24v-0.6h1.4v0.5L95.5,24L95.5,24z M95.5,22.5V22h1.4v0.5H95.5z"/>
		</g>
		<g>
			<path fill="#171819" d="M104.8,56.3c-0.1,0.1-0.2,0.1-0.3,0L62.4,15.6c-0.1-0.1-0.2-0.1-0.3,0L19.8,56.3c-0.1,0.1-0.2,0.1-0.3,0
				l-3.9-4c-0.1-0.1-0.1-0.2,0-0.3L61.9,7.1C62,6.9,62.1,6.9,62.2,7l46.3,45.1c0.1,0.1,0.1,0.2,0,0.3L104.8,56.3z"/>
		</g>
		
			<linearGradient id="SVGID_4_" gradientUnits="userSpaceOnUse" x1="92.3782" y1="-40.1037" x2="92.3782" y2="98.7239" gradientTransform="matrix(0.6346 0 0 -0.6346 3.4268 76.1502)">
			<stop  offset="0.5055" style="stop-color:#F8F3E8"/>
			<stop  offset="0.7802" style="stop-color:#DED1BB"/>
			<stop  offset="1" style="stop-color:#BCB29E"/>
		</linearGradient>
		<polygon fill="url(#SVGID_4_)" stroke="#BCBDBD" stroke-width="0.5" points="103.4,101.6 20.7,101.6 20.7,52.4 62.2,13.5 
			103.4,52.4 		"/>
		<g opacity="0.2">
			<path fill="#181716" d="M103.6,56.2c-0.1,0.1-0.2,0.1-0.3,0L62.6,16.5c-0.1-0.1-0.2-0.1-0.3,0L20.8,55.9c-0.1,0.1-0.2,0.1-0.3,0
				l-2.1-2.4c-0.1-0.1-0.1-0.2,0-0.3L62,10.5c0.1-0.1,0.2-0.1,0.3,0l43.2,43c0.1,0.1,0.1,0.2,0,0.3L103.6,56.2z"/>
		</g>
		<g>
			<path fill="#372C21" d="M103.6,54.8c-0.1,0.1-0.2,0.1-0.3,0L62.6,14.1c-0.1-0.1-0.2-0.1-0.3,0L20.8,54.6c-0.1,0.1-0.2,0.1-0.3,0
				l-2.1-2.4c-0.1-0.1-0.1-0.2,0-0.3L62.1,9.2c0.1-0.1,0.2-0.1,0.3,0l43.2,43c0.1,0.1,0.1,0.2,0,0.3L103.6,54.8z"/>
		</g>
		<path fill="#574131" d="M62.1,9.5L17.9,52.7l1.5,1.6c0.1,0.1,0.2,0.1,0.3,0l42.5-41.5c0.1-0.1,0.2-0.1,0.3,0l41.9,41.5
			c0.1,0.1,0.2,0.1,0.3,0l1.4-1.6L62.4,9.5C62.3,9.5,62.1,9.5,62.1,9.5z"/>
		<rect x="20.2" y="101.4" fill="#574131" width="83.9" height="1.1"/>
		<rect x="20.6" y="102.2" fill="#372C21" width="82.9" height="3.1"/>
		<path opacity="0.2" fill="#FFFFFF" enable-background="new    " d="M16.3,52.2L61.9,8c0.1-0.1,0.2-0.1,0.3,0l45.6,44.4l0.2-0.2
			c0.1-0.1,0.1-0.2,0-0.3L62.2,7.3c-0.1-0.1-0.2-0.1-0.3,0L16.2,51.7c-0.1,0.1-0.1,0.2,0,0.3L16.3,52.2z"/>
		
			<linearGradient id="SVGID_5_" gradientUnits="userSpaceOnUse" x1="92.3782" y1="63.9564" x2="92.3782" y2="28.4888" gradientTransform="matrix(0.6346 0 0 -0.6346 3.4268 76.1502)">
			<stop  offset="0.1648" style="stop-color:#DED1BB"/>
			<stop  offset="0.8736" style="stop-color:#BCB29E"/>
		</linearGradient>
		<polygon opacity="0.2" fill="url(#SVGID_5_)" enable-background="new    " points="75.4,35.5 48.7,35.5 48.7,55.1 54.2,55.1 
			54.2,58.1 69.8,58.1 69.8,55.1 75.4,55.1 		"/>
		<polygon opacity="0.2" fill="#181716" enable-background="new    " points="75.1,33.7 69.8,33.7 69.8,33.7 49.1,33.7 49.1,50.6 
			54.3,50.6 54.3,53.1 69.6,53.1 69.6,50.6 75.1,50.6 		"/>
		<g>
			
				<linearGradient id="SVGID_6_" gradientUnits="userSpaceOnUse" x1="92.3782" y1="-40.8916" x2="92.3782" y2="18.9887" gradientTransform="matrix(0.6346 0 0 -0.6346 3.4268 76.1502)">
				<stop  offset="0" style="stop-color:#D66115"/>
				<stop  offset="0.3309" style="stop-color:#D35F14"/>
				<stop  offset="0.5699" style="stop-color:#CA5A12"/>
				<stop  offset="0.7799" style="stop-color:#BA520F"/>
				<stop  offset="0.9723" style="stop-color:#A4460A"/>
				<stop  offset="1" style="stop-color:#A04409"/>
			</linearGradient>
			<rect x="53" y="64.1" fill="url(#SVGID_6_)" width="18.1" height="38"/>
			<polygon opacity="0.2" fill="#181716" enable-background="new    " points="53.6,65.3 70.9,65.3 70.9,63.7 52.8,63.7 52.8,101.7 
				53.6,101.7 			"/>
			<rect x="54.9" y="67.1" fill="none" stroke="#9B4817" stroke-width="0.5" width="5.8" height="6.1"/>
			<rect x="55.3" y="67.6" opacity="0.1" fill="#FFFFFF" enable-background="new    " width="4.8" height="0.4"/>
			<rect x="63.1" y="67.1" fill="none" stroke="#9B4817" stroke-width="0.5" width="5.8" height="6.1"/>
			<rect x="63.5" y="67.6" opacity="0.1" fill="#FFFFFF" enable-background="new    " width="4.8" height="0.4"/>
			<rect x="54.9" y="74.6" fill="none" stroke="#9B4817" stroke-width="0.5" width="5.8" height="6.1"/>
			<rect x="55.3" y="75.1" opacity="0.1" fill="#FFFFFF" enable-background="new    " width="4.8" height="0.4"/>
			<rect x="63.1" y="74.6" fill="none" stroke="#9B4817" stroke-width="0.5" width="5.8" height="6.1"/>
			<rect x="63.5" y="75.1" opacity="0.1" fill="#FFFFFF" enable-background="new    " width="4.8" height="0.4"/>
			<rect x="54.9" y="86.6" fill="none" stroke="#9B4817" stroke-width="0.5" width="5.8" height="6.1"/>
			<rect x="55.3" y="87.1" opacity="0.1" fill="#FFFFFF" enable-background="new    " width="4.8" height="0.4"/>
			<rect x="63.1" y="86.6" fill="none" stroke="#9B4817" stroke-width="0.5" width="5.8" height="6.1"/>
			<rect x="63.5" y="87.1" opacity="0.1" fill="#FFFFFF" enable-background="new    " width="4.8" height="0.4"/>
			<rect x="54.9" y="94" fill="none" stroke="#9B4817" stroke-width="0.5" width="5.8" height="6.1"/>
			<rect x="55.3" y="94.6" opacity="0.1" fill="#FFFFFF" enable-background="new    " width="4.8" height="0.4"/>
			<rect x="63.1" y="94" fill="none" stroke="#9B4817" stroke-width="0.5" width="5.8" height="6.1"/>
			<rect x="63.5" y="94.6" opacity="0.1" fill="#FFFFFF" enable-background="new    " width="4.8" height="0.4"/>
			<ellipse fill="#574131" cx="68.1" cy="83.2" rx="0.7" ry="0.9"/>
			<circle fill="#574131" cx="68.1" cy="84.7" r="0.9"/>
			<circle opacity="0.2" fill="#FFFFFF" enable-background="new    " cx="68.1" cy="84.1" r="0.3"/>
			<rect x="54.8" y="82.6" fill="#B37830" width="9.9" height="2.5"/>
			<rect x="55.6" y="83.4" fill="#97652A" width="8.2" height="1.1"/>
		</g>
		<polygon fill="#372C21" points="52.3,63.2 52.3,102.1 53.3,102.1 53.3,64.3 70.9,64.3 70.9,102.1 71.8,102.1 71.8,63.2 		"/>
		<polygon fill="#574131" points="51.5,62.4 51.5,102 52.6,102 52.6,63.5 71.6,63.5 71.6,102 72.6,102 72.6,62.4 		"/>
		<rect x="50.9" y="102" fill="#434343" width="22.4" height="1.6"/>
		<rect x="50.3" y="101.6" fill="#9B9B9B" width="23.5" height="0.6"/>
		<rect x="48.4" y="103.6" fill="#7F7F7E" width="27.4" height="2.1"/>
		<rect x="48.8" y="103.9" fill="#434343" width="26.5" height="1.1"/>
		<rect x="47.7" y="103.1" fill="#9B9B9B" width="28.7" height="0.8"/>
		<g>
			<rect x="64.2" y="82.9" fill="#B88440" width="0.3" height="1.6"/>
			<rect x="55.1" y="82.9" fill="#B88440" width="0.3" height="1.6"/>
		</g>
		<g>
			<rect x="55.5" y="34.6" fill="#D2CFC7" width="13" height="14.2"/>
			<path fill="#E8E8E8" d="M62.1,34.5c0,0-1.6,7.2-6.7,7.2v-7.2H62.1z"/>
			<path fill="#E8E8E8" d="M62,34.5c0,0,1.6,7.2,6.7,7.2v-7.2H62z"/>
			<polygon fill="#5D5C5A" points="69.1,41.2 62.4,41.2 62.4,34.6 61.6,34.6 61.6,41.2 55,41.2 55,42 61.6,42 61.6,48.7 62.4,48.7 
				62.4,42 69.1,42 			"/>
			<polygon fill="#455868" points="55.1,33.6 55.1,49.2 55.9,49.2 55.9,34.7 68.1,34.7 68.1,49.2 69,49.2 69,33.6 			"/>
			<polygon opacity="0.2" fill="#181716" enable-background="new    " points="55.6,34.2 55.6,49.9 56.4,49.9 56.4,35.3 67.8,35.3 
				67.8,49.9 68.6,49.9 68.6,34.2 			"/>
			<g>
				
					<linearGradient id="SVGID_7_" gradientUnits="userSpaceOnUse" x1="73.0151" y1="55.3107" x2="79.7582" y2="55.3107" gradientTransform="matrix(0.6346 0 0 -0.6346 3.4268 76.1502)">
					<stop  offset="0.2088" style="stop-color:#A63513"/>
					<stop  offset="1" style="stop-color:#792C09"/>
				</linearGradient>
				<rect x="49.8" y="33.3" fill="url(#SVGID_7_)" width="4.3" height="15.5"/>
				<path opacity="0.2" fill="#181716" enable-background="new    " d="M49.6,33.3v15.5h4.5V33.3H49.6z M53.6,48.1h-3.4v-6.6h3.4
					v-0.8h-3.4v-7.2h3.4V48.1z"/>
				
					<linearGradient id="SVGID_8_" gradientUnits="userSpaceOnUse" x1="72.339" y1="55.6259" x2="80.434" y2="55.6259" gradientTransform="matrix(0.6346 0 0 -0.6346 3.4268 76.1502)">
					<stop  offset="0.2088" style="stop-color:#A63513"/>
					<stop  offset="1" style="stop-color:#792C09"/>
				</linearGradient>
				<path fill="url(#SVGID_8_)" d="M49.4,32.7V49h5.1V32.7H49.4z M53.8,48.3H50v-6.9h3.9v-0.8H50v-7.2h3.9v14.9H53.8z"/>
			</g>
			<g>
				
					<linearGradient id="SVGID_9_" gradientUnits="userSpaceOnUse" x1="128.9746" y1="55.3107" x2="135.7177" y2="55.3107" gradientTransform="matrix(-0.6346 0 0 -0.6346 156.1895 76.1502)">
					<stop  offset="0.2088" style="stop-color:#A63513"/>
					<stop  offset="1" style="stop-color:#792C09"/>
				</linearGradient>
				<rect x="70" y="33.3" fill="url(#SVGID_9_)" width="4.3" height="15.5"/>
				<path opacity="0.2" fill="#181716" enable-background="new    " d="M74.5,33.3v15.5H70V33.3H74.5z M70.5,48.1h3.4v-6.6h-3.4
					v-0.8h3.4v-7.2h-3.4V48.1z"/>
				
					<linearGradient id="SVGID_10_" gradientUnits="userSpaceOnUse" x1="128.2948" y1="55.6259" x2="136.3906" y2="55.6259" gradientTransform="matrix(-0.6346 0 0 -0.6346 156.1895 76.1502)">
					<stop  offset="0.2088" style="stop-color:#A63513"/>
					<stop  offset="1" style="stop-color:#792C09"/>
				</linearGradient>
				<path fill="url(#SVGID_10_)" d="M74.8,32.7V49h-5.1V32.7H74.8z M70.3,48.3h3.9v-6.9h-3.9v-0.8h3.9v-7.2h-3.9V48.3z"/>
			</g>
			<polygon fill="#5A7185" points="54.3,32.7 54.3,49.2 55.2,49.2 55.2,33.9 68.8,33.9 68.8,49.2 69.6,49.2 69.6,32.7 			"/>
			<rect x="54.6" y="49" fill="#7F7F7E" width="14.9" height="2.5"/>
			<rect x="55" y="49" fill="#434343" width="13.9" height="1.7"/>
			<rect x="53.8" y="48.5" fill="#9B9B9B" width="16.2" height="0.7"/>
			<polygon opacity="0.5" fill="#FFFFFF" enable-background="new    " points="67.3,42.9 67.3,47.1 62.9,47.1 62.9,48.2 67.9,48.2 
				67.9,42.9 			"/>
			<polygon opacity="0.5" fill="#FFFFFF" enable-background="new    " points="67.3,35.7 67.3,39.9 62.9,39.9 62.9,41 67.9,41 
				67.9,35.7 			"/>
			<rect x="56.4" y="39.9" opacity="0.5" fill="#FFFFFF" enable-background="new    " width="5.1" height="1.1"/>
			<rect x="56.4" y="47.1" opacity="0.5" fill="#FFFFFF" enable-background="new    " width="5.1" height="1.1"/>
		</g>
	</g>
</g>
</svg>
