<?xml version="1.0" encoding="utf-8"?>
<!-- Generator: Adobe Illustrator 19.2.1, SVG Export Plug-In . SVG Version: 6.00 Build 0)  -->
<svg version="1.1" id="Слой_1" xmlns="http://www.w3.org/2000/svg" xmlns:xlink="http://www.w3.org/1999/xlink" x="0px" y="0px" width="21px" height="30px"
 	 viewBox="0 0 21 30" style="enable-background:new 0 0 21 30;" xml:space="preserve">
<style type="text/css">
	.st0{fill:#E74C3D;}
	.st1{fill:#FFFFFF;}
	.st2{fill:#E64C3C;}
</style>
<path class="st0" d="M21,10.6C21,4.8,16.3,0,10.5,0C4.7,0,0,4.8,0,10.6c0,1.1,0.2,2.3,0.5,3.3l0,0c0,0,0.9,4,9.9,16
	c5.2-6.9,7.7-11.1,8.9-13.5C20.4,14.8,21,12.8,21,10.6z"/>
<ellipse class="st1" cx="10.5" cy="10.7" rx="8" ry="8.1"/>
<path class="st2" d="M11.3,13.1c-0.2,0.1-0.5,0.2-0.8,0.2c-0.3,0-0.6-0.1-0.8-0.2l-3.5-2.2c0,0-0.3-0.2-0.3,0.3c0,0.5,0,2,0,2
	c0,0,0,0.1,0,0.2c0,1.2,2,2.4,4.6,2.4c2.5,0,4.6-1.2,4.6-2.4c0,0,0-0.1,0-0.2c0,0,0-1.6,0-2.2c0-0.4-0.2-0.2-0.2-0.2L11.3,13.1z"/>
<path class="st2" d="M16.3,9.2c0.3-0.2,0.3-0.4,0-0.6L11,5.8c-0.3-0.2-0.7-0.2-1,0L4.7,8.5C4.4,8.7,4.4,9,4.7,9.2l5.3,3.3
	c0.3,0.2,0.7,0.2,1,0"/>
<path class="st2" d="M16.1,14.1c0-0.9,0-3.7,0-3.7s0-0.2-0.1-0.1c-0.1,0-0.3,0.2-0.4,0.2c-0.1,0.1-0.1,0.2-0.1,0.2s0,2.5,0,3.3
	c0,0,0,0.1-0.1,0.1c-0.2,0.1-0.3,0.3-0.3,0.5c0,0.4,0.3,0.6,0.6,0.6c0.3,0,0.6-0.3,0.6-0.6C16.4,14.5,16.3,14.3,16.1,14.1
	C16.1,14.2,16.1,14.1,16.1,14.1z"/>
</svg>
