<?xml version="1.0" encoding="utf-8"?>
<!-- Generator: Adobe Illustrator 19.2.1, SVG Export Plug-In . SVG Version: 6.00 Build 0)  -->
<svg version="1.1" id="Слой_1" xmlns="http://www.w3.org/2000/svg" xmlns:xlink="http://www.w3.org/1999/xlink" x="0px" y="0px"
	 viewBox="0 0 41 40" style="enable-background:new 0 0 41 40;" xml:space="preserve">
<style type="text/css">
	.st0{fill:#3E99D4;}
</style>
<path class="st0" d="M35.2,6.3H13.5c-0.4,0-0.6-0.3-0.6-0.6c0-0.3,0.3-0.6,0.6-0.6h21.8c0.4,0,0.6,0.3,0.6,0.6
	C35.9,6,35.6,6.3,35.2,6.3z"/>
<path class="st0" d="M35.2,13.8H34c-0.4,0-0.6-0.3-0.6-0.6c0-0.3,0.3-0.6,0.6-0.6h1.3c0.4,0,0.6,0.3,0.6,0.6
	C35.9,13.6,35.6,13.8,35.2,13.8z"/>
<path class="st0" d="M35.2,17.6c-0.2,0-0.3-0.1-0.5-0.2c-0.1-0.1-0.2-0.3-0.2-0.4c0-0.2,0.1-0.3,0.2-0.4c0.1-0.1,0.3-0.2,0.5-0.2
	c0.2,0,0.3,0.1,0.5,0.2c0.1,0.1,0.2,0.3,0.2,0.4c0,0.2-0.1,0.3-0.2,0.4C35.6,17.5,35.4,17.6,35.2,17.6z"/>
<path class="st0" d="M35.2,10.1H23.7c-0.4,0-0.6-0.3-0.6-0.6s0.3-0.6,0.6-0.6h11.5c0.4,0,0.6,0.3,0.6,0.6S35.6,10.1,35.2,10.1z"/>
<path class="st0" d="M21.1,10.1h-7.7c-0.4,0-0.6-0.3-0.6-0.6s0.3-0.6,0.6-0.6h7.7c0.4,0,0.6,0.3,0.6,0.6S21.5,10.1,21.1,10.1z"/>
<path class="st0" d="M36.5,27.4c-0.3,0-0.7-0.1-0.9-0.4l-0.8-0.8c-0.3-0.2-0.3-0.6,0-0.9c0.3-0.2,0.7-0.2,0.9,0l0.8,0.8l0-4.2
	c0-0.3,0.2-0.6,0.5-0.6c1.5-0.3,2.7-1.6,2.7-3.1V4.4c0-1.7-1.4-3.1-3.2-3.1H12.2C10.4,1.3,9,2.7,9,4.4v6.3c0,0.3-0.3,0.6-0.6,0.6
	c-0.4,0-0.6-0.3-0.6-0.6V4.4C7.7,2,9.7,0,12.2,0h24.3C39,0,41,2,41,4.4v13.8c0,2-1.3,3.7-3.2,4.2v3.7c0,0.5-0.3,1-0.8,1.2
	C36.8,27.4,36.7,27.4,36.5,27.4z"/>
<path class="st0" d="M27.5,18.9H5.8c-0.4,0-0.6-0.3-0.6-0.6c0-0.3,0.3-0.6,0.6-0.6h21.8c0.4,0,0.6,0.3,0.6,0.6
	C28.2,18.6,27.9,18.9,27.5,18.9z"/>
<path class="st0" d="M27.5,26.4h-8.3c-0.4,0-0.6-0.3-0.6-0.6c0-0.3,0.3-0.6,0.6-0.6h8.3c0.4,0,0.6,0.3,0.6,0.6
	C28.2,26.1,27.9,26.4,27.5,26.4z"/>
<path class="st0" d="M16.7,26.4H5.8c-0.4,0-0.6-0.3-0.6-0.6c0-0.3,0.3-0.6,0.6-0.6h10.9c0.4,0,0.6,0.3,0.6,0.6
	C17.3,26.1,17,26.4,16.7,26.4z"/>
<path class="st0" d="M27.5,30.2H5.8c-0.4,0-0.6-0.3-0.6-0.6c0-0.3,0.3-0.6,0.6-0.6h21.8c0.4,0,0.6,0.3,0.6,0.6
	C28.2,29.9,27.9,30.2,27.5,30.2z"/>
<path class="st0" d="M9.6,22.6H5.8c-0.4,0-0.6-0.3-0.6-0.6c0-0.3,0.3-0.6,0.6-0.6h3.8c0.4,0,0.6,0.3,0.6,0.6
	C10.2,22.4,10,22.6,9.6,22.6z"/>
<path class="st0" d="M27.5,22.6H12.2c-0.4,0-0.6-0.3-0.6-0.6c0-0.3,0.3-0.6,0.6-0.6h15.4c0.4,0,0.6,0.3,0.6,0.6
	C28.2,22.4,27.9,22.6,27.5,22.6z"/>
<path class="st0" d="M4.5,40c-0.2,0-0.3,0-0.5-0.1c-0.5-0.2-0.8-0.7-0.8-1.2V35C1.3,34.5,0,32.8,0,30.8V17c0-2.4,2-4.4,4.5-4.4h24.3
	c2.5,0,4.5,2,4.5,4.4v13.8c0,2.4-2,4.4-4.5,4.4h-19l-4.5,4.4C5.1,39.9,4.8,40,4.5,40z M4.5,13.8c-1.8,0-3.2,1.4-3.2,3.1v13.8
	c0,1.5,1.1,2.8,2.7,3.1c0.3,0.1,0.5,0.3,0.5,0.6v4.2l4.7-4.6C9.3,34,9.4,34,9.6,34h19.2c1.8,0,3.2-1.4,3.2-3.1V17
	c0-1.7-1.4-3.1-3.2-3.1H4.5L4.5,13.8z"/>
</svg>
