<?xml version="1.0" encoding="utf-8"?>
<!-- Generator: Adobe Illustrator 19.2.1, SVG Export Plug-In . SVG Version: 6.00 Build 0)  -->
<svg version="1.1" id="Слой_1" xmlns="http://www.w3.org/2000/svg" xmlns:xlink="http://www.w3.org/1999/xlink" x="0px" y="0px"
	 viewBox="0 0 76 40" style="enable-background:new 0 0 76 40;" xml:space="preserve">
<style type="text/css">
	.st0{fill:#F6C63F;}
</style>
<path class="st0" d="M65.2,26.6L76,9.1l-8-2L59.7,15C54.1,13,20.8,1.6,10.3,1.9C3.8,2.1,0.7,3.1,0.1,5.3C-0.4,7,0.9,8.8,4,10.8
	c4.6,2.9,15.8,5.8,18.2,6.4l17.6,21.2h9.8l-0.5-14.5L65.2,26.6z M41,35.8L23.6,14.9l-0.4-0.1c-0.1,0-13.1-3.2-17.8-6.2
	C2.7,6.9,2.6,6,2.6,6c0,0,0.6-1.3,7.7-1.5l0.4,0c11.4,0,48.5,13.1,48.8,13.2l0.8,0.3l8.4-8l3.2,0.8l-8.1,13l-17.5-2.9l0.5,15
	L41,35.8L41,35.8L41,35.8z M42.8,2.6l6.9,1.5l-1.7,3.6l2.4,1.1l3.2-6.5L42.9,0L27.9,1.9l0.3,2.6L42.8,2.6z M54.3,38.3l17,1.7
	l0.3-2.6l-17-1.7L54.3,38.3z M65.5,31.5l-11.3-1.1L53.9,33l11.3,1.1L65.5,31.5z"/>
</svg>
