<?xml version="1.0" encoding="utf-8"?>
<!-- Generator: Adobe Illustrator 19.2.1, SVG Export Plug-In . SVG Version: 6.00 Build 0)  -->
<svg version="1.1" id="Слой_1" xmlns="http://www.w3.org/2000/svg" xmlns:xlink="http://www.w3.org/1999/xlink" x="0px" y="0px"
	 viewBox="0 0 55 59" style="enable-background:new 0 0 55 59;" xml:space="preserve">
<style type="text/css">
	.st0{fill:#F6C63F;}
</style>
<path class="st0" d="M13.2,21.9h28.6V24H13.2V21.9z"/>
<path class="st0" d="M13.2,15.3h28.6v2.2H13.2V15.3z"/>
<path class="st0" d="M48.4,18.4v-7.4c0-2.4-2-4.4-4.4-4.4h-9L27.5,0L20,6.6h-9c-2.4,0-4.4,2-4.4,4.4v7.4L0,24v30.6C0,57,2,59,4.4,59
	h46.2c2.4,0,4.4-2,4.4-4.4V24L48.4,18.4z M48.4,21.2l3.3,2.8l-3.3,2.8V21.2z M27.5,2.8l4.2,3.7h-8.6L27.5,2.8z M8.8,10.9
	c0-1.3,0.9-2.2,2.2-2.2h33c1.1,0,2.2,1.1,2.2,2.2v17.7l-7,6.3H15.8l-7-6.1V10.9z M31.9,41.5L31.9,41.5h-7.5h3.7h-5.1l-4.8-4.4h18.3
	L31.9,41.5L31.9,41.5z M6.6,21.2v5.9L3.3,24L6.6,21.2z M2.9,56.2c-0.4-0.4-0.7-0.9-0.7-1.5V40.4V26.2l17.6,15.3L2.9,56.2z M5.5,56.8
	l15.4-13.1h13.2l15.4,13.1H5.5z M52.8,40.4v14.2c0,0.7-0.2,1.1-0.7,1.5L35.2,41.5l17.6-15.3V40.4z"/>
<path class="st0" d="M13.2,28.4h28.6v2.2H13.2V28.4z"/>
</svg>
