<?xml version="1.0" encoding="utf-8"?>
<!-- Generator: Adobe Illustrator 19.2.1, SVG Export Plug-In . SVG Version: 6.00 Build 0)  -->
<svg version="1.1" id="Слой_1" xmlns="http://www.w3.org/2000/svg" xmlns:xlink="http://www.w3.org/1999/xlink" x="0px" y="0px"
	 viewBox="0 0 66 54" style="enable-background:new 0 0 66 54;" xml:space="preserve">
<style type="text/css">
	.st0{fill:#F6C63F;}
</style>
<path class="st0" d="M63.1,31.2c-0.7-0.7-1.6-1.6-2.6-2.8V18c0-0.1,0-2.7-1.4-5.4C57.8,10.2,55,7.2,49,7.2H37.6l-0.7-1.4
	c0.8-0.6,1.4-1.5,1.4-2.6c0-1.7-1.4-3.1-3.1-3.1c-0.9,0-1.6,0.4-2.2,0.9C32.4,0.4,31.7,0,30.8,0c-1.7,0-3.1,1.4-3.1,3.1
	c0,1.1,0.6,2.1,1.4,2.6l-0.7,1.4H17c-5.9,0-8.7,3-10.1,5.4c-1.4,2.6-1.4,5.3-1.4,5.4v10.4c-1,1.2-1.9,2.1-2.6,2.8
	c-2,2-2.9,2.9-2.9,6.9c0,3,0.6,6.9,4.9,10.2c3.1,2.3,7.6,3.9,13.7,4.8C18.7,53.1,25.1,54,33,54c7.9,0,14.3-0.9,14.4-0.9
	c6.1-0.9,10.6-2.5,13.7-4.8C65.4,45,66,41.1,66,38.1C66,34.1,65.1,33.2,63.1,31.2z M35.2,1.8c0.7,0,1.3,0.6,1.3,1.3
	c0,0.7-0.6,1.3-1.3,1.3s-1.3-0.6-1.3-1.3C33.9,2.4,34.5,1.8,35.2,1.8z M33,5.4c0.5,0.5,1.3,0.9,2.1,0.9l0.5,0.9h-5.1l0.5-0.9
	C31.7,6.2,32.5,5.9,33,5.4z M30.8,1.8c0.7,0,1.3,0.6,1.3,1.3c0,0.7-0.6,1.3-1.3,1.3s-1.3-0.6-1.3-1.3C29.5,2.4,30.1,1.8,30.8,1.8z
	 M7.3,18c0-0.4,0.2-9,9.7-9H49c9.5,0,9.7,8.6,9.7,9v7.7c-0.8-1.6-1.1-3.3-1.5-5.6l-0.1-0.6c-0.8-4.4-3.6-6.4-5.7-7.4
	c-2.3-1-4.4-1-4.5-1H19.1c-0.1,0-2.2,0-4.5,1c-2.2,1-4.9,3-5.7,7.4l-0.1,0.6c-0.4,2.4-0.7,4-1.5,5.6L7.3,18L7.3,18z M1.8,38.1
	c0-3.3,0.5-3.8,2.3-5.6c0.8-0.8,1.7-1.7,2.9-3.2c2.4-2.9,2.9-5.3,3.5-8.9l0.1-0.6c1.2-6.8,8.1-6.9,8.4-6.9h3c0,2.3-0.1,9.1-2.7,16.2
	c-0.4,1.1-0.8,2.2-1.2,3.2c-3,8.1-4.8,12.9-1.3,18.6C1.8,48.1,1.8,41.1,1.8,38.1z M19.4,51.3c-4.2-5.7-2.7-9.7,0.5-18.4
	c0.4-1,0.8-2.1,1.2-3.2c2.7-7.4,2.9-14.3,2.8-16.8H42c0,2.5,0.1,9.4,2.8,16.8c0.4,1.1,0.8,2.2,1.2,3.2c3.2,8.7,4.8,12.7,0.5,18.4
	c-3.9,0.6-8.4,0.8-13.6,0.8C27.6,52.2,23.1,51.8,19.4,51.3z M60,46.8c-2.5,1.9-6.2,3.2-11,4.1c3.5-5.8,1.7-10.6-1.3-18.6
	c-0.4-1-0.8-2.1-1.2-3.2c-2.6-7-2.7-13.8-2.7-16.2h3c0,0,1.8,0,3.8,0.9c2.6,1.1,4.1,3.2,4.7,6.1l0.1,0.6c0.7,3.7,1.1,6.1,3.5,9
	c1.2,1.4,2.2,2.4,2.9,3.2c1.8,1.8,2.3,2.3,2.3,5.6C64.2,40.9,63.7,44.1,60,46.8z"/>
</svg>
