<?xml version="1.0" encoding="utf-8"?>
<!-- Generator: Adobe Illustrator 19.2.1, SVG Export Plug-In . SVG Version: 6.00 Build 0)  -->
<svg version="1.1" id="Слой_1" xmlns="http://www.w3.org/2000/svg" xmlns:xlink="http://www.w3.org/1999/xlink" x="0px" y="0px"
	 viewBox="0 0 29 45" style="enable-background:new 0 0 29 45;" xml:space="preserve">
<style type="text/css">
	.st0{fill:#3E99D4;}
</style>
<path class="st0" d="M27.3,12.1c0,0-0.2-8.9-0.3-9c0-0.2-0.1-0.3-0.1-0.5c-0.2-0.4-0.5-0.7-0.9-0.9l-2.6-1c-0.4-0.2-0.8-0.1-1.2,0
	c-0.4,0.2-0.7,0.5-0.8,0.9l-1.8,4.6c-0.3-0.1-0.5-0.1-0.8-0.2V4.4C18.8,2,16.9,0,14.5,0c-2.4,0-4.3,2-4.3,4.4v1.7
	c-0.3,0-0.5,0.1-0.8,0.2L7.6,1.7C7.4,1.3,7.2,1,6.8,0.8c-0.4-0.2-0.8-0.2-1.2,0L3,1.8C2.6,1.9,2.3,2.2,2.1,2.6C2,2.8,2,2.9,2,3.1
	c0,0.1-0.3,9-0.3,9c-1.1,1.9-1.7,4-1.7,6.4v23.8C0,43.8,1.2,45,2.7,45h23.6c1.5,0,2.7-1.2,2.7-2.7V18.4C29,16.1,28.4,13.9,27.3,12.1
	z M25.8,10c-0.3-0.3-0.6-0.6-0.9-0.9L25.7,7L25.8,10z M22.7,2.2c0-0.1,0.1-0.1,0.2-0.1l2.6,1c0.1,0,0.1,0.1,0.1,0.1c0,0,0,0.1,0,0.1
	l-1.9,4.9C22.9,7.6,22,7.1,21,6.7L22.7,2.2z M14.5,1.4c1.4,0,2.6,1.1,2.9,2.5c-0.8-0.7-1.8-1.1-2.9-1.1c-1.1,0-2.1,0.4-2.9,1.1
	C11.9,2.5,13.1,1.4,14.5,1.4z M17.1,6C17,6,12,6,11.9,6c0.1-0.3,0.3-0.6,0.6-0.9c0.5-0.6,1.3-0.9,2.1-0.9C15.7,4.3,16.7,5,17.1,6z
	 M3.4,3.2C3.4,3.2,3.4,3.1,3.4,3.2l2.7-1.1c0.1,0,0.2,0,0.2,0.1L8,6.7C7,7.1,6.1,7.6,5.2,8.2L3.4,3.3C3.4,3.3,3.4,3.2,3.4,3.2z
	 M3.3,7l0.8,2.1c-0.3,0.3-0.6,0.6-0.9,0.9L3.3,7z M27.6,42.3c0,0.7-0.6,1.3-1.3,1.3H2.7c-0.7,0-1.3-0.6-1.3-1.3V18.4
	c0-6.1,4.9-11,10.8-11h4.5c6,0,10.8,4.9,10.8,11V42.3L27.6,42.3z"/>
<path class="st0" d="M4.9,24.4c-1.1,0-2.1,0.9-2.1,2.1v13.6c0,1.2,0.9,2.1,2.1,2.1h19.2c1.1,0,2.1-0.9,2.1-2.1V26.5
	c0-1.2-0.9-2.1-2.1-2.1H4.9z M24.1,40.7H4.9c-0.4,0-0.7-0.3-0.7-0.7V31H22v1.6h1.4V31h1.3v9.1C24.7,40.4,24.4,40.7,24.1,40.7z
	 M24.7,26.5v3.1H4.3v-3.1c0-0.4,0.3-0.7,0.7-0.7h19.2C24.4,25.8,24.7,26.1,24.7,26.5z"/>
<path class="st0" d="M19,10.4h-9v4.1h9V10.4z M17.6,13.1h-6.1v-1.2h6.1V13.1z"/>
</svg>
