<?xml version="1.0" encoding="utf-8"?>
<!-- Generator: Adobe Illustrator 17.1.0, SVG Export Plug-In . SVG Version: 6.00 Build 0)  -->
<!DOCTYPE svg PUBLIC "-//W3C//DTD SVG 1.1//EN" "http://www.w3.org/Graphics/SVG/1.1/DTD/svg11.dtd">
<svg version="1.1" id="Layer_1" xmlns="http://www.w3.org/2000/svg" xmlns:xlink="http://www.w3.org/1999/xlink" x="0px" y="0px"
	 viewBox="0 0 43 43" enable-background="new 0 0 43 43" xml:space="preserve">
<image display="none" overflow="visible" width="43" height="43" xlink:href="../sprites/social__link_vk.png"  transform="matrix(0.9999 0 0 0.9999 0 0)">
</image>
<path fill="#2D3E50" d="M34.5,27.3c-0.6-0.8-1.3-1.5-2-2.1c-0.2-0.2-0.5-0.5-0.7-0.7c-0.7-0.7-0.7-1-0.2-1.8
	c0.4-0.6,0.8-1.1,1.2-1.7c0.4-0.5,0.7-1,1.1-1.5l0.1-0.1c0.7-1,1.4-1.9,1.8-3c0.1-0.3,0.2-0.8,0-1.2s-0.7-0.5-1-0.6
	c-0.2,0-0.3,0-0.5,0h-4.4l0,0c-0.7,0-1.1,0.3-1.4,1c-0.2,0.6-0.5,1.3-0.8,2c-0.6,1.3-1.4,2.7-2.4,3.9v0.1c-0.1,0.1-0.3,0.3-0.4,0.3
	c0,0,0,0-0.1,0c-0.2-0.1-0.4-0.7-0.4-0.9l0,0V16c0,0,0,0,0-0.1c-0.1-0.9-0.4-1.4-1.3-1.6H23h-4.5c-1-0.1-1.4,0.2-1.8,0.7
	c-0.1,0.1-0.3,0.4-0.2,0.7c0.1,0.3,0.5,0.4,0.6,0.4c0.6,0.1,0.9,0.5,1,1.1c0.2,1.1,0.2,2.3,0.1,3.6c0,0.4-0.1,0.7-0.2,1
	c0,0.1-0.1,0.3-0.2,0.3c0,0-0.1,0-0.3-0.1c-0.4-0.3-0.6-0.6-0.9-1c-1-1.5-1.9-3-2.6-4.9c-0.3-0.9-0.8-1.3-1.5-1.3
	c-0.7,0-1.4,0-2.1,0s-1.3,0-2,0c-0.5,0-0.9,0.2-1.1,0.5s-0.2,0.7,0,1.2c1.8,3.9,3.3,6.9,5.1,9.3c1.3,1.8,2.5,2.9,4,3.8
	c1.6,0.9,3.2,1.4,5.3,1.4c0.2,0,0.5,0,0.7,0c1.2-0.1,1.6-0.5,1.7-1.7c0-0.6,0.1-1.2,0.4-1.8c0.2-0.3,0.4-0.3,0.4-0.3
	c0.1,0,0.2,0.1,0.4,0.1c0.3,0.2,0.5,0.4,0.7,0.6s0.3,0.4,0.5,0.6c0.4,0.4,0.7,0.8,1.1,1.3c0.9,0.9,1.8,1.3,2.8,1.2h4l0,0
	c0.4,0,0.8-0.3,1-0.6c0.3-0.5,0.3-1.1,0-1.6C35.2,28.1,34.8,27.7,34.5,27.3z"/>
</svg>
