<?xml version="1.0" encoding="utf-8"?>
<!-- Generator: Adobe Illustrator 17.1.0, SVG Export Plug-In . SVG Version: 6.00 Build 0)  -->
<!DOCTYPE svg PUBLIC "-//W3C//DTD SVG 1.1//EN" "http://www.w3.org/Graphics/SVG/1.1/DTD/svg11.dtd">
<svg version="1.1" id="Layer_1" xmlns="http://www.w3.org/2000/svg" xmlns:xlink="http://www.w3.org/1999/xlink" x="0px" y="0px"
	 viewBox="0 0 43 43" enable-background="new 0 0 43 43" xml:space="preserve">
<image display="none" overflow="visible" width="43" height="43" xlink:href="../sprites/social__link_twitter.png"  transform="matrix(0.9999 0 0 0.9999 0 0)">
</image>
<path fill="#36A8F3" d="M35,12.5c-1.1,0.6-2.3,1.1-3.6,1.4c-1-1.1-2.4-1.8-4-1.8c-3.1,0-5.5,2.5-5.5,5.6c0,0.4,0,0.9,0.1,1.3
	c-4.6-0.3-8.7-2.5-11.4-5.9c-0.5,0.8-0.8,1.8-0.8,2.8c0,1.9,1,3.6,2.5,4.6c-0.9,0-1.8-0.3-2.5-0.7v0.1c0,2.7,1.9,4.9,4.4,5.4
	c-0.5,0.1-1,0.2-1.5,0.2c-0.4,0-0.7,0-1-0.1c0.7,2.2,2.8,3.8,5.2,3.9c-1.9,1.5-4.3,2.4-6.9,2.4c-0.4,0-0.9,0-1.3-0.1
	c2.5,1.6,5.4,2.5,8.5,2.5c10.2,0,15.8-8.5,15.8-15.8v-0.7c1.1-0.8,2-1.8,2.8-2.9c-1,0.4-2.1,0.7-3.2,0.9
	C33.8,14.9,34.5,13.8,35,12.5z"/>
</svg>
