<?xml version="1.0" encoding="utf-8"?>
<!-- Generator: Adobe Illustrator 17.1.0, SVG Export Plug-In . SVG Version: 6.00 Build 0)  -->
<!DOCTYPE svg PUBLIC "-//W3C//DTD SVG 1.1//EN" "http://www.w3.org/Graphics/SVG/1.1/DTD/svg11.dtd">
<svg version="1.1" id="Layer_1" xmlns="http://www.w3.org/2000/svg" xmlns:xlink="http://www.w3.org/1999/xlink" x="0px" y="0px"
	 viewBox="0 0 43 43" enable-background="new 0 0 43 43" xml:space="preserve">
<image display="none" overflow="visible" width="43" height="43" xlink:href="../sprites/social__link_fb.png" >
</image>
<path fill="#2D3E50" d="M28.1,8.1h-3.6c-4,0-6.7,2.6-6.7,6.6v3.1h-3.5c-0.3,0-0.6,0.3-0.6,0.6v4.4c0,0.3,0.3,0.6,0.6,0.6H18v11.1
	c0,0.3,0.3,0.6,0.6,0.6h4.7c0.3,0,0.6-0.2,0.6-0.6V23.1H28c0.3,0,0.6-0.2,0.6-0.6v-4.4c0-0.1-0.1-0.3-0.2-0.4
	c-0.1-0.1-0.3-0.2-0.4-0.2h-4.3v-2.5c0-1.2,0.3-1.9,2-1.9h2.4c0.3,0,0.6-0.2,0.6-0.5V8.6C28.7,8.3,28.4,8.1,28.1,8.1z"/>
</svg>
