<?xml version="1.0" encoding="utf-8"?>
<!-- Generator: Adobe Illustrator 19.2.1, SVG Export Plug-In . SVG Version: 6.00 Build 0)  -->
<svg version="1.1" id="Слой_1" xmlns="http://www.w3.org/2000/svg" xmlns:xlink="http://www.w3.org/1999/xlink" x="0px" y="0px"
	 viewBox="0 0 36 39" style="enable-background:new 0 0 36 39;" xml:space="preserve">
<style type="text/css">
	.st0{fill:#3E99D4;}
</style>
<path class="st0" d="M18,0c-0.1,0-0.2,0-0.2,0L6.3,4.3C5.9,4.4,5.7,4.7,5.8,5.1v2.2c-0.8,0.3-1.4,1.1-1.4,2c0,0.9,0.6,1.7,1.4,2v2.3
	c0,0.4,0.3,0.7,0.7,0.7c0.4,0,0.7-0.3,0.7-0.7c0,0,0,0,0,0v-2.3c0.8-0.3,1.4-1.1,1.4-2c0-0.9-0.6-1.7-1.4-2V6l2.9,1.1v5
	c0,0.4,0.3,0.7,0.7,0.7c0.2,0,0.4-0.1,0.5-0.2c0.5-0.5,1.8-0.9,3.1-0.9c1.3,0,2.6,0.4,3.1,0.9c0.3,0.3,0.7,0.3,1,0
	c0.5-0.5,1.8-0.9,3.1-0.9c1.3,0,2.6,0.4,3.1,0.9c0.3,0.3,0.7,0.3,1,0c0.1-0.1,0.2-0.3,0.2-0.5v-5l3.9-1.4c0.4-0.1,0.6-0.5,0.4-0.9
	c-0.1-0.2-0.2-0.3-0.4-0.4L18.3,0C18.2,0,18.1,0,18,0z M18,1.5L27.5,5L18,8.5L8.5,5L18,1.5z M18,4.3c-0.4,0-0.7,0.3-0.7,0.7
	s0.3,0.7,0.7,0.7s0.7-0.3,0.7-0.7S18.4,4.3,18,4.3z M11.5,7.6l6.2,2.3c0.2,0.1,0.3,0.1,0.5,0l6.2-2.3v3.2c-0.9-0.4-1.9-0.5-2.9-0.5
	c-1.3,0-2.6,0.2-3.6,0.9c-1-0.6-2.3-0.9-3.6-0.9c-1,0-2,0.2-2.9,0.5V7.6z M6.5,8.6c0.4,0,0.7,0.3,0.7,0.7c0,0.4-0.3,0.7-0.7,0.7
	c-0.4,0-0.7-0.3-0.7-0.7C5.8,8.9,6.1,8.6,6.5,8.6z M25,13.5c-0.4,0-0.7,0.4-0.7,0.7c0,0,0,0,0,0.1c0.4,2.6-0.8,5.2-2.9,6.6
	c-2.1,1.4-4.7,1.4-6.8,0c-2.1-1.4-3.2-4-2.9-6.6c0.1-0.4-0.2-0.7-0.6-0.8c-0.4,0-0.8,0.2-0.8,0.6c-0.4,3.1,0.9,6.2,3.5,8
	c0.3,0.2,0.6,0.4,0.9,0.5c0.3,1.2,0,2-0.9,2.7c-0.9,0.7-2.5,1.3-4.4,1.3c-2.1,0.1-3.8,0.8-4.9,1.9c-1.1,1.1-1.6,2.6-1.7,4
	c0,0,0,0,0,0v5H0.7c-0.4,0-0.7,0.3-0.7,0.7S0.3,39,0.7,39c0,0,0,0,0,0h20.4l0,0l0,0H24l0,0l0,0h11.2c0.4,0,0.7-0.3,0.7-0.7
	s-0.3-0.7-0.7-0.7c0,0,0,0,0,0h-2.2v-5c0,0,0,0,0,0c0-1.5-0.6-2.9-1.7-4c-1.1-1.1-2.7-1.8-4.9-1.9c-1.9-0.1-3.5-0.6-4.4-1.3
	c-0.9-0.7-1.2-1.5-0.9-2.7c0.3-0.2,0.6-0.3,0.9-0.5c2.6-1.7,3.9-4.8,3.5-8C25.7,13.8,25.3,13.5,25,13.5L25,13.5z M16.2,23.2
	c1.2,0.3,2.4,0.3,3.6,0c-0.1,1.3,0.5,2.4,1.5,3.2c1,0.8,2.3,1.3,3.9,1.5l-4.9,9.7h-1.6c-0.1-0.3-0.4-0.5-0.7-0.5
	c-0.3,0-0.6,0.2-0.7,0.5h-13v-5c0-1.2,0.4-2.2,1.2-3.1c0.8-0.8,2.1-1.4,3.9-1.5c2.1-0.1,4-0.6,5.3-1.7
	C15.7,25.6,16.3,24.4,16.2,23.2L16.2,23.2z M26.7,28.1c0.4,0,0.8,0.1,1.2,0.2l-4.7,9.4h-1.3L26.7,28.1z M18,28.5
	c-0.4,0-0.7,0.3-0.7,0.7c0,0.4,0.3,0.7,0.7,0.7s0.7-0.3,0.7-0.7C18.7,28.8,18.4,28.5,18,28.5z M29.2,28.7c0.5,0.2,0.9,0.5,1.2,0.9
	c0.8,0.8,1.2,1.9,1.2,3.1v5h-6.9L29.2,28.7z M18,31.4c-0.4,0-0.7,0.3-0.7,0.7c0,0.4,0.3,0.7,0.7,0.7s0.7-0.3,0.7-0.7
	C18.7,31.7,18.4,31.4,18,31.4z M18,34.2c-0.4,0-0.7,0.3-0.7,0.7l0,0c0,0.4,0.3,0.7,0.7,0.7s0.7-0.3,0.7-0.7S18.4,34.2,18,34.2
	L18,34.2z"/>
</svg>
