<?xml version="1.0" encoding="utf-8"?>
<!-- Generator: Adobe Illustrator 17.1.0, SVG Export Plug-In . SVG Version: 6.00 Build 0)  -->
<!DOCTYPE svg PUBLIC "-//W3C//DTD SVG 1.1//EN" "http://www.w3.org/Graphics/SVG/1.1/DTD/svg11.dtd">
<svg version="1.1" id="Layer_1" xmlns="http://www.w3.org/2000/svg" xmlns:xlink="http://www.w3.org/1999/xlink" x="0px" y="0px"
	 viewBox="0 0 88 8" enable-background="new 0 0 88 8" xml:space="preserve">
<image display="none" overflow="visible" width="88" height="8" xlink:href="../sprites/title$after.png" >
</image>
<path fill="#FFFFFF" d="M87.9,3.5c-0.5-1-1.4-1.9-2.4-2.5c-1-0.6-2.1-0.9-3.3-0.9c-1.2,0-2.3,0.3-3.3,0.9c-1,0.6-1.8,1.5-2.4,2.5
	c-0.4,0.7-0.9,1.3-1.6,1.7c-0.7,0.4-1.4,0.6-2.3,0.6c-0.8,0-1.6-0.2-2.2-0.6c-0.7-0.4-1.3-1-1.6-1.7c-0.5-1-1.4-1.9-2.4-2.5
	c-1-0.6-2.1-0.9-3.3-0.9c-1.2,0-2.4,0.3-3.3,0.9c-1,0.6-1.8,1.5-2.4,2.5c-0.4,0.7-0.9,1.3-1.6,1.7c-0.7,0.4-1.4,0.6-2.3,0.6
	c-0.8,0-1.6-0.2-2.2-0.6c-0.6-0.4-1.2-1-1.6-1.6c0,0,0-0.1,0-0.1c-0.5-1-1.4-1.9-2.4-2.5c-1-0.6-2.1-0.9-3.3-0.9l0,0l0,0
	c-1.2,0-2.4,0.3-3.3,0.9c-1,0.6-1.8,1.5-2.4,2.5c0,0,0,0.1,0,0.1c-0.4,0.7-0.9,1.2-1.6,1.6c-0.7,0.4-1.4,0.6-2.3,0.6
	c-0.8,0-1.6-0.2-2.2-0.6c-0.7-0.4-1.3-1-1.6-1.7c-0.5-1-1.4-1.9-2.4-2.5c-1-0.6-2.1-0.9-3.3-0.9c-1.2,0-2.4,0.3-3.3,0.9
	c-1,0.6-1.8,1.5-2.4,2.5c-0.4,0.7-0.9,1.3-1.6,1.7c-0.7,0.4-1.4,0.6-2.3,0.6c-0.8,0-1.6-0.2-2.2-0.6c-0.7-0.4-1.2-1-1.6-1.7
	c-0.5-1-1.4-1.9-2.4-2.5C8.1,0.4,7,0.1,5.8,0.1S3.5,0.4,2.5,1c-1,0.6-1.8,1.5-2.4,2.5C-0.1,4,0,4.6,0.6,4.9C1,5.1,1.7,5,1.9,4.4
	c0.4-0.7,0.9-1.3,1.6-1.7C4.2,2.3,5,2.1,5.8,2.1s1.6,0.2,2.2,0.6c0.7,0.4,1.2,1,1.6,1.7c0.5,1,1.4,1.9,2.4,2.5
	c1,0.6,2.1,0.9,3.3,0.9s2.3-0.3,3.3-0.9c1-0.6,1.8-1.5,2.4-2.5c0.4-0.7,0.9-1.3,1.6-1.7c0.7-0.4,1.4-0.6,2.3-0.6s1.6,0.2,2.2,0.6
	c0.7,0.4,1.3,1,1.6,1.7c0.5,1,1.4,1.9,2.4,2.5c1,0.6,2.1,0.9,3.3,0.9s2.4-0.3,3.3-0.9c1-0.6,1.8-1.5,2.4-2.5
	c0.4-0.7,0.9-1.3,1.6-1.7c0.7-0.4,1.4-0.6,2.3-0.6c0.8,0,1.6,0.2,2.2,0.6c0.7,0.4,1.2,1,1.6,1.7c0.5,1,1.4,1.9,2.4,2.5
	c1,0.6,2.1,0.9,3.3,0.9s2.3-0.3,3.3-0.9c1-0.6,1.8-1.5,2.4-2.5c0.4-0.7,0.9-1.3,1.6-1.7c0.7-0.4,1.4-0.6,2.3-0.6
	c0.8,0,1.6,0.2,2.2,0.6c0.7,0.4,1.3,1,1.6,1.7c0.5,1,1.4,1.9,2.4,2.5c1,0.6,2.1,0.9,3.3,0.9S75.1,7.6,76,7c1-0.6,1.8-1.5,2.4-2.5
	c0.4-0.7,0.9-1.3,1.6-1.7c0.7-0.4,1.4-0.6,2.3-0.6c0.8,0,1.6,0.2,2.2,0.6c0.7,0.4,1.2,1,1.6,1.7C86.4,5,87,5.2,87.5,5
	C88,4.6,88.1,4,87.9,3.5z"/>
</svg>
