<?xml version="1.0" encoding="utf-8"?>
<!-- Generator: Adobe Illustrator 19.2.1, SVG Export Plug-In . SVG Version: 6.00 Build 0)  -->
<svg version="1.1" id="Layer_1" xmlns="http://www.w3.org/2000/svg" xmlns:xlink="http://www.w3.org/1999/xlink" x="0px" y="0px"
	 viewBox="0 0 88 8" style="enable-background:new 0 0 88 8;" xml:space="preserve">
<style type="text/css">
	.st0{fill:#3E99D4;}
</style>
<path class="st0" d="M87.9,3.5c-0.5-1-1.4-1.9-2.4-2.5s-2.1-0.9-3.3-0.9c-1.2,0-2.3,0.3-3.3,0.9s-1.8,1.5-2.4,2.5
	c-0.4,0.7-0.9,1.3-1.6,1.7c-0.7,0.4-1.4,0.6-2.3,0.6c-0.8,0-1.6-0.2-2.2-0.6c-0.7-0.4-1.3-1-1.6-1.7c-0.5-1-1.4-1.9-2.4-2.5
	s-2.1-0.9-3.3-0.9S60.7,0.4,59.8,1c-1,0.6-1.8,1.5-2.4,2.5c-0.4,0.7-0.9,1.3-1.6,1.7c-0.7,0.4-1.4,0.6-2.3,0.6
	c-0.8,0-1.6-0.2-2.2-0.6c-0.6-0.4-1.2-1-1.6-1.6V3.5c-0.5-1-1.4-1.9-2.4-2.5S45.2,0.1,44,0.1l0,0l0,0c-1.2,0-2.4,0.3-3.3,0.9
	c-1,0.6-1.8,1.5-2.4,2.5v0.1c-0.4,0.7-0.9,1.2-1.6,1.6c-0.7,0.4-1.4,0.6-2.3,0.6c-0.8,0-1.6-0.2-2.2-0.6c-0.7-0.4-1.3-1-1.6-1.7
	c-0.5-1-1.4-1.9-2.4-2.5s-2.1-0.9-3.3-0.9c-1.2,0-2.4,0.3-3.3,0.9c-1,0.6-1.8,1.5-2.4,2.5c-0.4,0.7-0.9,1.3-1.6,1.7
	s-1.4,0.6-2.3,0.6c-0.8,0-1.6-0.2-2.2-0.6c-0.7-0.4-1.2-1-1.6-1.7C11,2.5,10.1,1.6,9.1,1C8.1,0.4,7,0.1,5.8,0.1S3.5,0.4,2.5,1
	S0.7,2.5,0.1,3.5C-0.1,4,0,4.6,0.6,4.9C1,5.1,1.7,5,1.9,4.4c0.4-0.7,0.9-1.3,1.6-1.7S5,2.1,5.8,2.1S7.4,2.3,8,2.7
	c0.7,0.4,1.2,1,1.6,1.7c0.5,1,1.4,1.9,2.4,2.5s2.1,0.9,3.3,0.9s2.3-0.3,3.3-0.9s1.8-1.5,2.4-2.5c0.4-0.7,0.9-1.3,1.6-1.7
	s1.4-0.6,2.3-0.6s1.6,0.2,2.2,0.6c0.7,0.4,1.3,1,1.6,1.7c0.5,1,1.4,1.9,2.4,2.5c1,0.6,2.1,0.9,3.3,0.9s2.4-0.3,3.3-0.9
	c1-0.6,1.8-1.5,2.4-2.5c0.4-0.7,0.9-1.3,1.6-1.7c0.7-0.4,1.4-0.6,2.3-0.6c0.8,0,1.6,0.2,2.2,0.6c0.7,0.4,1.2,1,1.6,1.7
	c0.5,1,1.4,1.9,2.4,2.5s2.1,0.9,3.3,0.9s2.3-0.3,3.3-0.9s1.8-1.5,2.4-2.5c0.4-0.7,0.9-1.3,1.6-1.7c0.7-0.4,1.4-0.6,2.3-0.6
	c0.8,0,1.6,0.2,2.2,0.6c0.7,0.4,1.3,1,1.6,1.7c0.5,1,1.4,1.9,2.4,2.5s2.1,0.9,3.3,0.9S75.1,7.6,76,7c1-0.6,1.8-1.5,2.4-2.5
	c0.4-0.7,0.9-1.3,1.6-1.7s1.4-0.6,2.3-0.6c0.8,0,1.6,0.2,2.2,0.6c0.7,0.4,1.2,1,1.6,1.7C86.4,5,87,5.2,87.5,5
	C88,4.6,88.1,4,87.9,3.5z"/>
</svg>
