<?xml version="1.0" encoding="utf-8"?>
<!-- Generator: Adobe Illustrator 19.2.1, SVG Export Plug-In . SVG Version: 6.00 Build 0)  -->
<svg version="1.1" id="Режим_изоляции"
	 xmlns="http://www.w3.org/2000/svg" xmlns:xlink="http://www.w3.org/1999/xlink" x="0px" y="0px" viewBox="0 0 324.5 412"
	 style="enable-background:new 0 0 324.5 412;" xml:space="preserve">
<style type="text/css">
	.st0{fill:url(#SVGID_1_);}
	.st1{fill:#333333;}
	.st2{fill:#FFFFFF;}
	.st3{fill:#2D3E50;}
	.st4{opacity:0.31;fill:#339ECC;}
	.st5{opacity:0.47;}
	.st6{fill:#E6E7E8;}
	.st7{fill:#E84C3D;}
	.st8{fill:#D9D8D7;}
	.st9{fill:#F2F2F2;}
	.st10{fill:#CCCBCA;}
	.st11{fill:#E6E5E5;}
	.st12{fill:none;}
	.st13{font-family:'MyriadPro-Regular';}
	.st14{font-size:21px;}
</style>
<g id="Objetcs">
	<linearGradient id="SVGID_1_" gradientUnits="userSpaceOnUse" x1="162.2599" y1="34.0915" x2="162.2599" y2="358.5967">
		<stop  offset="0" style="stop-color:#3B99D7"/>
		<stop  offset="1" style="stop-color:#5C74D7"/>
	</linearGradient>
	<path class="st0" d="M137.6,36C49.2,49.6-11.7,132.6,1.9,221c13.6,88.4,96.6,149.3,185,135.7c88.4-13.6,149.3-96.6,135.7-185
		C309,83.3,226,22.4,137.6,36z"/>
	<g id="Слой_3">
		<g>
			<g>
				<path class="st1" d="M164.5,274.3c-48-1.4-73.4-29-73.4-79.8v-45.4h-12v-42.4h82.6v42.2h-11.5v38.8c0,34.3,7.8,34.3,14,34.3
					c7,0,14.2,0,14.2-34.5v-38h-11.5v-42.9h77.9v42.2h-11.5v44.6c0,66.8-37.3,80.8-68.6,80.8L164.5,274.3z"/>
				<path class="st2" d="M164.6,269.4C119.1,268,96,242.8,96,194.5v-50.3H84v-32.7h72.8V144h-11.5v43.7c0,36.2,9,39.2,18.9,39.2
					c10.8,0,19.1-2.9,19.1-39.4v-42.9h-11.5v-33.1H240V144h-11.5v49.5C228.4,243.8,207,269.4,164.6,269.4L164.6,269.4z"/>
				<path class="st3" d="M86.5,114h67.9v27.6h-11.5v46.1c0,34.4,7.7,41.7,21.4,41.7c13,0,21.6-5.1,21.6-41.9v-45.3h-11.5V114h63.2
					v27.6H226v51.9c0,50.6-21.2,73.5-61.3,73.5c-43.2-1.3-66.2-23.9-66.2-72.4v-52.8h-12V114z"/>
			</g>
			<g>
				<g>
					<path class="st3" d="M62.6,188.9c-1.8,7.1-7.3,12.7-7.4,12.8c0,0.1-5-6.8-2.9-15.3c2-8.5,9.9-12.9,9.8-12.8
						C62.1,173.7,64.3,181.7,62.6,188.9z"/>
				</g>
				<g>
					<path class="st3" d="M66.1,207.6c-3.8,4.8-10.5,4.4-10.5,4.4c-0.1,0.1-0.9-9.9,3.8-14.8c4.5-4.7,11.2-2.4,11.1-2.4
						C70.3,194.9,69.7,203,66.1,207.6z"/>
				</g>
				<g>
					<path class="st3" d="M67.6,223.3c-2.7,5.3-9.4,6.4-9.4,6.3c-0.1,0.1-2.9-9.3,0.7-14.8c3.5-5.4,10.4-4.5,10.4-4.5
						C69.2,210.3,70.3,218,67.6,223.3z"/>
				</g>
				<g>
					<path class="st3" d="M72.2,238c-1.6,5.7-8,8.1-8,8c-0.1,0.1-4.6-8.5-2.2-14.5c2.3-5.9,9.3-6.4,9.3-6.5
						C71.1,225.2,73.8,232.4,72.2,238z"/>
				</g>
				<g>
					<path class="st3" d="M79.5,251.5c-0.5,5.9-6.2,9.5-6.3,9.4c0,0.1-6.2-7.4-5-13.7c1.1-6.2,7.9-8.1,7.8-8.1
						C76,239.1,80,245.7,79.5,251.5z"/>
				</g>
				<g>
					<path class="st3" d="M89.4,263.2c0.7,5.9-4.2,10.6-4.3,10.5c0,0.1-7.5-6.1-7.6-12.5c-0.1-6.3,6.1-9.5,6.1-9.5
						C83.5,251.8,88.7,257.4,89.4,263.2z"/>
				</g>
				<g>
					<path class="st3" d="M101.4,272.9c1.9,5.7-2,11.2-2.1,11.2c0,0.1-8.6-4.5-10-10.8c-1.4-6.2,4.1-10.5,4.1-10.6
						C93.3,262.8,99.5,267.3,101.4,272.9z"/>
				</g>
				<g>
					<path class="st3" d="M115.3,280c3.1,5.2,0.4,11.4,0.3,11.4c0,0.1-9.6-2.7-12.2-8.7c-2.6-5.8,1.9-11.2,1.8-11.2
						C105.2,271.7,112.2,274.9,115.3,280z"/>
				</g>
				<g>
					<path class="st3" d="M130.7,284.2c4.3,4.5,2.9,11.1,2.8,11.1c0,0.1-10.3-0.7-14.2-6c-3.9-5.2-0.5-11.3-0.6-11.3
						C118.8,278.1,126.5,279.9,130.7,284.2z"/>
				</g>
				<g>
					<path class="st3" d="M43.9,207.5c3.8,6.1,10.7,4.4,10.7,4.5c-0.1-0.1,0.4-9.5-2.4-15.7c-2.9-6.3-9.6-6.7-9.7-6.6
						C42.4,189.7,40,201.4,43.9,207.5z"/>
				</g>
				<g>
					<path class="st3" d="M45.9,227.6c5,5,11.4,2.1,11.4,2.2c-0.1,0-1.5-9.2-5.6-14.5c-4.2-5.3-10.8-4.4-10.9-4.3
						C40.7,210.9,40.8,222.5,45.9,227.6z"/>
				</g>
				<g>
					<path class="st3" d="M51.8,246.6c5.9,3.9,11.6-0.3,11.6-0.2c-0.1,0-3.3-8.7-8.3-12.9c-5.1-4.3-11.5-2-11.5-1.9
						C43.4,231.5,45.8,242.6,51.8,246.6z"/>
				</g>
				<g>
					<path class="st3" d="M61.3,263.9c6.5,2.6,11.3-2.5,11.3-2.5c-0.1,0-4.9-7.9-10.6-11c-5.9-3.2-11.6,0.3-11.6,0.4
						C50.1,250.9,54.6,261.2,61.3,263.9z"/>
				</g>
				<g>
					<path class="st3" d="M73.9,279c6.9,1.3,10.6-4.7,10.6-4.6c-0.1,0-6.4-6.8-12.6-8.7c-6.3-1.9-11.3,2.6-11.3,2.7
						C60.5,268.4,66.8,277.7,73.9,279z"/>
				</g>
				<g>
					<path class="st3" d="M89.3,291.5c7.1,0,9.5-6.7,9.5-6.6c-0.1,0-7.7-5.4-14.1-6.1c-6.6-0.7-10.6,4.8-10.5,4.9
						C74,283.6,82.1,291.5,89.3,291.5z"/>
				</g>
				<g>
					<path class="st3" d="M107.2,300.7c7-1.4,8-8.4,8.1-8.4c-0.1,0.1-8.8-3.8-15.3-3.2c-6.7,0.6-9.5,6.8-9.4,6.8
						C90.4,296,100,302.2,107.2,300.7z"/>
				</g>
				<g>
					<path class="st3" d="M127.1,306.1c6.8-2.8,6.3-9.9,6.3-9.9c-0.1,0.1-9.8-1.9-16.2,0c-6.5,2-8,8.5-7.9,8.6
						C109.2,304.9,120.1,309,127.1,306.1z"/>
				</g>
				<g>
					<path class="st3" d="M149.4,295.2c0,0.6,0.1,1.2,0.1,1.7c-7.5,0.5-14.7,0.1-21.7-1.1c0.1-0.6,0.2-1.1,0.3-1.7
						C134.9,295.4,142,295.7,149.4,295.2z"/>
				</g>
			</g>
			<g>
				<g>
					<path class="st3" d="M261.6,189.2c1.7,7.2,7.2,12.8,7.3,12.9c0,0.1,5-6.8,3.1-15.3c-2-8.5-9.8-13-9.7-12.9
						C262.2,174,260,182,261.6,189.2z"/>
				</g>
				<g>
					<path class="st3" d="M257.9,207.9c3.7,4.8,10.5,4.5,10.5,4.5c0.1,0.1,1-9.9-3.6-14.8c-4.5-4.8-11.1-2.5-11.1-2.5
						C253.8,195.2,254.3,203.2,257.9,207.9z"/>
				</g>
				<g>
					<path class="st3" d="M256.3,223.5c2.7,5.4,9.3,6.5,9.4,6.4c0.1,0.1,3-9.3-0.5-14.8c-3.4-5.4-10.4-4.6-10.3-4.6
						C254.9,210.5,253.7,218.3,256.3,223.5z"/>
				</g>
				<g>
					<path class="st3" d="M251.6,238.2c1.6,5.7,7.9,8.2,7.9,8.1c0.1,0.1,4.7-8.4,2.4-14.5c-2.3-5.9-9.3-6.5-9.2-6.6
						C252.7,225.4,250,232.6,251.6,238.2z"/>
				</g>
				<g>
					<path class="st3" d="M244.1,251.6c0.4,5.9,6.1,9.6,6.2,9.5c0,0.1,6.2-7.3,5.1-13.7c-1.1-6.2-7.8-8.2-7.7-8.2
						C247.7,239.3,243.7,245.8,244.1,251.6z"/>
				</g>
				<g>
					<path class="st3" d="M234.1,263.3c-0.8,5.9,4.1,10.6,4.2,10.6c0,0.1,7.6-6,7.7-12.4c0.2-6.3-6-9.5-6-9.6
						C240.1,251.9,234.9,257.5,234.1,263.3z"/>
				</g>
				<g>
					<path class="st3" d="M222,272.8c-1.9,5.7,1.9,11.2,2,11.2c0,0.1,8.7-4.4,10.1-10.7c1.4-6.2-4-10.6-4-10.6
						C230.2,262.8,224,267.3,222,272.8z"/>
				</g>
				<g>
					<path class="st3" d="M208.1,279.8c-3.1,5.2-0.5,11.4-0.4,11.4c0,0.1,9.6-2.6,12.3-8.5c2.7-5.8-1.8-11.2-1.7-11.2
						C218.2,271.6,211.2,274.8,208.1,279.8z"/>
				</g>
				<g>
					<path class="st3" d="M192.6,283.9c-4.3,4.4-3,11-2.9,11.1c0,0.1,10.3-0.6,14.3-5.9c3.9-5.1,0.6-11.3,0.7-11.3
						C204.6,277.9,196.8,279.6,192.6,283.9z"/>
				</g>
				<g>
					<path class="st3" d="M280.1,208c-3.9,6-10.8,4.3-10.8,4.4c0.1-0.1-0.3-9.5,2.6-15.7c3-6.2,9.7-6.6,9.8-6.5
						C281.8,190.2,284.1,201.9,280.1,208z"/>
				</g>
				<g>
					<path class="st3" d="M277.9,228.1c-5,5-11.4,2-11.4,2.1c0.1,0,1.6-9.2,5.7-14.4c4.2-5.3,10.9-4.3,10.9-4.2
						C283.3,211.5,283.1,223,277.9,228.1z"/>
				</g>
				<g>
					<path class="st3" d="M271.9,247c-5.9,3.8-11.6-0.4-11.6-0.3c0.1,0,3.4-8.6,8.4-12.8c5.2-4.2,11.5-1.9,11.5-1.8
						C280.4,232,277.9,243.1,271.9,247z"/>
				</g>
				<g>
					<path class="st3" d="M262.2,264.2c-6.5,2.6-11.3-2.6-11.3-2.6c0.1,0,5-7.8,10.7-10.9c5.9-3.1,11.6,0.4,11.6,0.5
						C273.5,251.3,268.9,261.6,262.2,264.2z"/>
				</g>
				<g>
					<path class="st3" d="M249.4,279.2c-6.9,1.3-10.5-4.8-10.5-4.7c0.1,0,6.4-6.7,12.6-8.6c6.4-1.9,11.3,2.7,11.3,2.8
						C263,268.8,256.5,278,249.4,279.2z"/>
				</g>
				<g>
					<path class="st3" d="M233.9,291.5c-7.1-0.1-9.4-6.8-9.4-6.7c0.1,0,7.7-5.3,14.2-6c6.6-0.6,10.5,4.9,10.5,5
						C249.3,283.9,241.1,291.7,233.9,291.5z"/>
				</g>
				<g>
					<path class="st3" d="M215.9,300.5c-7-1.5-7.9-8.5-8-8.5c0.1,0.1,8.8-3.7,15.3-3.1c6.7,0.7,9.4,6.9,9.4,6.9
						C232.8,296,223.1,302.1,215.9,300.5z"/>
				</g>
				<g>
					<path class="st3" d="M196,305.8c-6.8-2.9-6.2-10-6.2-9.9c0.1,0.1,9.8-1.8,16.2,0.1c6.5,2,7.9,8.6,7.9,8.7
						C213.9,304.8,202.9,308.8,196,305.8z"/>
				</g>
				<g>
					<path class="st3" d="M173.8,294.7c0,0.6-0.1,1.2-0.1,1.7c7.5,0.6,14.7,0.3,21.7-0.9c-0.1-0.6-0.2-1.1-0.3-1.7
						C188.3,295,181.2,295.3,173.8,294.7z"/>
				</g>
			</g>
		</g>
	</g>
	<path class="st4" d="M225.9,199.7c-0.7-1.4-1.8-2.6-3.2-3.5c-1.4-0.9-2.9-1.4-4.5-1.5l-16.9-1.3c-0.7-4.2-2-8.3-3.9-12.4
		c-0.2-0.5-0.5-1-0.7-1.5l-7.4-14.6l0.6,1.2l12.3-6.2l0,0c0.8,1,1.6,1.9,2.4,2.7c0.1,0.1,0.4,0.4,0.4,0.4c0.1,0.1,0.2,0.1,0.3,0.1
		c0.1,0,0.2,0,0.3-0.1l2.9-1.5c0.1,0,0.2-0.1,0.2-0.2c0.1-0.1,0.1-0.2,0.1-0.3c0,0-0.1-0.4-0.1-0.5c-0.1-0.6-0.2-1.2-0.4-1.8l11.4-2
		c1.2,1.7,2.5,3.2,3.7,4.4c0.1,0.1,0.4,0.4,0.4,0.4c0.1,0.1,0.2,0.1,0.3,0.2c0.1,0,0.2,0,0.3-0.1l2.9-1.5c0.1-0.1,0.2-0.1,0.2-0.2
		c0.1-0.1,0.1-0.2,0.1-0.3c0,0-0.1-0.4-0.1-0.5c-0.2-1.1-0.5-2.3-0.8-3.6l20.1-3.6l-4.1-4c-1-1-2.3-1.9-3.7-2.5
		c-1.4-0.6-2.8-1-4.3-1.1l-13.1-1l-3.5-6.9L218,136c-0.1-0.3-0.4-0.5-0.7-0.6c-0.3-0.1-0.7-0.1-1,0.1l-5.3,2.7
		c-0.3,0.1-0.5,0.4-0.6,0.7c-0.1,0.3-0.1,0.7,0.1,1l0.1,0.2l1.1,2.3l-10.3-0.8l-2-3.9l-0.1-0.2c-0.1-0.3-0.4-0.5-0.7-0.6
		c-0.3-0.1-0.7-0.1-1,0.1l-5.3,2.7c0,0,0,0,0,0l0,0c0,0-0.1,0-0.1,0.1c0,0,0,0-0.1,0c0,0-0.1,0.1-0.1,0.1c0,0,0,0-0.1,0.1
		c-0.1,0.1-0.1,0.1-0.1,0.2c0,0,0,0,0,0c0,0.1-0.1,0.2-0.1,0.2c-0.1,0.2-0.1,0.3-0.1,0.5l-8.4-0.6l0,0l-6.5-0.5l12.4,24.5l0,0
		l-23.9-47c-0.2-0.3-0.3-0.6-0.5-0.9c-0.1-0.2-0.2-0.4-0.4-0.6c-0.1-0.1-0.1-0.2-0.2-0.3c-0.2-0.2-0.3-0.5-0.5-0.7
		c0,0,0-0.1-0.1-0.1c-0.2-0.2-0.4-0.4-0.5-0.7c0,0-0.1-0.1-0.1-0.1c-0.2-0.2-0.4-0.4-0.6-0.6c0,0-0.1-0.1-0.1-0.1
		c-0.2-0.2-0.4-0.4-0.6-0.5c0,0-0.1-0.1-0.1-0.1c-0.2-0.2-0.4-0.3-0.6-0.5c-0.1,0-0.1-0.1-0.2-0.1c-0.2-0.1-0.3-0.3-0.5-0.4
		c-0.1-0.1-0.2-0.1-0.2-0.2c-0.1-0.1-0.3-0.2-0.5-0.3c-0.1-0.1-0.2-0.1-0.3-0.2c-0.1-0.1-0.3-0.1-0.4-0.2c-0.1-0.1-0.3-0.2-0.4-0.2
		c-0.1-0.1-0.2-0.1-0.3-0.1c-0.2-0.1-0.3-0.2-0.5-0.2c-0.1,0-0.2-0.1-0.3-0.1c-0.2-0.1-0.4-0.1-0.6-0.2c-0.1,0-0.1,0-0.2-0.1
		c-0.2-0.1-0.4-0.1-0.6-0.2c-0.1,0-0.1,0-0.2,0c-0.2-0.1-0.5-0.1-0.7-0.2c-0.1,0-0.1,0-0.2,0c-0.2,0-0.5-0.1-0.7-0.1
		c-0.1,0-0.1,0-0.2,0c-0.2,0-0.4,0-0.6,0c0,0,0,0,0,0c0,0,0,0,0,0c-2.6,3.8-2.9,9.3-0.4,14.3l11.4,22.5l-7.9,12.7
		c-0.1-0.1-0.3-0.2-0.4-0.3c-0.2-0.1-0.3-0.1-0.5-0.1c0,0-0.1,0-0.1,0c0,0-0.1,0-0.1,0c0,0-0.1,0-0.1,0c0,0-0.1,0-0.1,0l0,0
		c0,0,0,0,0,0l-5.3,2.7c-0.3,0.1-0.5,0.4-0.6,0.7c-0.1,0.3-0.1,0.7,0.1,1l0.1,0.2l1.3,2.6l0,0l0.7,1.3l-5.4,8.8l-1.1-2.3l-0.1-0.2
		c-0.1-0.3-0.4-0.5-0.7-0.6c-0.3-0.1-0.7-0.1-1,0.1l-5.3,2.7c-0.3,0.1-0.5,0.4-0.6,0.7c-0.1,0.3-0.1,0.7,0.1,1l0.1,0.2l2.8,5.6l0,0
		l0.7,1.3l-6.9,11.1c-0.8,1.2-1.3,2.6-1.6,4.1c-0.3,1.5-0.3,3-0.1,4.4l0.8,5.7l14.8-14.1c0.8,1,1.6,2,2.4,2.8
		c0.1,0.1,0.4,0.4,0.4,0.4c0.1,0.1,0.2,0.1,0.3,0.2c0.1,0,0.2,0,0.3-0.1l2.9-1.5c0.1-0.1,0.2-0.1,0.2-0.2c0.1-0.1,0.1-0.2,0.1-0.3
		c0,0-0.1-0.4-0.1-0.5c-0.3-1.7-0.8-3.6-1.4-5.6l8.4-8c0.4,0.5,0.8,0.9,1.2,1.3c0.1,0.1,0.4,0.4,0.4,0.4c0.1,0.1,0.2,0.1,0.3,0.2
		c0.1,0,0.2,0,0.3-0.1l2.9-1.5c0.1-0.1,0.2-0.1,0.2-0.2c0.1-0.1,0.1-0.2,0.1-0.3c0,0-0.1-0.4-0.1-0.5c-0.2-1.1-0.5-2.3-0.8-3.5l0,0
		l12.3-6.2l-3.1-6.1l9.9,19.5c2.3,4.5,5.2,8.5,8.5,11.9l-8.9,14.4c-0.8,1.3-1.3,2.9-1.4,4.5c-0.1,1.7,0.3,3.3,1,4.6l2,3.9l16.3-15.5
		l0,0l1.6-1.5l8.2-1.5l0,0l16.1-2.9L225.9,199.7z"/>
	<g>
		<g class="st5">
			<path class="st6" d="M247,384.6c-4.9,13.4-12.4,22.5-22.4,25.8c-21.1,7.1-48.4-10.5-75.4-50.7c-0.4-0.5-0.2-1.3,0.3-1.6
				c0.5-0.4,1.3-0.2,1.6,0.3c26.3,39.3,52.7,56.5,72.7,49.8c34.4-11.6,37.6-94.6,7.1-185c-24-71.3-56.8-122.8-80.1-153.6
				c-0.4-0.5-0.3-1.3,0.2-1.6c0.5-0.4,1.2-0.3,1.6,0.2c23.4,30.9,56.3,82.7,80.5,154.2C255.3,288.4,259.5,350.5,247,384.6z"/>
		</g>
		<g class="st5">
			<path class="st6" d="M236.1,379.4c-3.6,9.9-9.1,16.6-16.5,19.5c-15.9,6.1-39-8.3-63.4-39.4c-0.4-0.5,0.1-0.4,0.6-0.7
				c0.5-0.4,2,0.2,2.3,0.7c23.4,29.9,45,43.1,59.7,37.5c29.5-11.3,27.1-89.7-5.3-174.7c-24-62.8-53.7-109.1-74.5-136.8
				c-0.4-0.5-0.3-1.1,0.2-1.5c0.5-0.4,1.1-0.3,1.5,0.2c20.8,27.9,50.7,74.3,74.8,137.3C240.4,286.7,247.5,348.3,236.1,379.4z"/>
		</g>
		<g>
			<g>
				<g>
					<path class="st7" d="M195.4,156.5l16.6,28.1l46.2-11.4l-4.3-7.3c-1.5-2.6-3.7-4.8-6.5-6.5c-2.8-1.6-5.8-2.4-8.8-2.4
						L195.4,156.5z"/>
					<polygon class="st8" points="213.3,156.8 195.4,156.5 212,184.6 227.5,180.8 					"/>
				</g>
				<g>
					<path class="st7" d="M195.4,156.5l16.6,28.1l-32.3,34.9l-4.3-7.3c-1.5-2.6-2.4-5.6-2.5-8.8c-0.1-3.2,0.7-6.3,2.1-8.9
						L195.4,156.5z"/>
					<path class="st9" d="M203.2,177.6l5.9,10.1l2.9-3.1l-16.6-28.1l-5.9,11.1C193.7,171.4,198.3,174.8,203.2,177.6z"/>
				</g>
			</g>
			<g>
				
					<rect x="136.5" y="11.7" transform="matrix(0.8612 -0.5083 0.5083 0.8612 -19.3857 87.0197)" class="st9" width="26.3" height="134.7"/>
				<path class="st9" d="M103,0c-4.5,7.6-4.4,18.4,1.1,27.7c5.5,9.3,14.8,14.6,23.7,14.3c4.5-7.6,4.4-18.4-1.1-27.7
					C121.2,5,111.9-0.2,103,0z"/>
				<path class="st9" d="M172.5,143.7c9,15.2,21.5,26.9,35.5,34.3c0.3-15.8-3.9-32.4-12.9-47.7c-9-15.2-21.5-26.9-35.5-34.3
					C159.4,111.8,163.5,128.4,172.5,143.7z"/>
				<path class="st8" d="M194.4,151l-0.7,2.6L208,178c0.1-8-0.8-16.1-3-24.2L194.4,151z"/>
			</g>
			<g>
				<g>
					<path class="st2" d="M230.9,44.1c-0.3-0.5-0.8-1-1.5-1.1c-0.7-0.2-1.3-0.1-1.9,0.3l-10,5.9c-0.5,0.3-1,0.8-1.1,1.5
						c-0.2,0.7-0.1,1.3,0.3,1.9l0.3,0.5l14.2-8.4L230.9,44.1z"/>
					<path class="st7" d="M240.2,59.8l-9-15.2L217,52.9l9,15.2c5.8,9.9,12.4,18.2,18.4,23.6c0.1,0.1,0.7,0.7,0.7,0.7
						c0.2,0.1,0.4,0.2,0.6,0.3c0.2,0,0.4,0,0.6-0.1l5.4-3.2c0.2-0.1,0.3-0.3,0.4-0.5c0.1-0.2,0.1-0.4,0.1-0.6c0,0-0.2-0.8-0.2-1
						C250.1,79.4,246,69.7,240.2,59.8L240.2,59.8z"/>
				</g>
				<g>
					<path class="st2" d="M195,49.2c-0.3-0.5-0.8-1-1.5-1.1c-0.7-0.2-1.3-0.1-1.9,0.3l-10,5.9c-0.5,0.3-1,0.8-1.1,1.5
						c-0.2,0.7-0.1,1.3,0.3,1.9L181,58l14.2-8.4L195,49.2z"/>
					<path class="st7" d="M204.2,64.8l-9-15.2L181,58l9,15.2c5.9,9.9,12.4,18.2,18.4,23.6c0.1,0.1,0.7,0.7,0.7,0.7
						c0.2,0.1,0.4,0.2,0.6,0.3c0.2,0,0.4,0,0.6-0.1l5.4-3.2c0.2-0.1,0.3-0.3,0.4-0.5c0.1-0.2,0.1-0.4,0.1-0.6c0,0-0.2-0.8-0.2-1
						C214.1,84.5,210,74.7,204.2,64.8L204.2,64.8z"/>
				</g>
				<g>
					<g>
						<path class="st10" d="M228.7,72.5c-0.9-1.4-1.8-2.9-2.7-4.4L218,54.7l19.3,0.2l2.9,4.9l0,0c0.9,1.5,1.7,3,2.5,4.5L228.7,72.5z
							"/>
						<path class="st10" d="M212.6,82c-2.1-5.4-5-11.2-8.4-17.1l0,0l-6.1-10.4l-16.5-0.2c-0.5,0.3-0.9,0.8-1,1.5
							c-0.2,0.7-0.1,1.3,0.3,1.9L181,58l9,15.2c3.5,5.9,7.2,11.2,10.9,15.7L212.6,82z"/>
					</g>
				</g>
				<g>
					<path class="st9" d="M288.2,70.9l-8.4-7.3c-2.1-1.8-4.6-3.3-7.3-4.4c-2.8-1.1-5.6-1.6-8.4-1.6l-112.5-1.4l29,49.1l23-13.6
						L288.2,70.9z"/>
					<polygon class="st10" points="279.2,73.2 203.5,91.8 180.5,105.4 178.5,102.1 201.5,88.5 277.9,72.1 					"/>
				</g>
			</g>
			<g>
				<g>
					<path class="st9" d="M79.8,133.3c-0.3-0.5-0.4-1.2-0.3-1.9c0.2-0.7,0.6-1.2,1.1-1.5l10-5.9c0.5-0.3,1.2-0.4,1.9-0.3
						c0.7,0.2,1.2,0.6,1.5,1.1l0.3,0.5L80,133.8L79.8,133.3z"/>
					<path class="st7" d="M89,149l-9-15.2l14.2-8.4l9,15.2c5.8,9.9,9.9,19.6,11.8,27.5c0,0.2,0.2,1,0.2,1c0,0.2,0,0.4-0.1,0.6
						c-0.1,0.2-0.2,0.4-0.4,0.5l-5.4,3.2c-0.2,0.1-0.4,0.2-0.6,0.2c-0.2,0-0.4-0.1-0.6-0.3c0,0-0.6-0.5-0.7-0.6
						C101.4,167.1,94.9,158.9,89,149L89,149z"/>
				</g>
				<g>
					<path class="st9" d="M101.6,104.3c-0.3-0.5-0.4-1.2-0.3-1.9c0.2-0.7,0.6-1.2,1.1-1.5l10-5.9c0.5-0.3,1.2-0.4,1.9-0.3
						c0.7,0.2,1.2,0.6,1.5,1.1l0.3,0.4l-14.2,8.4L101.6,104.3z"/>
					<path class="st7" d="M110.8,119.9l-9-15.2l14.2-8.4l9,15.2c5.9,9.9,9.9,19.6,11.8,27.5c0,0.2,0.2,1,0.2,1c0,0.2,0,0.4-0.1,0.6
						c-0.1,0.2-0.2,0.4-0.4,0.5l-5.4,3.2c-0.2,0.1-0.4,0.2-0.6,0.1c-0.2,0-0.4-0.1-0.6-0.3c0,0-0.6-0.5-0.7-0.7
						C123.3,138.1,116.7,129.8,110.8,119.9L110.8,119.9z"/>
				</g>
				<g>
					<path class="st10" d="M133.5,128.7c-2.1-5.4-5-11.2-8.4-17.1l-9-15.2l-0.3-0.4c-0.3-0.5-0.8-1-1.5-1.1
						c-0.6-0.2-1.2-0.1-1.8,0.2l-7.8,14.6l6.1,10.4l0,0c3.5,5.9,7.2,11.2,10.9,15.7L133.5,128.7z"/>
					<path class="st10" d="M105.7,145.1c-0.8-1.5-1.6-3-2.5-4.5l-7.9-13.5l-9.1,17L89,149l0,0c0.9,1.5,1.8,3,2.7,4.4L105.7,145.1z"
						/>
				</g>
				<g>
					<path class="st9" d="M75.6,196.5l-2.3-10.9c-0.6-2.7-0.7-5.6-0.3-8.6c0.4-2.9,1.3-5.7,2.7-8.1l53.2-99.2l29,49.1l-23,13.6
						L75.6,196.5z"/>
					<polygon class="st10" points="81.9,189.6 134.9,132.3 157.8,118.8 155.9,115.5 132.9,129 81.6,188 					"/>
				</g>
			</g>
			<polygon class="st8" points="164.2,56.5 151.5,56.3 180.5,105.4 189.8,99.9 			"/>
			<polygon class="st9" points="127.7,71.9 156,119.9 157.8,118.8 128.9,69.7 			"/>
			<path class="st10" d="M110.3,12.3c3.6-2.1,7.9-2.1,11.9-0.5c-3.8-4.4-9.7-6-14.1-3.3c-4.4,2.6-6,8.5-3.9,14
				C104.6,18.3,106.7,14.5,110.3,12.3z"/>
			<g>
				<g>
					
						<rect x="109.2" y="6.2" transform="matrix(0.8612 -0.5083 0.5083 0.8612 9.512 57.2767)" class="st9" width="0.9" height="10"/>
					<rect x="104.4" y="9" transform="matrix(0.8612 -0.5083 0.5083 0.8612 7.4041 55.2293)" class="st9" width="0.9" height="10"/>
					
						<rect x="114" y="3.4" transform="matrix(0.8612 -0.5082 0.5082 0.8612 11.6167 59.3182)" class="st9" width="0.9" height="10"/>
				</g>
			</g>
			<path class="st11" d="M103.1,0c4.5,2.3,10.9,9.3,16.4,18.6l68.5,116c9,15.2,15.8,30.2,20.1,43.3c0.3-15.8-3.9-32.4-12.9-47.6
				l-68.5-116C121.2,5,111.9-0.2,103.1,0z"/>
		</g>
	</g>
	<rect x="138.6" y="312.7" class="st12" width="52" height="16"/>
	<text transform="matrix(1 0 0 1 138.5933 327.5876)" class="st3 st13 st14">1876</text>
</g>
</svg>
