<?xml version="1.0" encoding="utf-8"?>
<!-- Generator: Adobe Illustrator 19.2.1, SVG Export Plug-In . SVG Version: 6.00 Build 0)  -->
<svg version="1.1" id="Слой_1" xmlns="http://www.w3.org/2000/svg" xmlns:xlink="http://www.w3.org/1999/xlink" x="0px" y="0px"
	 viewBox="0 0 29 17" style="enable-background:new 0 0 29 17;" xml:space="preserve">
<style type="text/css">
	.st0{fill:#2D3E50;}
</style>
<path class="st0" d="M27.7,13.3c-0.6-0.8-1.3-1.5-2-2.1c-0.2-0.2-0.5-0.5-0.7-0.7c-0.7-0.7-0.7-1-0.2-1.8C25.2,8.1,25.6,7.6,26,7
	c0.4-0.5,0.7-1,1.1-1.5l0.1-0.1c0.7-1,1.4-1.9,1.8-3.1c0.1-0.3,0.2-0.8,0-1.2c-0.2-0.4-0.7-0.5-1-0.6c-0.2,0-0.3,0-0.5,0l-4.5,0l0,0
	c-0.7,0-1.1,0.3-1.4,1c-0.2,0.6-0.5,1.3-0.8,2c-0.6,1.3-1.4,2.8-2.5,4l0,0.1c-0.1,0.1-0.3,0.3-0.4,0.3c0,0,0,0-0.1,0
	c-0.2-0.1-0.4-0.7-0.4-0.9c0,0,0,0,0,0l0-5.2c0,0,0,0,0-0.1c-0.1-0.9-0.4-1.4-1.3-1.6c0,0-0.1,0-0.1,0h-4.6C10.4,0,10,0.3,9.6,0.8
	C9.5,0.9,9.3,1.2,9.4,1.5C9.5,1.8,9.9,1.9,10,1.9C10.6,2,10.9,2.4,11,3c0.2,1.1,0.2,2.3,0.1,3.7c0,0.4-0.1,0.7-0.2,1
	c0,0.1-0.1,0.3-0.2,0.3c0,0-0.1,0-0.3-0.1c-0.4-0.3-0.6-0.6-0.9-1c-1-1.5-1.9-3.1-2.7-5C6.5,1,6,0.6,5.3,0.6c-0.7,0-1.4,0-2.1,0
	c-0.7,0-1.3,0-2,0c-0.5,0-0.9,0.2-1.1,0.5c-0.2,0.3-0.2,0.7,0,1.2c1.8,4,3.4,7,5.2,9.5c1.3,1.8,2.6,3,4.1,3.9
	c1.6,0.9,3.3,1.4,5.4,1.4c0.2,0,0.5,0,0.7,0c1.2-0.1,1.6-0.5,1.7-1.7c0-0.6,0.1-1.2,0.4-1.8c0.2-0.3,0.4-0.3,0.4-0.3
	c0.1,0,0.2,0.1,0.4,0.1c0.3,0.2,0.5,0.4,0.7,0.6c0.2,0.2,0.3,0.4,0.5,0.6c0.4,0.4,0.7,0.8,1.1,1.3c0.9,0.9,1.8,1.3,2.9,1.2h4.1
	c0,0,0,0,0,0c0.4,0,0.8-0.3,1-0.6c0.3-0.5,0.3-1.1,0-1.6C28.5,14.2,28.1,13.7,27.7,13.3z"/>
</svg>
