<?xml version="1.0" encoding="utf-8"?>
<!-- Generator: Adobe Illustrator 19.2.1, SVG Export Plug-In . SVG Version: 6.00 Build 0)  -->
<svg version="1.1" id="Слой_1" xmlns="http://www.w3.org/2000/svg" xmlns:xlink="http://www.w3.org/1999/xlink" x="0px" y="0px"
	 viewBox="0 0 38 28" style="enable-background:new 0 0 38 28;" xml:space="preserve">
<style type="text/css">
	.st0{fill:#3E99D4;}
</style>
<path class="st0" d="M19,21c-1.9,0-3.5,1.6-3.5,3.5c0,1.9,1.6,3.5,3.5,3.5c1.9,0,3.5-1.6,3.5-3.5C22.5,22.6,20.9,21,19,21z
	 M37.6,8.8C32.9,3.2,26.2,0,19,0C11.8,0,5,3.2,0.4,8.8c-0.6,0.7-0.5,1.8,0.2,2.5c0.3,0.3,0.7,0.4,1.1,0.4c0.5,0,1-0.2,1.3-0.6
	C7,6.2,12.8,3.5,19,3.5c6.1,0,12,2.7,15.9,7.5c0.3,0.4,0.8,0.6,1.3,0.6c0.4,0,0.8-0.1,1.1-0.4C38.1,10.6,38.2,9.5,37.6,8.8z M19,7
	C13.9,7,9,9.3,5.7,13.3c-0.6,0.7-0.5,1.8,0.2,2.5C6.3,16,6.7,16.1,7,16.1c0.5,0,1-0.2,1.3-0.6c2.7-3.2,6.5-5,10.6-5s8,1.8,10.6,5
	c0.3,0.4,0.8,0.6,1.3,0.6c0.4,0,0.8-0.1,1.1-0.4c0.7-0.6,0.8-1.7,0.2-2.5C29,9.3,24.1,7,19,7z M19,14c-3.1,0-6,1.4-8,3.8
	c-0.6,0.7-0.5,1.8,0.2,2.5c0.3,0.3,0.7,0.4,1.1,0.4c0.5,0,1-0.2,1.3-0.6c1.3-1.6,3.3-2.5,5.3-2.5c2,0,4,0.9,5.3,2.5
	c0.3,0.4,0.8,0.6,1.3,0.6c0.4,0,0.8-0.1,1.1-0.4c0.7-0.6,0.8-1.7,0.2-2.5C25,15.4,22.1,14,19,14z"/>
</svg>
