<?xml version="1.0" encoding="utf-8"?>
<!-- Generator: Adobe Illustrator 17.1.0, SVG Export Plug-In . SVG Version: 6.00 Build 0)  -->
<!DOCTYPE svg PUBLIC "-//W3C//DTD SVG 1.1//EN" "http://www.w3.org/Graphics/SVG/1.1/DTD/svg11.dtd">
<svg version="1.1" id="Layer_1" xmlns="http://www.w3.org/2000/svg" xmlns:xlink="http://www.w3.org/1999/xlink" x="0px" y="0px"
	 viewBox="0 0 106 106" enable-background="new 0 0 106 106" xml:space="preserve">
<g id="Layer_2">
	<path fill="#F6C63F" d="M41.6,41.7h28.3v2.1H41.6V41.7z"/>
	<path fill="#F6C63F" d="M41.6,35.2h28.3v2.2H41.6V35.2z"/>
	<path fill="#F6C63F" d="M76.5,38.2v-7.2c0-2.4-2-4.4-4.4-4.4h-8.9L55.7,20l-7.3,6.5h-8.9c-2.4,0-4.4,2-4.4,4.4v7.3l-6.5,5.5V74
		c0,2.4,2,4.4,4.4,4.4h45.8c2.4,0,4.4-2,4.4-4.4V43.8L76.5,38.2z M76.5,41l3.3,2.8l-3.3,2.8V41z M55.7,22.8l4.2,3.7h-8.5L55.7,22.8z
		 M37.3,30.8c0-1.3,0.9-2.2,2.2-2.2h32.7c1.1,0,2.2,1.1,2.2,2.2v17.5l-6.9,6.2H44.2l-6.9-6V30.8z M60.2,61.1L60.2,61.1h-7.4h3.7
		h-5.1l-4.8-4.4h18.1L60.2,61.1L60.2,61.1z M35.1,41v5.8l-3.3-3L35.1,41z M31.4,75.7c-0.4-0.4-0.7-0.9-0.7-1.5V60V46l17.4,15.2
		L31.4,75.7z M34,76.3l15.3-13h13.1l15.3,13C77.6,76.3,34,76.3,34,76.3z M80.8,60v14.1c0,0.7-0.2,1.1-0.7,1.5L63.3,61.1L80.8,46V60z
		"/>
	<path fill="#F6C63F" d="M41.6,48.1h28.3v2.2H41.6V48.1z"/>
</g>
</svg>
