<?xml version="1.0" encoding="utf-8"?>
<!-- Generator: Adobe Illustrator 17.1.0, SVG Export Plug-In . SVG Version: 6.00 Build 0)  -->
<!DOCTYPE svg PUBLIC "-//W3C//DTD SVG 1.1//EN" "http://www.w3.org/Graphics/SVG/1.1/DTD/svg11.dtd">
<svg version="1.1" id="Layer_1" xmlns="http://www.w3.org/2000/svg" xmlns:xlink="http://www.w3.org/1999/xlink" x="0px" y="0px"
	 viewBox="0 0 106 106" enable-background="new 0 0 106 106" xml:space="preserve">
<g id="Layer_2">
	<path fill="#F6C63F" d="M37.1,56.4L31.5,61c-0.4,0.3-1,0.3-1.3-0.1c-0.1-0.2-0.2-0.4-0.2-0.6l0,0v-3.9c-1.2-0.2-2.3-0.8-3.1-1.6
		l0,0l0,0c-1-1-1.7-2.5-1.7-4V30.7c0-1.6,0.6-3,1.7-4l0.1-0.1c1-1,2.4-1.6,4-1.6h32.8c1.6,0,3,0.6,4,1.7c1,1,1.7,2.5,1.7,4v20
		c0,1.6-0.6,3-1.7,4v0.1c-1,1-2.4,1.6-4,1.6L37.1,56.4L37.1,56.4z M31.6,58.4l4.4-3.5c0.2-0.2,0.4-0.3,0.6-0.3h27.1
		c1,0,2-0.4,2.7-1.1l0,0c0.7-0.7,1.1-1.7,1.1-2.7V30.7c0-1.1-0.4-2-1.1-2.7c-0.7-0.7-1.6-1.2-2.7-1.2h-33c-1,0-2,0.4-2.7,1.1l0,0
		c-0.7,0.8-1.2,1.7-1.2,2.8v20c0,1.1,0.4,2,1.1,2.7l0,0c0.7,0.7,1.6,1.1,2.7,1.1l0,0c0.5,0,0.9,0.4,0.9,0.9L31.6,58.4L31.6,58.4z
		 M26.9,26.8l0.2-0.3C26.8,26.1,27.3,26.5,26.9,26.8L26.9,26.8z M67.8,54.9L67.5,55C67.8,55.4,67.4,55.2,67.8,54.9z"/>
	<path fill="#F6C63F" d="M33.1,34.1c-0.5,0-1-0.4-1-0.9c0-0.5,0.4-0.9,0.9-0.9h28.3c0.5,0,0.9,0.4,0.9,0.9c0,0.5-0.4,0.9-0.9,0.9
		H33.1z"/>
	<path fill="#F6C63F" d="M33.1,39.8c-0.5,0-0.9-0.4-0.9-0.9c0-0.5,0.4-0.9,0.9-0.9h28.3c0.5,0,0.9,0.4,0.9,0.9
		c0,0.5-0.4,0.9-0.9,0.9H33.1z"/>
	<path fill="#F6C63F" d="M72.1,56.4c-0.5,0-0.9-0.4-0.9-0.9c0-0.5,0.4-0.9,0.9-0.9h3.6c0.5,0,0.9,0.4,0.9,0.9c0,0.5-0.4,0.9-0.9,0.9
		H72.1z"/>
	<path fill="#F6C63F" d="M47.3,62.1c-0.5,0-0.9-0.4-0.9-0.9c0-0.5,0.4-0.9,0.9-0.9h28.3c0.5,0,0.9,0.4,0.9,0.9
		c0,0.5-0.4,0.9-0.9,0.9H47.3z"/>
	<path fill="#F6C63F" d="M47.3,67.8c-0.5,0-0.9-0.4-0.9-0.9s0.4-0.9,0.9-0.9h28.3c0.5,0,0.9,0.4,0.9,0.9s-0.4,0.9-0.9,0.9H47.3z"/>
	<path fill="#F6C63F" d="M47.3,73.4c-0.5,0-0.9-0.4-0.9-0.9c0-0.5,0.4-0.9,0.9-0.9h20c0.5,0,0.9,0.4,0.9,0.9c0,0.5-0.4,0.9-0.9,0.9
		H47.3z"/>
	<path fill="#F6C63F" d="M39.4,60.3c0-0.5,0.4-0.9,0.9-0.9s0.9,0.4,0.9,0.9v13c0,1.1,0.4,2,1.1,2.7l0,0c0.7,0.7,1.6,1.1,2.7,1.1
		h27.1c0.3,0,0.5,0.1,0.6,0.3l4.4,3.5V78c0-0.5,0.4-0.9,0.9-0.9l0,0c1.1,0,2-0.4,2.7-1.1l0,0c0.7-0.7,1.1-1.7,1.1-2.7v-19
		c0-1.1-0.4-2-1.1-2.7l0,0c-0.7-0.7-1.6-1.1-2.7-1.1h-4.8c-0.5,0-0.9-0.4-0.9-0.9c0-0.5,0.4-0.9,0.9-0.9H78c1.5,0,2.9,0.6,4,1.6
		l0.1,0.1c1,1,1.7,2.5,1.7,4v18.9c0,1.6-0.6,3-1.7,4l0,0l0,0c-0.8,0.8-1.9,1.4-3.1,1.6v3.8l0,0c0,0.2-0.1,0.4-0.2,0.6
		c-0.3,0.4-0.9,0.5-1.3,0.1l-5.6-4.7H45c-1.5,0-2.9-0.6-4-1.6l0,0c-1-1-1.7-2.5-1.7-4L39.4,60.3L39.4,60.3z"/>
	<path fill="#F6C63F" d="M33.1,45.4c-0.5,0-0.9-0.4-0.9-0.9c0-0.5,0.4-0.9,0.9-0.9h20c0.5,0,0.9,0.4,0.9,0.9c0,0.5-0.4,0.9-0.9,0.9
		H33.1z"/>
</g>
</svg>
