<?xml version="1.0" encoding="utf-8"?>
<!-- Generator: Adobe Illustrator 17.1.0, SVG Export Plug-In . SVG Version: 6.00 Build 0)  -->
<!DOCTYPE svg PUBLIC "-//W3C//DTD SVG 1.1//EN" "http://www.w3.org/Graphics/SVG/1.1/DTD/svg11.dtd">
<svg version="1.1" id="Layer_1" xmlns="http://www.w3.org/2000/svg" xmlns:xlink="http://www.w3.org/1999/xlink" x="0px" y="0px"
	 viewBox="0 0 106 106" enable-background="new 0 0 106 106" xml:space="preserve">
<g id="Layer_2">
	<path fill="#F6C63F" d="M75.5,64.8l10.6-17.2l-7.9-2L70,53.4c-5.5-2-38.3-13.2-48.6-12.9c-6.4,0.2-9.4,1.2-10,3.3
		c-0.5,1.7,0.8,3.4,3.8,5.4c4.5,2.9,15.5,5.7,17.9,6.3l17.1,21H60l-0.5-14.3L75.5,64.8z M51.7,73.8l-17-20.5l-0.4-0.1
		c-0.1,0-12.9-3.1-17.5-6.1c-2.7-1.7-2.8-2.6-2.8-2.6s0.6-1.3,7.6-1.5h0.4c11.2,0,47.7,12.9,48,13l0.8,0.3l8.3-7.9l3.1,0.8l-8,12.8
		l-17.2-2.8L57.4,74L51.7,73.8L51.7,73.8L51.7,73.8z M53.4,41.3l6.8,1.5l-1.7,3.5l2.4,1.1L64,41l-10.5-2.3l-14.8,1.9l0.3,2.6
		L53.4,41.3z M64.7,76.3L81.4,78l0.3-2.6L65,73.8L64.7,76.3z M75.8,69.6l-11.1-1.1l-0.3,2.6l11.1,1.1L75.8,69.6z"/>
</g>
</svg>
