<?xml version="1.0" encoding="utf-8"?>
<!-- Generator: Adobe Illustrator 17.1.0, SVG Export Plug-In . SVG Version: 6.00 Build 0)  -->
<!DOCTYPE svg PUBLIC "-//W3C//DTD SVG 1.1//EN" "http://www.w3.org/Graphics/SVG/1.1/DTD/svg11.dtd">
<svg version="1.1" id="Layer_1" xmlns="http://www.w3.org/2000/svg" xmlns:xlink="http://www.w3.org/1999/xlink" x="0px" y="0px"
	 viewBox="0 0 106 106" enable-background="new 0 0 106 106" xml:space="preserve">
<g id="Layer_2">
	<path fill="#F6C63F" d="M83,56.4c-0.7-0.7-1.6-1.6-2.6-2.8V43.3c0-0.1,0-2.7-1.4-5.4c-1.3-2.4-4.1-5.4-10.1-5.4H57.6l-0.7-1.4
		c0.8-0.6,1.4-1.5,1.4-2.6c0-1.7-1.4-3.1-3.1-3.1c-0.9,0-1.6,0.4-2.2,0.9c-0.6-0.6-1.3-1-2.2-1c-1.7,0-3.1,1.4-3.1,3.1
		c0,1.1,0.6,2.1,1.4,2.6l-0.7,1.4H36.9c-5.9,0-8.7,3-10.1,5.4c-1.4,2.6-1.4,5.3-1.4,5.4v10.4c-1,1.2-1.9,2.1-2.6,2.8
		c-2,2-2.9,2.9-2.9,6.9c0,3,0.6,6.9,4.9,10.2c3.1,2.3,7.6,3.9,13.7,4.8c0.1,0.1,6.5,1,14.4,1s14.3-0.9,14.4-0.9
		c6.1-0.9,10.6-2.5,13.7-4.8c4.3-3.3,4.9-7.2,4.9-10.2C85.9,59.4,85.1,58.5,83,56.4z M55.2,26.9c0.7,0,1.3,0.6,1.3,1.3
		s-0.6,1.3-1.3,1.3s-1.3-0.6-1.3-1.3S54.5,26.9,55.2,26.9z M53,30.6c0.5,0.5,1.3,0.9,2.1,0.9l0.5,0.9h-5.1l0.5-0.9
		C51.7,31.4,52.5,31.1,53,30.6z M50.8,26.9c0.7,0,1.3,0.6,1.3,1.3s-0.6,1.3-1.3,1.3c-0.7,0-1.3-0.6-1.3-1.3S50.1,26.9,50.8,26.9z
		 M27.3,43.3c0-0.4,0.2-9,9.7-9h32c9.5,0,9.7,8.6,9.7,9V51c-0.8-1.6-1.1-3.3-1.5-5.6l-0.1-0.6c-0.8-4.4-3.6-6.4-5.7-7.4
		c-2.3-1-4.4-1-4.5-1H39c-0.1,0-2.2,0-4.5,1c-2.2,1-4.9,3-5.7,7.4l-0.1,0.6c-0.4,2.4-0.7,4-1.5,5.6L27.3,43.3L27.3,43.3z M21.7,63.3
		c0-3.3,0.5-3.8,2.3-5.6c0.8-0.8,1.7-1.7,2.9-3.2c2.4-2.9,2.9-5.3,3.5-8.9l0.1-0.6c1.2-6.8,8.1-6.9,8.4-6.9h3
		c0,2.3-0.1,9.1-2.7,16.2c-0.4,1.1-0.8,2.2-1.2,3.2c-3,8.1-4.8,12.9-1.3,18.6C21.7,73.4,21.7,66.3,21.7,63.3z M39.4,76.6
		c-4.2-5.7-2.7-9.7,0.5-18.4c0.4-1,0.8-2.1,1.2-3.2c2.7-7.4,2.9-14.3,2.8-16.8h18.1c0,2.5,0.1,9.4,2.8,16.8c0.4,1.1,0.8,2.2,1.2,3.2
		c3.2,8.7,4.8,12.7,0.5,18.4c-3.9,0.6-8.4,0.8-13.6,0.8C47.5,77.5,43.1,77,39.4,76.6z M79.9,72.1c-2.5,1.9-6.2,3.2-11,4.1
		c3.5-5.8,1.7-10.6-1.3-18.6c-0.4-1-0.8-2.1-1.2-3.2c-2.6-7-2.7-13.8-2.7-16.2h3c0,0,1.8,0,3.8,0.9c2.6,1.1,4.1,3.2,4.7,6.1l0.1,0.6
		c0.7,3.7,1.1,6.1,3.5,9c1.2,1.4,2.2,2.4,2.9,3.2c1.8,1.8,2.3,2.3,2.3,5.6C84.2,66.2,83.7,69.3,79.9,72.1z"/>
</g>
</svg>
